<svg width="492" height="516" viewBox="0 0 492 516" fill="none" xmlns="http://www.w3.org/2000/svg">
<path d="M171 11.4999L471.5 188.5L443 205L133.5 30.5L152.5 20.5L171 11.4999Z" fill="#124177"/>
<path d="M210.5 116.5L206 298.501L185.5 309.501L166.5 319L166.5 92.9996L187.5 104.5L210.5 116.5Z" fill="#124177"/>
<path d="M57.7638 105.653L130.716 145.625L211.154 175L268.131 203.575L468.5 312.999L425.5 336.5L211.154 221.59L130.716 188L19.2759 129.66L43.7686 113.155L57.7638 105.653Z" fill="#124177"/>
<path d="M89.4992 202.5L89.4992 231L89.4992 284L89.4992 325.5L87.9995 444L51.4995 464L51.4995 297.5L51.4995 243L51.5002 147.5L89.4992 202.5Z" fill="#1D518C"/>
<path d="M166.5 92.4997L166.5 319.5L132 337L132 74.5L145.5 81.4997L166.5 92.4997Z" fill="#68B3EA"/>
<path d="M279.5 298L88.0001 404.5L88.0001 359.5L245.5 278.396L258.5 285.396L279.5 298Z" fill="#124177"/>
<path d="M51.5001 179.5L51.5001 465L16.5001 447L16.5 159L34.5 170L51.5001 179.5Z" fill="#68B3EA"/>
<path d="M430 334L205 451.5L207.5 408L388 313L405.5 321.5L430 334Z" fill="#124177"/>
<path d="M315 319L88 443L88 404.5L279 298.5L293.5 307.5L315 319Z" fill="#1D518C"/>
<path d="M207.5 377.5L205.5 451.5L203 455.5L199 462L189 477.5L169.5 508L169.5 398.5L186.103 388.663L207.5 377.5Z" fill="#1D518C"/>
<path d="M469 351.5L312.5 432.5L168 509L190.5 474.5L200 460L206 450.5L469 313L469 332.5L469 351.5Z" fill="#1D518C"/>
<path d="M445 204.5L403 228L359 253L323 233.5L365.5 208L408.5 184L423 192L445 204.5Z" fill="#124177"/>
<path d="M17.1318 129L130.632 188L130 224L17.1317 161.5L17.1317 143L17.1318 129Z" fill="#68B3EA"/>
<path d="M207 219.5L385 315L345.5 335.5L207 257.5L207 239L207 219.5Z" fill="#68B3EA"/>
<path d="M169 399L169 509L137 498.5L137 416.5L154.5 406.5L169 399Z" fill="#68B3EA"/>
<path d="M473 231.951L394 272.5L377 263L359 253L407.5 225.5L445 204.5L462.5 194L468 190.5L473 188L473 209.951L473 231.951Z" fill="#1D518C" fill-opacity="0.95"/>
<path d="M132 30.0006L407.5 184.5L373 203.5L132 74.641L132 44.5006L132 30.0006Z" fill="#68B3EA"/>
</svg>
