<svg width="533" height="573" viewBox="0 0 533 573" fill="none" xmlns="http://www.w3.org/2000/svg">
<path d="M439.757 250.929L440.49 250.489L439.747 250.066L171.112 97.058L210.969 79.5598L511.494 253.495L394.991 319.43L358.019 299.971L439.757 250.929Z" fill="#1D3BB4" stroke="#545050"/>
<path d="M429.574 379.324L430.451 378.878L429.575 378.432L62.9841 191.94L99.8812 167.07L508.756 378.875L249.5 511.682L249.5 470.807L429.574 379.324Z" fill="#1D3BB4" stroke="#545050"/>
<path d="M129 421.308L283.476 343.572L317.506 364.476L129 468.154L129 421.308Z" fill="#1D3BB4" stroke="#545050"/>
<path d="M92.5 246V529.133L61.5 511.212V192.315L428.404 379.003L385.004 401.435L93.2356 245.559L92.5 245.166V246Z" fill="#B8C2CA" stroke="#545050"/>
<path d="M205.5 155V382.687L170.5 399.701V97.36L439.505 250.509L408.494 268.922L206.246 154.565L205.5 154.143V155Z" fill="#B8C2CA" stroke="#545050"/>
<path d="M205.5 154L251 179.5V359.5L206 382.5L205.5 154Z" fill="#001E96"/>
<path d="M509.5 415.697L211.5 571.175V464.295L249.5 443.347V512V512.817L250.228 512.445L509.5 379.817V415.697Z" fill="#061E7D" stroke="#545050"/>
<path d="M179.5 563.615V481.801L210.5 465.332V571.85L179.5 563.615Z" fill="#B8C2CA" stroke="#545050"/>
<path d="M128.74 468.939L316.503 366.068L352.951 385.507L93.5 528.653V246.824L128 264.803V468.5V469.344L128.74 468.939Z" fill="#061E7D" stroke="#545050"/>
<path d="M433.5 338.933L396.543 319.484L511.538 254.336L513.486 296.704L433.5 338.933Z" fill="#061E7D" stroke="#545050"/>
</svg>
