<svg width="467" height="516" viewBox="0 0 467 516" fill="none" xmlns="http://www.w3.org/2000/svg">
<path d="M152 11.4999L452.5 188.5L424 205L114.5 30.5L133.5 20.5L152 11.4999Z" fill="#124177"/>
<path d="M191.5 116.5L187 298.501L166.5 309.501L147.5 319L147.5 92.9996L168.5 104.5L191.5 116.5Z" fill="#124177"/>
<path d="M38.7638 105.653L111.716 145.625L192.154 175L249.131 203.575L449.5 312.999L406.5 336.5L192.154 221.59L111.716 188L0.275889 129.66L24.7686 113.155L38.7638 105.653Z" fill="#124177"/>
<path d="M70.4992 202.5L70.4992 231L70.4992 284L70.4992 325.5L68.9995 444L32.4995 464L32.4995 297.5L32.4995 243L32.5002 147.5L70.4992 202.5Z" fill="#1D518C"/>
<path d="M260.5 298L69.0001 404.5L69.0001 359.5L226.5 278.396L239.5 285.396L260.5 298Z" fill="#124177"/>
<path d="M411 334L186 451.5L188.5 408L369 313L386.5 321.5L411 334Z" fill="#124177"/>
<path d="M296 319L69 443L69 404.5L260 298.5L274.5 307.5L296 319Z" fill="#1D518C"/>
<path d="M188.5 377.5L186.5 451.5L184 455.5L180 462L170 477.5L150.5 508L150.5 398.5L167.103 388.663L188.5 377.5Z" fill="#1D518C"/>
<path d="M450 351.5L293.5 432.5L149 509L171.5 474.5L181 460L187 450.5L450 313L450 332.5L450 351.5Z" fill="#1D518C"/>
<path d="M426 204.5L384 228L340 253L304 233.5L346.5 208L389.5 184L404 192L426 204.5Z" fill="#124177"/>
</svg>
