<!-- Generated by IcoMoon.io -->
<svg version="1.1" xmlns="http://www.w3.org/2000/svg" width="13" height="32" viewBox="0 0 13 32">
<title>1</title>
<path d="M6.668 31.724h-0.395v0.46l0.454-0.069-0.059-0.391zM6.668 6.479h0.395v-0.657l-0.58 0.308 0.185 0.349zM1.453 9.244l-0.34 0.201 0.192 0.325 0.334-0.177-0.185-0.349zM0.15 7.032l-0.285-0.274-0.208 0.216 0.152 0.258 0.34-0.201zM6.905 0l0.083-0.386-0.215-0.046-0.153 0.159 0.285 0.274zM12.396 1.185l0.395 0.010 0.009-0.328-0.32-0.069-0.083 0.386zM11.606 30.973l0.059 0.391 0.327-0.050 0.009-0.33-0.395-0.010zM7.063 31.724v-25.244h-0.79v25.244h0.79zM6.483 6.13l-5.215 2.765 0.37 0.698 5.215-2.765-0.37-0.698zM1.794 9.044l-1.304-2.212-0.681 0.401 1.304 2.212 0.681-0.401zM0.434 7.306l6.756-7.032-0.57-0.547-6.756 7.032 0.57 0.547zM6.822 0.386l5.491 1.185 0.167-0.772-5.491-1.185-0.167 0.772zM12.002 1.175l-0.79 29.788 0.79 0.021 0.79-29.788-0.79-0.021zM11.547 30.582l-4.938 0.751 0.119 0.781 4.938-0.751-0.119-0.781z"></path>
</svg>
