<!-- Generated by IcoMoon.io -->
<svg version="1.1" xmlns="http://www.w3.org/2000/svg" width="23" height="32" viewBox="0 0 23 32">
<title>2</title>
<path d="M1.151 32l-0.391 0.085 0.069 0.315h0.322v-0.4zM0.311 28.16l-0.27-0.295-0.17 0.156 0.049 0.225 0.391-0.085zM9.151 19.88v0zM14.471 13.84l-0.33-0.225-0.001 0.001 0.331 0.224zM14.991 5.44l-0.283 0.283 0.002 0.002 0.002 0.002 0.278-0.287zM7.191 5.32l-0.205-0.344-0.003 0.002 0.208 0.342zM4.271 8.52l-0.183 0.356 0.354 0.182 0.183-0.353-0.355-0.184zM1.311 7l-0.386-0.105-0.085 0.312 0.288 0.148 0.183-0.356zM3.191 3.52l0.302 0.263 0.003-0.004-0.305-0.259zM6.671 1l0.159 0.367 0.003-0.001-0.162-0.366zM19.471 2.36l-0.266 0.298 0.003 0.002 0.264-0.301zM20.991 13.24l0.359 0.176 0.001-0.003-0.36-0.174zM17.791 17.68v0zM12.631 22.36v0zM5.551 27.92l-0.244-0.317-1.038 0.799 1.307-0.083-0.025-0.399zM22.551 26.84h0.4v-0.426l-0.425 0.027 0.025 0.399zM22.551 32v0.4h0.4v-0.4h-0.4zM1.542 31.915l-0.84-3.84-0.782 0.171 0.84 3.84 0.782-0.171zM0.582 28.455c3.522-3.228 6.471-5.991 8.848-8.287l-0.556-0.575c-2.37 2.29-5.314 5.048-8.832 8.273l0.541 0.59zM9.429 20.168c2.383-2.303 4.178-4.338 5.373-6.103l-0.662-0.448c-1.152 1.701-2.903 3.693-5.267 5.977l0.556 0.575zM14.802 14.065c1.229-1.802 1.87-3.533 1.87-5.185h-0.8c0 1.441-0.559 3.017-1.73 4.735l0.661 0.451zM16.671 8.88c0-1.548-0.453-2.808-1.402-3.727l-0.557 0.575c0.758 0.734 1.158 1.767 1.158 3.153h0.8zM15.274 5.157c-0.928-0.928-2.288-1.357-4.003-1.357v0.8c1.592 0 2.712 0.398 3.437 1.123l0.566-0.566zM11.271 3.8c-1.538 0-2.969 0.393-4.285 1.176l0.409 0.687c1.191-0.71 2.48-1.064 3.875-1.064v-0.8zM6.983 4.978c-1.295 0.788-2.316 1.912-3.067 3.357l0.71 0.369c0.689-1.328 1.614-2.337 2.773-3.043l-0.416-0.683zM4.454 8.164l-2.96-1.52-0.365 0.712 2.96 1.52 0.365-0.712zM1.698 7.105c0.33-1.219 0.927-2.325 1.795-3.322l-0.603-0.526c-0.945 1.084-1.601 2.297-1.965 3.638l0.772 0.209zM3.496 3.779c0.863-1.016 1.972-1.821 3.334-2.412l-0.318-0.734c-1.464 0.635-2.675 1.51-3.626 2.628l0.61 0.518zM6.834 1.366c1.38-0.613 2.989-0.926 4.838-0.926v-0.8c-1.938 0-3.662 0.328-5.162 0.994l0.325 0.731zM11.671 0.44c3.416 0 5.902 0.763 7.534 2.218l0.533-0.597c-1.835-1.638-4.549-2.422-8.066-2.422v0.8zM19.208 2.661c1.636 1.434 2.464 3.372 2.464 5.859h0.8c0-2.686-0.905-4.855-2.736-6.461l-0.527 0.602zM21.671 8.52c0 1.593-0.346 3.107-1.040 4.546l0.721 0.347c0.746-1.547 1.12-3.18 1.12-4.894h-0.8zM20.632 13.064c-0.698 1.423-1.739 2.87-3.131 4.341l0.581 0.55c1.434-1.515 2.527-3.028 3.269-4.539l-0.718-0.353zM17.501 17.405c-1.371 1.45-3.077 2.998-5.12 4.643l0.502 0.623c2.063-1.661 3.798-3.234 5.2-4.717l-0.581-0.55zM12.381 22.048c-2.051 1.651-4.408 3.503-7.073 5.555l0.488 0.634c2.668-2.055 5.031-3.91 7.087-5.565l-0.502-0.623zM5.577 28.319l17-1.080-0.051-0.798-17 1.080 0.051 0.798zM22.151 26.84v5.16h0.8v-5.16h-0.8zM22.551 31.6h-21.4v0.8h21.4v-0.8z"></path>
</svg>
