<!-- Generated by IcoMoon.io -->
<svg version="1.1" xmlns="http://www.w3.org/2000/svg" width="23" height="32" viewBox="0 0 23 32">
<title>3</title>
<path d="M7.406 17.132l-0.381 0.083 0.067 0.307h0.314v-0.39zM6.665 13.737l-0.030-0.389-0.447 0.034 0.096 0.438 0.381-0.083zM7.992 13.659l0.019 0.39 0.009-0 0.009-0.001-0.037-0.389zM9.631 13.502l0.037 0.389 0.009-0.001 0.009-0.001-0.055-0.386zM10.957 13.268l-0.086-0.381-0.002 0 0.088 0.38zM14.899 11.59l0.233 0.313 0.003-0.002 0.002-0.002-0.238-0.309zM15.211 5.151l-0.28 0.271 0.002 0.002 0.002 0.002 0.276-0.276zM7.172 4.995v0zM4.362 7.766l-0.163 0.355 0.304 0.139 0.184-0.279-0.326-0.215zM1.553 6.478l-0.371-0.121-0.108 0.331 0.316 0.145 0.163-0.355zM3.387 3.356l0.291 0.26 0.003-0.004-0.295-0.256zM6.821 0.976l0.151 0.36 0.003-0.001-0.154-0.359zM17.436 1.093l-0.169 0.352 0.004 0.002 0.004 0.002 0.162-0.355zM20.792 3.902l-0.33 0.208 0.003 0.004 0.003 0.004 0.325-0.216zM20.557 12.137v0zM16.382 14.79l-0.091-0.38 0.043 0.767 0.047-0.387zM19.816 16.117l-0.228 0.317 0.004 0.003 0.224-0.32zM22.275 18.927l-0.346 0.181 0.002 0.003 0.002 0.003 0.343-0.187zM20.323 29.463l-0.253-0.297-0.002 0.002 0.255 0.295zM4.675 30.244l-0.21 0.329 0.003 0.002 0.003 0.002 0.204-0.333zM0.304 25.483l-0.288-0.264-0.189 0.207 0.135 0.245 0.342-0.188zM2.45 23.141l0.331-0.206-0.272-0.436-0.347 0.379 0.288 0.264zM6.392 26.732v0zM16.031 26.459l0.258 0.292 0.004-0.003-0.262-0.289zM16.031 18.576v0zM7.787 17.048l-0.741-3.395-0.763 0.167 0.741 3.395 0.763-0.167zM6.695 14.126c0.333-0.026 0.771-0.051 1.315-0.077l-0.037-0.78c-0.548 0.026-0.995 0.052-1.338 0.079l0.060 0.778zM8.029 14.047c0.069-0.007 0.136-0.013 0.205-0.020s0.136-0.013 0.205-0.020c0.069-0.007 0.136-0.013 0.205-0.020s0.136-0.013 0.205-0.020c0.165-0.016 0.245-0.023 0.41-0.039s0.245-0.023 0.41-0.039l-0.074-0.777c-0.069 0.007-0.136 0.013-0.205 0.020s-0.136 0.013-0.205 0.020c-0.069 0.007-0.136 0.013-0.205 0.020s-0.136 0.013-0.205 0.020c-0.165 0.016-0.245 0.023-0.41 0.039s-0.245 0.023-0.41 0.039l0.074 0.777zM9.686 13.889c0.552-0.079 1.006-0.159 1.359-0.24l-0.175-0.761c-0.323 0.075-0.753 0.151-1.294 0.228l0.11 0.773zM11.043 13.649c1.651-0.373 3.019-0.95 4.088-1.746l-0.466-0.626c-0.96 0.714-2.219 1.255-3.795 1.611l0.172 0.761zM15.137 11.9c1.115-0.857 1.674-2.027 1.674-3.47h-0.78c0 1.211-0.455 2.148-1.37 2.852l0.476 0.619zM16.811 8.429c0-1.459-0.43-2.659-1.324-3.554l-0.552 0.552c0.718 0.718 1.095 1.704 1.095 3.002h0.78zM15.492 4.88c-0.885-0.915-2.259-1.329-4.027-1.329v0.78c1.667 0 2.79 0.393 3.466 1.091l0.561-0.543zM11.465 3.551c-1.794 0-3.302 0.361-4.5 1.113l0.415 0.661c1.040-0.653 2.393-0.994 4.085-0.994v-0.78zM6.965 4.665c-1.168 0.733-2.144 1.697-2.928 2.886l0.652 0.429c0.725-1.1 1.622-1.983 2.691-2.655l-0.415-0.661zM4.525 7.411l-2.81-1.288-0.325 0.71 2.81 1.288 0.325-0.71zM1.924 6.599c0.346-1.063 0.928-2.057 1.754-2.983l-0.582-0.519c-0.891 0.999-1.532 2.086-1.914 3.261l0.742 0.242zM3.681 3.612c0.813-0.936 1.904-1.697 3.29-2.276l-0.301-0.72c-1.476 0.617-2.674 1.443-3.578 2.485l0.589 0.512zM6.975 1.334c1.396-0.598 3.109-0.905 5.154-0.905v-0.78c-2.118 0-3.943 0.318-5.461 0.968l0.307 0.717zM12.128 0.429c2.039 0 3.747 0.344 5.138 1.015l0.339-0.703c-1.523-0.734-3.353-1.092-5.477-1.092v0.78zM17.274 1.448c1.425 0.65 2.48 1.54 3.188 2.663l0.66-0.416c-0.801-1.27-1.983-2.254-3.524-2.957l-0.324 0.71zM20.467 4.119c0.735 1.103 1.105 2.354 1.105 3.764h0.78c0-1.556-0.411-2.959-1.236-4.197l-0.649 0.433zM21.572 7.883c0 1.422-0.44 2.762-1.333 4.029l0.638 0.45c0.979-1.387 1.476-2.883 1.476-4.479h-0.78zM20.239 11.912c-0.873 1.236-2.176 2.075-3.948 2.499l0.182 0.759c1.923-0.46 3.403-1.391 4.404-2.808l-0.638-0.45zM16.334 15.178c1.212 0.148 2.294 0.567 3.254 1.256l0.455-0.634c-1.069-0.768-2.276-1.233-3.614-1.397l-0.095 0.775zM19.592 16.437c0.989 0.692 1.767 1.581 2.336 2.671l0.692-0.362c-0.627-1.199-1.488-2.184-2.581-2.949l-0.448 0.639zM21.932 19.114c0.591 1.083 0.889 2.293 0.889 3.637h0.78c0-1.465-0.326-2.805-0.984-4.011l-0.685 0.374zM22.821 22.751c0 2.737-0.924 4.86-2.751 6.415l0.506 0.594c2.023-1.723 3.025-4.075 3.025-7.009h-0.78zM20.068 29.168c-1.799 1.552-4.577 2.364-8.408 2.364v0.78c3.921 0 6.919-0.827 8.918-2.553l-0.51-0.591zM11.66 31.532c-2.787 0-5.038-0.55-6.781-1.62l-0.409 0.665c1.9 1.167 4.305 1.736 7.19 1.736v-0.78zM4.884 29.915c-1.735-1.107-3.149-2.643-4.239-4.62l-0.683 0.377c1.147 2.081 2.648 3.719 4.503 4.902l0.42-0.658zM0.591 25.747l2.146-2.341-0.575-0.527-2.146 2.341 0.575 0.527zM2.119 23.348c1.026 1.647 2.394 2.895 4.1 3.734l0.345-0.7c-1.572-0.774-2.831-1.92-3.783-3.446l-0.662 0.413zM6.219 27.082c1.692 0.833 3.481 1.25 5.363 1.25v-0.78c-1.761 0-3.432-0.389-5.018-1.17l-0.345 0.7zM11.582 28.332c1.919 0 3.501-0.515 4.707-1.581l-0.517-0.585c-1.032 0.912-2.415 1.385-4.19 1.385v0.78zM16.293 26.748c1.205-1.093 1.806-2.501 1.806-4.191h-0.78c0 1.483-0.517 2.677-1.55 3.613l0.524 0.578zM18.099 22.556c0-1.786-0.596-3.228-1.814-4.276l-0.509 0.592c1.019 0.877 1.542 2.089 1.542 3.685h0.78zM16.285 18.28c-1.206-1.038-2.787-1.538-4.703-1.538v0.78c1.778 0 3.163 0.462 4.194 1.349l0.509-0.592zM11.582 16.741h-4.176v0.78h4.176v-0.78z"></path>
</svg>
