<!-- Generated by IcoMoon.io -->
<svg version="1.1" xmlns="http://www.w3.org/2000/svg" width="25" height="32" viewBox="0 0 25 32">
<title>4</title>
<path d="M19.153 26.063v-0.386h-0.374l-0.012 0.373 0.385 0.012zM18.999 30.998l0.061 0.381 0.315-0.050 0.010-0.318-0.385-0.012zM14.411 31.73h-0.386v0.452l0.446-0.071-0.061-0.381zM14.411 26.063h0.386v-0.386h-0.386v0.386zM1.225 26.063l-0.37 0.11 0.082 0.276h0.288v-0.386zM0.069 22.169l-0.308-0.232-0.117 0.155 0.055 0.187 0.37-0.11zM6.507 11.875v0zM11.866 0.347l0.107-0.37-0.331-0.095-0.132 0.318 0.356 0.148zM17.611 2.005l0.339 0.184 0.228-0.421-0.46-0.133-0.107 0.37zM11.057 13.186l-0.325-0.208-0 0.001 0.325 0.207zM4.58 22.053l-0.293-0.251-0.575 0.671 0.883-0.035-0.015-0.385zM14.411 21.667l0.015 0.385 0.37-0.015v-0.371h-0.386zM14.411 8.174l0.028-0.385-0.413-0.030v0.414h0.386zM19.77 8.559l0.385 0.014 0.013-0.372-0.371-0.027-0.028 0.385zM19.307 21.475l-0.385-0.014-0.015 0.415 0.415-0.015-0.014-0.385zM24.474 21.282h0.386v-0.4l-0.4 0.015 0.014 0.385zM24.474 26.063v0.386h0.386v-0.386h-0.386zM18.768 26.051l-0.154 4.935 0.771 0.024 0.154-4.935-0.771-0.024zM18.938 30.617l-4.588 0.733 0.122 0.761 4.588-0.733-0.122-0.761zM14.797 31.73v-5.667h-0.771v5.667h0.771zM14.411 25.677h-13.186v0.771h13.186v-0.771zM1.595 25.953l-1.157-3.894-0.739 0.22 1.157 3.894 0.739-0.22zM0.377 22.401c2.379-3.154 4.536-6.604 6.473-10.349l-0.685-0.354c-1.918 3.709-4.053 7.122-6.404 10.239l0.616 0.464zM6.85 12.052c1.933-3.737 3.724-7.589 5.373-11.557l-0.712-0.296c-1.641 3.949-3.423 7.781-5.345 11.499l0.685 0.354zM11.759 0.717l5.745 1.658 0.214-0.741-5.745-1.658-0.214 0.741zM17.272 1.821c-2.181 4.028-4.361 7.747-6.54 11.157l0.65 0.415c2.19-3.427 4.38-7.162 6.568-11.205l-0.678-0.367zM10.732 12.979c-2.151 3.381-4.3 6.321-6.445 8.824l0.585 0.502c2.173-2.535 4.343-5.506 6.51-8.911l-0.651-0.414zM4.595 22.438l9.831-0.386-0.030-0.77-9.831 0.386 0.030 0.77zM14.797 21.667v-13.494h-0.771v13.494h0.771zM14.383 8.558l5.359 0.386 0.055-0.769-5.359-0.386-0.055 0.769zM19.385 8.545l-0.463 12.916 0.771 0.028 0.463-12.916-0.771-0.028zM19.322 21.86l5.166-0.193-0.029-0.771-5.166 0.193 0.029 0.771zM24.088 21.282v4.781h0.771v-4.781h-0.771zM24.474 25.677h-5.32v0.771h5.32v-0.771z"></path>
</svg>
