<!-- Generated by IcoMoon.io -->
<svg version="1.1" xmlns="http://www.w3.org/2000/svg" width="24" height="32" viewBox="0 0 24 32">
<title>5</title>
<path d="M7.191 5v-0.4h-0.34l-0.055 0.336 0.395 0.064zM5.911 12.88l-0.395-0.064-0.055 0.336 0.323 0.108 0.126-0.379zM6.031 12.92l-0.126 0.379 0.228 0.076 0.174-0.166-0.276-0.29zM8.671 11.44l-0.139-0.375-0.003 0.001 0.141 0.374zM18.391 11.84l-0.155 0.369 0.003 0.001 0.003 0.001 0.149-0.371zM22.551 15.12l-0.328 0.229 0.002 0.003 0.326-0.231zM17.831 30.68l0.16 0.367 0.004-0.002-0.164-0.365zM4.431 29.92v0zM0.271 24.76l-0.22-0.334-0.271 0.178 0.119 0.302 0.372-0.146zM3.071 22.92l0.351-0.191-0.208-0.382-0.363 0.239 0.22 0.334zM6.591 26.48l-0.196 0.349 0.005 0.003 0.191-0.351zM15.151 26.96v0zM17.631 24.68l0.342 0.207 0.002-0.004-0.345-0.203zM8.271 15.48l0.194 0.35 0.003-0.001-0.197-0.348zM5.711 18.12l-0.093 0.389 0.318 0.076 0.138-0.297-0.363-0.168zM1.031 17l-0.399-0.033-0.028 0.342 0.334 0.080 0.093-0.389zM2.431 0v-0.4h-0.368l-0.030 0.367 0.399 0.033zM8.031 0l0.393 0.074 0.089-0.474h-0.482v0.4zM7.791 1.28l-0.393-0.074-0.098 0.521 0.528-0.049-0.037-0.398zM21.591 0h0.4v-0.439l-0.437 0.041 0.037 0.398zM21.591 5v0.4h0.4v-0.4h-0.4zM6.797 4.936l-1.28 7.88 0.79 0.128 1.28-7.88-0.79-0.128zM5.785 13.259l0.12 0.040 0.253-0.759-0.12-0.040-0.253 0.759zM6.307 13.21c0.504-0.48 1.327-0.95 2.505-1.395l-0.283-0.748c-1.221 0.461-2.158 0.978-2.774 1.565l0.552 0.579zM8.81 11.815c1.175-0.434 2.514-0.655 4.021-0.655v-0.8c-1.586 0-3.020 0.232-4.299 0.705l0.277 0.75zM12.831 11.16c1.951 0 3.751 0.351 5.405 1.049l0.311-0.737c-1.76-0.742-3.666-1.111-5.715-1.111v0.8zM18.243 12.211c1.663 0.665 2.986 1.71 3.98 3.137l0.656-0.457c-1.086-1.559-2.536-2.701-4.34-3.423l-0.297 0.743zM22.225 15.351c0.979 1.381 1.486 3.2 1.486 5.489h0.8c0-2.404-0.533-4.399-1.634-5.951l-0.653 0.463zM23.711 20.84c0 2.335-0.557 4.278-1.649 5.852l0.657 0.456c1.201-1.732 1.791-3.843 1.791-6.308h-0.8zM22.063 26.692c-1.104 1.592-2.566 2.799-4.396 3.623l0.329 0.729c1.957-0.882 3.535-2.182 4.724-3.897l-0.657-0.456zM17.671 30.313c-1.839 0.803-3.85 1.207-6.040 1.207v0.8c2.29 0 4.412-0.423 6.36-1.273l-0.32-0.733zM11.631 31.52c-2.79 0-5.107-0.651-6.974-1.93l-0.452 0.66c2.026 1.388 4.509 2.070 7.426 2.070v-0.8zM4.657 29.59c-1.884-1.29-3.218-2.947-4.014-4.976l-0.745 0.292c0.857 2.185 2.297 3.967 4.306 5.344l0.452-0.66zM0.491 25.094l2.8-1.84-0.439-0.669-2.8 1.84 0.439 0.669zM2.72 23.111c0.863 1.587 2.090 2.828 3.676 3.718l0.392-0.698c-1.455-0.817-2.574-1.949-3.364-3.402l-0.703 0.382zM6.4 26.831c1.583 0.861 3.343 1.289 5.271 1.289v-0.8c-1.805 0-3.432-0.399-4.889-1.191l-0.382 0.703zM11.671 28.12c1.334 0 2.555-0.264 3.655-0.8l-0.35-0.719c-0.98 0.477-2.079 0.72-3.305 0.72v0.8zM15.327 27.32c1.111-0.541 1.995-1.355 2.647-2.432l-0.684-0.414c-0.574 0.949-1.344 1.655-2.313 2.128l0.35 0.719zM17.976 24.883c0.658-1.116 0.975-2.47 0.975-4.043h-0.8c0 1.467-0.296 2.672-0.865 3.637l0.689 0.406zM18.951 20.84c0-2.262-0.651-4.008-2.025-5.148l-0.511 0.616c1.133 0.94 1.735 2.421 1.735 4.532h0.8zM16.927 15.692c-1.333-1.106-2.96-1.652-4.855-1.652v0.8c1.731 0 3.171 0.494 4.345 1.468l0.511-0.616zM12.071 14.040c-1.381 0-2.715 0.367-3.997 1.092l0.394 0.696c1.171-0.662 2.371-0.988 3.603-0.988v-0.8zM8.077 15.13c-1.263 0.702-2.182 1.641-2.729 2.821l0.726 0.336c0.466-1.006 1.255-1.827 2.391-2.459l-0.389-0.699zM5.805 17.731l-4.68-1.12-0.186 0.778 4.68 1.12 0.186-0.778zM1.43 17.033l1.4-17-0.797-0.066-1.4 17 0.797 0.066zM2.431 0.4h5.6v-0.8h-5.6v0.8zM7.638-0.074l-0.24 1.28 0.786 0.147 0.24-1.28-0.786-0.147zM7.828 1.678l13.8-1.28-0.074-0.797-13.8 1.28 0.074 0.797zM21.191 0v5h0.8v-5h-0.8zM21.591 4.6h-14.4v0.8h14.4v-0.8z"></path>
</svg>
