<!-- Generated by IcoMoon.io -->
<svg version="1.1" xmlns="http://www.w3.org/2000/svg" width="24" height="32" viewBox="0 0 24 32">
<title>6</title>
<path d="M20.284 6.556l-0.294 0.257 0.277 0.317 0.295-0.3-0.278-0.273zM17.396 4.644l-0.142 0.363 0.003 0.001 0.003 0.001 0.135-0.366zM9.475 5.19v0zM6.548 8.937l-0.358-0.156-0.002 0.005 0.36 0.152zM5.494 15.22h-0.39l0.748 0.156-0.358-0.156zM8.265 12.293l-0.19-0.341-0.003 0.002 0.193 0.339zM18.45 12.254l-0.158 0.357 0.002 0.001 0.156-0.358zM22.314 15.571l-0.333 0.204 0.002 0.003 0.331-0.207zM22.197 27.005l-0.333-0.204-0.001 0.002 0.334 0.202zM18.177 30.673l0.17 0.351 0.004-0.002-0.175-0.349zM5.962 30.322l-0.199 0.335 0.002 0.001 0.197-0.337zM1.709 25.327l-0.357 0.158 0.002 0.005 0.355-0.163zM1.904 7.376v0zM18.723 1.132l-0.161 0.356 0.003 0.002 0.003 0.001 0.154-0.359zM22.47 4.332l0.278 0.273 0.212-0.215-0.155-0.259-0.335 0.201zM5.923 20.449l-0.385-0.063-0.005 0.031v0.032h0.39zM6.743 24.429l-0.354 0.165 0.002 0.005 0.002 0.005 0.349-0.175zM9.006 27.161v0zM16.655 26.419v0zM16.694 16.78l-0.279 0.273 0.003 0.003 0.276-0.276zM8.070 16.585l0.252 0.298 0.004-0.003-0.256-0.295zM20.578 6.299c-0.778-0.889-1.798-1.56-3.046-2.021l-0.271 0.732c1.145 0.423 2.050 1.027 2.729 1.803l0.587-0.514zM17.539 4.28c-1.245-0.487-2.582-0.729-4.006-0.729v0.781c1.334 0 2.573 0.226 3.721 0.676l0.284-0.727zM13.533 3.551c-1.561 0-2.99 0.44-4.278 1.316l0.439 0.645c1.158-0.788 2.434-1.181 3.839-1.181v-0.78zM9.255 4.868c-1.296 0.882-2.314 2.196-3.065 3.912l0.715 0.313c0.706-1.613 1.639-2.797 2.789-3.58l-0.439-0.645zM6.188 8.785c-0.729 1.728-1.084 3.878-1.084 6.435h0.78c0-2.491 0.347-4.529 1.023-6.131l-0.719-0.303zM5.852 15.375c0.481-1.107 1.339-2.023 2.606-2.743l-0.386-0.678c-1.387 0.789-2.376 1.824-2.936 3.11l0.716 0.311zM8.455 12.634c1.292-0.721 2.709-1.082 4.259-1.082v-0.78c-1.677 0-3.225 0.393-4.639 1.181l0.38 0.682zM12.714 11.551c2.142 0 3.999 0.357 5.578 1.059l0.317-0.713c-1.699-0.755-3.667-1.126-5.895-1.126v0.78zM18.294 12.611c1.595 0.698 2.82 1.752 3.687 3.164l0.665-0.408c-0.954-1.554-2.305-2.711-4.040-3.47l-0.313 0.715zM21.983 15.778c0.861 1.378 1.307 3.161 1.307 5.374h0.78c0-2.314-0.465-4.252-1.425-5.787l-0.662 0.414zM23.289 21.151c0 2.233-0.482 4.11-1.425 5.65l0.665 0.408c1.033-1.686 1.54-3.711 1.54-6.058h-0.78zM21.863 26.802c-0.923 1.522-2.207 2.695-3.86 3.522l0.349 0.698c1.781-0.89 3.177-2.163 4.179-3.815l-0.667-0.405zM18.007 30.322c-1.655 0.802-3.585 1.21-5.8 1.21v0.78c2.312 0 4.362-0.425 6.141-1.288l-0.341-0.702zM12.206 31.532c-2.28 0-4.292-0.519-6.047-1.546l-0.394 0.673c1.887 1.105 4.038 1.653 6.441 1.653v-0.78zM6.162 29.986c-1.715-1.019-3.084-2.617-4.098-4.823l-0.709 0.326c1.067 2.321 2.533 4.053 4.409 5.168l0.399-0.671zM2.065 25.169c-0.985-2.223-1.488-5.104-1.488-8.661h-0.78c0 3.623 0.511 6.622 1.555 8.978l0.714-0.316zM0.577 16.507c0-3.604 0.567-6.587 1.68-8.966l-0.707-0.331c-1.176 2.512-1.754 5.617-1.754 9.297h0.78zM2.257 7.541c1.118-2.389 2.62-4.161 4.498-5.337l-0.414-0.661c-2.025 1.269-3.619 3.166-4.79 5.668l0.707 0.331zM6.755 2.204c1.886-1.182 3.999-1.775 6.349-1.775v-0.78c-2.489 0-4.747 0.63-6.763 1.894l0.414 0.661zM13.104 0.429c2.089 0 3.906 0.357 5.459 1.058l0.321-0.711c-1.673-0.755-3.603-1.127-5.78-1.127v0.78zM18.57 1.49c1.569 0.672 2.752 1.687 3.565 3.042l0.669-0.402c-0.904-1.506-2.218-2.626-3.927-3.358l-0.307 0.717zM22.191 4.058l-2.185 2.224 0.557 0.547 2.185-2.224-0.557-0.547zM5.533 20.449c0 1.532 0.282 2.916 0.856 4.146l0.707-0.33c-0.519-1.112-0.783-2.381-0.783-3.815h-0.78zM6.394 24.604c0.597 1.195 1.391 2.156 2.384 2.874l0.457-0.633c-0.88-0.636-1.596-1.495-2.143-2.59l-0.698 0.349zM8.778 27.477c1.001 0.723 2.108 1.088 3.311 1.088v-0.78c-1.034 0-1.982-0.311-2.854-0.941l-0.457 0.633zM12.089 28.566c1.986 0 3.615-0.616 4.845-1.874l-0.558-0.546c-1.059 1.084-2.474 1.639-4.287 1.639v0.78zM16.934 26.692c1.235-1.263 1.828-3.011 1.828-5.19h-0.78c0 2.036-0.551 3.566-1.606 4.644l0.558 0.546zM18.762 21.502c0-2.102-0.581-3.787-1.792-4.998l-0.552 0.552c1.026 1.026 1.564 2.49 1.564 4.446h0.78zM16.973 16.508c-1.207-1.235-2.838-1.835-4.845-1.835v0.78c1.843 0 3.256 0.545 4.287 1.6l0.558-0.545zM12.128 14.673c-1.63 0-3.073 0.542-4.314 1.617l0.511 0.59c1.101-0.954 2.363-1.427 3.803-1.427v-0.78zM7.818 16.287c-1.245 1.052-2.005 2.425-2.28 4.098l0.77 0.126c0.246-1.5 0.917-2.703 2.013-3.628l-0.504-0.596z"></path>
</svg>
