<!-- Generated by IcoMoon.io -->
<svg version="1.1" xmlns="http://www.w3.org/2000/svg" width="18" height="32" viewBox="0 0 18 32">
<title>Rectangle-83</title>
<path d="M5.794 3.363l1.15-1.61 0.977-0.747 1.207-0.604 1.265-0.259 1.207-0.144h1.696l1.84 0.144h0.575v4.599h-3.018l-0.891 0.172-0.661 0.316-0.402 0.546-0.201 0.776-0.086 1.696v2.185h5.117l-0.604 5.174-4.427 0.086v13.022h-5.433v-6.41l0.115-6.698h-4.398v-5.059h4.341v-3.737l0.201-2.156 0.431-1.294z"></path>
<path fill="none" stroke="#df86e1" stroke-linejoin="miter" stroke-linecap="butt" stroke-miterlimit="4" stroke-width="0.4103" d="M15.136 0.349h0.37v4.189h-2.833l-0.936 0.181-0.731 0.35-0.456 0.619-0.010 0.038-0.206 0.796-0.001 0.021-0.086 1.696-0 0.005v2.395h5.092l-0.556 4.768-4.449 0.087v13.018h-5.023v-6.204l0.115-6.696 0.004-0.209h-4.402v-4.649h4.341v-3.933l0.198-2.123 0.414-1.242 1.114-1.56 0.937-0.717 1.166-0.583 1.23-0.252 1.187-0.141h1.676l1.848 0.144z"></path>
</svg>
