<svg aria-hidden="true" style="position: absolute; width: 0; height: 0; overflow: hidden;" version="1.1" xmlns="http://www.w3.org/2000/svg" xmlns:xlink="http://www.w3.org/1999/xlink">
<defs>
<symbol id="icon-tariffs" viewBox="0 0 33 32">
<path fill="none" stroke="#061e7d" style="stroke: var(--color1, #061e7d)" stroke-linejoin="miter" stroke-linecap="butt" stroke-miterlimit="4" stroke-width="1.4222" d="M29.156 14.933c0 7.855-6.367 14.222-14.222 14.222s-14.222-6.367-14.222-14.222c0-7.855 6.367-14.222 14.222-14.222s14.222 6.367 14.222 14.222z"></path>
<path fill="none" stroke="#061e7d" style="stroke: var(--color1, #061e7d)" stroke-linejoin="miter" stroke-linecap="butt" stroke-miterlimit="4" stroke-width="1.4222" d="M23.436 14.933c0 3.921-1.020 7.437-2.633 9.951-1.617 2.522-3.766 3.954-6.029 3.954s-4.412-1.432-6.029-3.954c-1.612-2.514-2.633-6.030-2.633-9.951s1.020-7.437 2.633-9.951c1.617-2.522 3.766-3.954 6.029-3.954s4.412 1.432 6.029 3.954c1.612 2.514 2.633 6.030 2.633 9.951z"></path>
<path fill="#061e7d" style="fill: var(--color1, #061e7d)" d="M2.86 6.99h24.148v1.271h-24.148v-1.271z"></path>
<path fill="#061e7d" style="fill: var(--color1, #061e7d)" d="M0.953 14.298h27.96v1.271h-27.96v-1.271z"></path>
<path fill="#061e7d" style="fill: var(--color1, #061e7d)" d="M2.542 21.923h24.465v1.271h-24.465v-1.271z"></path>
<path fill="#061e7d" style="fill: var(--color1, #061e7d)" d="M15.293 1.513l0.139 26.767-1.271 0.007-0.139-26.767 1.271-0.007z"></path>
<path fill="none" stroke="#061e7d" style="stroke: var(--color1, #061e7d)" stroke-linejoin="miter" stroke-linecap="butt" stroke-miterlimit="4" stroke-width="1.0667" d="M25.981 25.87l2.219-0.95 1.839 4.293-2.219 0.95-1.839-4.293z"></path>
<path fill="#e2e5e8" style="fill: var(--color2, #e2e5e8); stroke: var(--color1, #061e7d)" stroke="#061e7d" stroke-linejoin="miter" stroke-linecap="butt" stroke-miterlimit="4" stroke-width="1.4222" d="M22.784 26.471l0.801-9.402 7.057 6.32-0.278 0.022-1.121 0.295-0.57 0.611-3.682 1.815-1.081-0.075-1.126 0.415z"></path>
</symbol>
</defs>
</svg>
