<svg aria-hidden="true" style="position: absolute; width: 0; height: 0; overflow: hidden;" version="1.1" xmlns="http://www.w3.org/2000/svg" xmlns:xlink="http://www.w3.org/1999/xlink">
<defs>
<symbol id="icon-untitled" viewBox="0 0 32 32">
<path fill="#000" style="fill: var(--color1, #000)" d="M6.498 23.438l0.373-1.077 0.352-1.063 0.58-1.559 2.793 2.539-0.725 0.218-1.161 0.326-1.197 0.363-0.435 0.145-0.58 0.109z"></path>
<path fill="#000" style="fill: var(--color1, #000)" d="M17.342 23.601l1.499-0.277 1.078-0.321 0.736-0.223 0.664-0.336 1.070-0.634 0.849-0.634 0.664-0.56 1.255-1.493 0.517-0.821 0.332-0.7 0.258-0.569 0.357-1.004 0.286-1.088 0.134-0.893 0.044-0.574 0-0.919-0.119-1.119-0.14-0.83-0.4-1.288-0.554-1.215-0.344-0.659-0.406-0.634-0.671-0.84-0.805-0.838-0.931-0.735-0.619-0.458-0.627-0.373-0.812-0.373-0.79-0.313-0.761-0.247-0.849-0.221-0.96-0.115-1.033-0.074-0.997 0.075-1.070 0.115-1.691 0.408-1.447 0.635-1.218 0.746-0.775 0.597-0.664 0.597-0.664 0.746-0.628 0.784-0.628 1.045-0.369 0.784-0.295 0.746-0.258 0.821-0.185 0.933-0.111 0.933-0 1.306 0.111 1.231 0.295 1.194 0.516 1.38 0.369 0.709 0.406 0.634 0.298 0.448 0.071 0.112-0.258 0.709-0.336 0.953-0.646 1.987-0.079 0.149 0.885-0.211 1.617-0.501 1.659-0.474 0.527 0.322-0.874 1.87-5.081 1.461-1.271 0.431-0.808 0.213 1.888-5.282 0.4-1.049 0.161-0.45-0.445-0.912-0.738-1.708-0.465-1.967-0.133-1.208 0.022-1.356 0.093-1.016 0.25-1.239 0.523-1.536 0.557-1.234 0.669-1.082 0.667-0.931 1.208-1.261 0.778-0.703 1.163-0.848 1.316-0.807 1.927-0.684 1.887-0.572 2.108-0.040 1.531 0.101 1.87 0.408 1.371 0.513 1.216 0.585 0.986 0.619 1.4 1.041 0.753 0.804 0.79 0.88 0.637 0.84 0.706 1.293 0.482 0.988 0.441 1.138 0.212 1.096 0.139 0.869 0.102 0.755-0.015 0.904-0.013 0.791-0.011 0.678-0.127 0.752-0.166 0.789-0.243 0.787-0.281 0.749-0.475 0.934-0.553 1.008-0.589 0.857-0.781 0.892-1.053 1.151-1.087 0.886-1.161 0.734-1.352 0.656-1.271 0.431-1.538 0.351-0.768 0.1-0.652 0.027-0.46 0.030-1.111-0.018-0.803-0.089-0.764-0.126-0.497-0.084-0.458-0.121-0.878-0.203-1.103-0.471-1.102-0.546 0.874-1.87 1.207 0.61 1.587 0.522 0.812 0.186 0.852 0.112 1.067 0.036 1.116-0z"></path>
<path fill="#000" style="fill: var(--color1, #000)" d="M17.519 24.102l1.473-0.269 1.059-0.312 0.723-0.216 0.653-0.326 1.052-0.616 0.834-0.617 0.653-0.544 1.233-1.451 0.508-0.798 0.326-0.68 0.254-0.553 0.351-0.976 0.281-1.058 0.131-0.868 0.043-0.557v-0.893l-0.117-1.088-0.138-0.807-0.393-1.252-0.545-1.181-0.338-0.641-0.399-0.617-0.659-0.817-0.792-0.815-0.915-0.715-0.609-0.446-0.617-0.363-0.798-0.363-0.776-0.304-0.747-0.24-0.834-0.215-0.943-0.112-1.015-0.073-0.979 0.073-1.052 0.112-1.661 0.396-1.421 0.617-1.197 0.725-0.762 0.58-0.653 0.58-0.653 0.725-0.617 0.762-0.617 1.015-0.363 0.762-0.29 0.725-0.254 0.798-0.181 0.907-0.109 0.907v1.269l0.109 1.197 0.29 1.161 0.508 1.342 0.363 0.689 0.399 0.617 0.293 0.435 0.070 0.109-0.254 0.689-0.33 0.926-0.634 1.931-0.078 0.145 0.869-0.205 1.589-0.486 1.63-0.461 0.518 0.313-0.858 1.817-4.992 1.419-1.249 0.419-0.794 0.207 1.854-5.134 0.393-1.019 0.158-0.437-0.437-0.886-0.725-1.66-0.458-1.912-0.131-1.174 0.022-1.318 0.092-0.987 0.246-1.205 0.514-1.493 0.547-1.2 0.657-1.051 0.655-0.905 1.187-1.226 0.764-0.683 1.143-0.824 1.293-0.784 1.893-0.665 1.854-0.555 2.071-0.039 1.504 0.098 1.838 0.397 1.347 0.498 1.195 0.569 0.969 0.602 1.376 1.012 0.74 0.781 0.776 0.855 0.626 0.816 0.694 1.257 0.474 0.96 0.433 1.106 0.208 1.066 0.137 0.845 0.101 0.734-0.015 0.879-0.013 0.769-0.011 0.659-0.125 0.73-0.163 0.766-0.238 0.765-0.276 0.728-0.467 0.908-0.543 0.98-0.578 0.833-0.767 0.866-1.035 1.118-1.068 0.861-1.141 0.714-1.328 0.637-1.249 0.419-1.511 0.341-0.754 0.097-0.64 0.026-0.452 0.029-1.091-0.018-0.789-0.086-0.751-0.122-0.488-0.081-0.45-0.117-0.863-0.197-1.084-0.457-1.083-0.531 0.858-1.817 1.186 0.593 1.559 0.508 0.798 0.181 0.838 0.109 1.048 0.036h1.097z"></path>
<path fill="#c284e6" style="fill: var(--color2, #c284e6)" d="M10.821 22.594l-0.858 1.817 0.344 0.163 0.858-1.817-0.344-0.163zM17.519 24.102v0.381h0.034l0.034-0.006-0.068-0.375zM20.051 23.521l0.108 0.365 0.001-0-0.109-0.365zM20.092 25.61l0.084 0.372 0.019-0.004 0.018-0.006-0.121-0.361zM12.302 25.48l-0.148 0.351 0.031 0.013 0.032 0.007 0.085-0.371zM18.992 23.833l0.068 0.375 0.020-0.004 0.019-0.006-0.108-0.365zM18.58 25.951l0.049 0.378 0.018-0.002 0.017-0.004-0.084-0.372zM17.185 26.074l-0.015-0.381-0.005 0-0.005 0 0.024 0.38zM21.341 25.191l0.121 0.361 0.022-0.008 0.021-0.010-0.165-0.343zM22.669 24.553l0.165 0.343 0.019-0.009 0.018-0.011-0.202-0.323zM23.81 23.84l0.202 0.323 0.019-0.012 0.018-0.014-0.239-0.297zM24.878 22.978l0.239 0.297 0.022-0.017 0.019-0.020-0.28-0.259zM25.913 21.86l0.28 0.259 0.003-0.003 0.003-0.003-0.285-0.253zM21.427 22.978l0.17 0.341 0.011-0.006 0.011-0.006-0.193-0.329zM22.479 22.362l0.193 0.329 0.017-0.010 0.016-0.012-0.226-0.306zM23.313 21.745l0.226 0.306 0.009-0.007 0.009-0.007-0.244-0.293zM23.966 21.201l0.244 0.293 0.025-0.021 0.021-0.025-0.29-0.247zM24.582 20.476v0zM26.68 20.994l0.285 0.253 0.015-0.017 0.013-0.018-0.313-0.217zM25.199 19.751l0.29 0.247 0.017-0.020 0.014-0.022-0.321-0.205zM27.259 20.161l0.313 0.217 0.011-0.016 0.009-0.017-0.333-0.185zM25.707 18.953l0.321 0.205 0.012-0.019 0.010-0.020-0.343-0.165zM27.802 19.181l0.333 0.185 0.003-0.005 0.003-0.005-0.339-0.174zM28.269 18.273l0.339 0.174 0.010-0.019 0.008-0.020-0.356-0.135zM26.033 18.273l0.343 0.165 0.001-0.003 0.001-0.003-0.346-0.159zM26.287 17.72l0.346 0.159 0.007-0.015 0.006-0.015-0.358-0.129zM28.544 17.545l0.356 0.135 0.004-0.011 0.003-0.011-0.364-0.113zM26.638 16.744l0.358 0.129 0.006-0.015 0.004-0.016-0.368-0.098zM28.783 16.78l0.364 0.113 0.005-0.017 0.004-0.017-0.373-0.079zM28.946 16.013l0.373 0.079 0.002-0.008 0.001-0.008-0.375-0.064zM26.919 15.686l0.368 0.098 0.005-0.020 0.003-0.021-0.377-0.057zM29.071 15.283l0.375 0.064 0.005-0.029 0-0.029-0.381-0.006zM27.050 14.818l0.377 0.057 0.002-0.014 0.001-0.014-0.38-0.029zM27.093 14.261l0.38 0.029 0.001-0.015v-0.015h-0.381zM27.093 13.368h0.381v-0.020l-0.002-0.020-0.379 0.041zM29.11 12.976l0.381 0.006 0-0.029-0.004-0.029-0.377 0.052zM29.009 12.241l0.377-0.052-0.001-0.005-0.001-0.005-0.376 0.061zM26.976 12.28l0.379-0.041-0.001-0.012-0.002-0.012-0.375 0.064zM28.872 11.397l0.376-0.061-0.001-0.006-0.001-0.006-0.374 0.073zM26.838 11.473l0.375-0.064-0.004-0.025-0.008-0.025-0.363 0.114zM28.664 10.331l0.374-0.073-0.007-0.034-0.013-0.032-0.355 0.139zM28.231 9.225l0.355-0.139-0.006-0.015-0.007-0.014-0.342 0.168zM26.445 10.221l0.363-0.114-0.007-0.023-0.010-0.022-0.346 0.16zM27.757 8.265l0.342-0.168-0.004-0.008-0.004-0.008-0.333 0.184zM25.9 9.040l0.346-0.16-0.004-0.009-0.005-0.009-0.337 0.178zM27.063 7.008l0.333-0.184-0.014-0.025-0.017-0.023-0.302 0.232zM25.163 7.782l0.32-0.207-0.011-0.017-0.013-0.016-0.296 0.239zM26.436 6.192l0.302-0.232-0.010-0.012-0.011-0.012-0.282 0.256zM24.504 6.966l0.297-0.239-0.011-0.014-0.012-0.013-0.273 0.265zM25.66 5.336l0.282-0.256-0.003-0.003-0.003-0.003-0.277 0.262zM23.712 6.15l0.273-0.265-0.018-0.019-0.020-0.016-0.235 0.3zM24.92 4.555l0.277-0.262-0.023-0.025-0.027-0.020-0.226 0.307zM22.797 5.436l0.235-0.3-0.005-0.004-0.005-0.004-0.225 0.307zM23.544 3.543l0.226-0.307-0.012-0.009-0.013-0.008-0.201 0.324zM22.575 2.941l0.201-0.324-0.018-0.011-0.019-0.009-0.164 0.344zM21.572 4.627l0.193-0.328-0.017-0.010-0.018-0.008-0.158 0.347zM21.38 2.372l0.164-0.344-0.015-0.007-0.016-0.006-0.132 0.357zM19.999 3.961l0.139-0.355-0.011-0.004-0.011-0.004-0.116 0.363zM20.033 1.873l0.132-0.357-0.025-0.009-0.026-0.006-0.080 0.372zM18.417 3.506l0.095-0.369-0.025-0.006-0.025-0.003-0.045 0.378zM18.195 1.477l0.080-0.372-0.027-0.006-0.028-0.002-0.025 0.38zM16.691 1.379l0.025-0.38-0.016-0.001-0.016 0 0.007 0.381zM16.459 3.322l0.027-0.38-0.028-0.002-0.028 0.002 0.028 0.38zM14.428 3.506l-0.040-0.379-0.024 0.003-0.024 0.006 0.088 0.371zM14.62 1.417l-0.007-0.381-0.052 0.001-0.050 0.015 0.109 0.365zM12.766 1.973l-0.109-0.365-0.008 0.003-0.008 0.003 0.126 0.359zM12.766 3.902l-0.088-0.371-0.033 0.008-0.031 0.013 0.152 0.349zM10.873 2.637l-0.126-0.359-0.037 0.013-0.034 0.021 0.198 0.326zM11.345 4.518l-0.152-0.349-0.024 0.010-0.022 0.013 0.197 0.326zM10.148 5.244l-0.197-0.326-0.017 0.011-0.016 0.012 0.231 0.303zM8.437 4.245l-0.223-0.309-0.016 0.012-0.015 0.013 0.254 0.284zM7.673 4.929l-0.254-0.284-0.010 0.009-0.010 0.010 0.274 0.265zM8.734 6.404l-0.253-0.285-0.016 0.014-0.014 0.016 0.283 0.255zM6.486 6.154l-0.274-0.265-0.019 0.020-0.016 0.022 0.309 0.223zM9.58 3.422l-0.198-0.326-0.013 0.008-0.012 0.009 0.223 0.309zM7.464 7.891l-0.296-0.24-0.016 0.020-0.013 0.022 0.326 0.198zM5.174 8.11l-0.323-0.202-0.013 0.021-0.010 0.023 0.347 0.158zM5.831 7.059l-0.309-0.223-0.008 0.010-0.007 0.011 0.323 0.202zM4.627 9.31l-0.347-0.158-0.008 0.017-0.006 0.017 0.36 0.124zM6.485 9.668l-0.344-0.164-0.005 0.011-0.005 0.011 0.354 0.142zM5.941 11.192l-0.363-0.116-0.006 0.020-0.004 0.021 0.374 0.075zM4.113 10.803l-0.36-0.124-0.008 0.023-0.005 0.024 0.373 0.076zM3.867 12.008l-0.373-0.076-0.004 0.020-0.002 0.021 0.379 0.035zM5.651 13.005l-0.378-0.045-0.003 0.023v0.023h0.381zM3.775 12.995l-0.379-0.035-0.001 0.014-0 0.014 0.381 0.006zM3.753 14.314l-0.381-0.006-0 0.024 0.003 0.024 0.379-0.042zM5.651 14.274h-0.381v0.017l0.002 0.017 0.379-0.034zM3.884 15.488l-0.379 0.042 0.003 0.023 0.006 0.023 0.37-0.089zM5.76 15.471l-0.379 0.034 0.003 0.029 0.007 0.029 0.37-0.092zM6.050 16.632l-0.37 0.092 0.005 0.022 0.008 0.021 0.356-0.135zM4.342 17.4l-0.37 0.089 0.008 0.033 0.014 0.031 0.349-0.153zM6.558 17.974l-0.356 0.135 0.008 0.022 0.011 0.021 0.337-0.177zM5.068 19.061l-0.349 0.152 0.003 0.008 0.004 0.008 0.342-0.168zM7.319 19.279l-0.32 0.207 0.002 0.003 0.002 0.003 0.316-0.213zM5.505 19.947l0.358 0.129 0.055-0.152-0.072-0.145-0.342 0.168zM5.347 20.384l0.355 0.137 0.002-0.004 0.001-0.004-0.358-0.129zM4.953 21.403l-0.355-0.137-0.002 0.004-0.001 0.004 0.358 0.129zM7.612 19.714l0.32-0.206-0.002-0.003-0.002-0.003-0.316 0.213zM7.098 21.438l-0.359-0.128-0.002 0.004-0.001 0.004 0.362 0.119zM7.428 20.512l-0.357-0.132-0.001 0.004 0.359 0.128zM7.682 19.823l0.357 0.132 0.066-0.178-0.103-0.16-0.32 0.206zM6.464 23.369l0.336 0.18 0.016-0.029 0.010-0.032-0.362-0.119zM4.085 23.806v0zM3.099 26.537l-0.358-0.129-0.246 0.68 0.7-0.182-0.096-0.369zM3.893 26.33l0.096 0.369 0.013-0.003 0.012-0.004-0.121-0.361zM5.142 25.911l-0.104-0.366-0.009 0.002-0.008 0.003 0.121 0.361zM6.387 23.514l-0.336-0.18-0.398 0.745 0.822-0.194-0.088-0.371zM7.256 23.309l0.088 0.371 0.012-0.003 0.012-0.004-0.112-0.364zM8.845 22.823l-0.104-0.367-0.004 0.001-0.004 0.001 0.111 0.364zM10.475 22.362l0.197-0.326-0.142-0.086-0.159 0.045 0.104 0.367zM10.993 22.675l-0.197 0.326 0.013 0.008 0.014 0.007 0.17-0.341zM10.135 24.492l0.168-0.342-0.131-0.064-0.141 0.040 0.104 0.366zM15.642 26.085l-0.041 0.379 0.018 0.002 0.018 0 0.006-0.381zM14.102 25.877l-0.063 0.376 0.001 0 0.061-0.376zM15.374 24.066l-0.049 0.378 0.018 0.002 0.018 0.001 0.013-0.381zM13.739 23.776l-0.118 0.362 0.017 0.005 0.017 0.004 0.084-0.371zM12.179 23.268l-0.17 0.341 0.025 0.013 0.027 0.009 0.118-0.362zM11.218 25.023l-0.168 0.342 0.010 0.005 0.010 0.004 0.148-0.351zM13.164 25.678l0.096-0.369-0.006-0.001-0.006-0.001-0.085 0.371zM13.614 25.795l-0.096 0.369 0.017 0.004 0.017 0.003 0.063-0.376zM14.853 25.999l-0.061 0.376 0.010 0.002 0.010 0.001 0.041-0.379zM16.733 26.103l-0.006 0.381 0.015 0 0.015-0.001-0.024-0.38zM17.826 26.048l0.015 0.381 0.017-0.001 0.017-0.002-0.049-0.378zM14.537 23.958l-0.084 0.371 0.018 0.004 0.018 0.002 0.049-0.378zM16.422 24.102l-0.013 0.381 0.006 0h0.006v-0.381zM20.774 23.305l0.109 0.365 0.032-0.009 0.030-0.015-0.17-0.341zM25.562 8.399l0.337-0.178-0.008-0.015-0.009-0.014-0.32 0.207zM22.189 4.99l0.225-0.307-0.015-0.011-0.016-0.010-0.193 0.328zM20.774 4.265l0.158-0.347-0.009-0.004-0.009-0.004-0.139 0.355zM19.251 3.721l0.116-0.363-0.011-0.003-0.011-0.003-0.095 0.369zM17.474 3.394l0.045-0.378-0.009-0.001-0.009-0.001-0.027 0.38zM15.479 3.394l-0.028-0.38-0.006 0-0.006 0.001 0.040 0.379zM9.387 5.824l-0.231-0.303-0.011 0.009-0.011 0.010 0.253 0.285zM8.081 7.13l-0.283-0.255-0.007 0.007-0.006 0.008 0.296 0.24zM6.848 8.907l-0.326-0.198-0.010 0.017-0.008 0.017 0.344 0.164zM6.195 10.394l-0.354-0.142-0.005 0.013-0.004 0.013 0.363 0.116zM5.76 12.098l-0.374-0.075-0.003 0.015-0.002 0.015 0.378 0.045zM6.92 18.663l-0.337 0.177 0.008 0.015 0.009 0.014 0.32-0.207zM17.588 24.477l1.473-0.269-0.137-0.75-1.473 0.269 0.137 0.75zM19.099 24.198l1.059-0.312-0.215-0.731-1.059 0.312 0.215 0.731zM20.008 25.238l-1.511 0.341 0.168 0.743 1.511-0.341-0.168-0.743zM21.22 24.829l-1.249 0.419 0.242 0.722 1.249-0.419-0.242-0.722zM22.504 24.21l-1.328 0.637 0.33 0.687 1.328-0.637-0.33-0.687zM23.608 23.517l-1.141 0.714 0.404 0.646 1.141-0.714-0.404-0.646zM24.639 22.682l-1.068 0.861 0.478 0.593 1.068-0.861-0.478-0.593zM25.634 21.601l-1.035 1.118 0.559 0.517 1.035-1.118-0.559-0.517zM21.62 23.307l1.052-0.616-0.385-0.657-1.052 0.616 0.385 0.657zM22.705 22.668l0.834-0.617-0.453-0.613-0.834 0.617 0.453 0.613zM23.557 22.038l0.653-0.544-0.488-0.585-0.653 0.544 0.488 0.585zM24.256 21.448l0.617-0.725-0.581-0.493-0.617 0.725 0.581 0.493zM26.395 20.741l-0.767 0.866 0.57 0.505 0.767-0.866-0.57-0.505zM24.873 20.723l0.617-0.725-0.581-0.493-0.617 0.725 0.581 0.493zM26.946 19.943l-0.578 0.833 0.626 0.435 0.578-0.833-0.626-0.435zM25.52 19.955l0.508-0.798-0.643-0.409-0.508 0.798 0.643 0.409zM27.469 18.996l-0.543 0.98 0.666 0.369 0.543-0.98-0.666-0.369zM27.93 18.099l-0.467 0.908 0.678 0.348 0.467-0.908-0.678-0.348zM26.050 19.118l0.326-0.68-0.687-0.33-0.326 0.68 0.687 0.33zM26.379 18.432l0.254-0.553-0.692-0.318-0.254 0.553 0.692 0.318zM28.188 17.41l-0.276 0.728 0.713 0.27 0.276-0.728-0.713-0.27zM26.645 17.849l0.351-0.976-0.717-0.258-0.351 0.976 0.717 0.258zM28.419 16.666l-0.238 0.765 0.727 0.227 0.238-0.765-0.727-0.227zM28.574 15.934l-0.163 0.766 0.745 0.159 0.163-0.766-0.745-0.159zM27.006 16.842l0.281-1.058-0.736-0.196-0.281 1.058 0.736 0.196zM28.696 15.218l-0.125 0.73 0.751 0.129 0.125-0.73-0.751-0.129zM27.296 15.743l0.131-0.868-0.753-0.114-0.131 0.868 0.753 0.114zM28.701 14.617l-0.011 0.659 0.762 0.013 0.011-0.659-0.762-0.013zM27.43 14.848l0.043-0.557-0.76-0.059-0.043 0.557 0.76 0.059zM28.714 13.848l-0.013 0.769 0.762 0.013 0.013-0.769-0.762-0.013zM27.474 14.261v-0.893h-0.762v0.893h0.762zM28.729 12.969l-0.015 0.879 0.762 0.013 0.015-0.879-0.762-0.013zM28.631 12.293l0.101 0.734 0.755-0.104-0.101-0.734-0.755 0.104zM27.472 13.327l-0.117-1.088-0.758 0.082 0.117 1.088 0.758-0.082zM28.496 11.457l0.137 0.845 0.752-0.122-0.137-0.845-0.752 0.122zM27.352 12.215l-0.138-0.807-0.751 0.128 0.138 0.807 0.751-0.128zM28.29 10.404l0.208 1.066 0.748-0.146-0.208-1.066-0.748 0.146zM27.876 9.364l0.433 1.106 0.709-0.278-0.433-1.106-0.709 0.278zM27.202 11.359l-0.393-1.252-0.727 0.228 0.393 1.252 0.727-0.228zM27.415 8.433l0.473 0.96 0.683-0.337-0.474-0.96-0.683 0.337zM26.791 10.061l-0.545-1.181-0.692 0.319 0.545 1.181 0.692-0.319zM26.729 7.192l0.694 1.257 0.667-0.368-0.694-1.257-0.667 0.368zM26.134 6.424l0.626 0.816 0.604-0.464-0.626-0.816-0.604 0.464zM25.459 7.543l-0.659-0.817-0.593 0.478 0.659 0.817 0.593-0.478zM25.378 5.592l0.776 0.855 0.564-0.512-0.776-0.855-0.564 0.512zM24.777 6.7l-0.792-0.815-0.547 0.531 0.792 0.815 0.547-0.531zM24.643 4.817l0.74 0.781 0.553-0.524-0.74-0.781-0.553 0.524zM23.947 5.85l-0.915-0.715-0.469 0.6 0.915 0.715 0.469-0.6zM23.318 3.85l1.376 1.012 0.451-0.614-1.376-1.012-0.451 0.614zM22.374 3.265l0.969 0.602 0.402-0.647-0.969-0.602-0.402 0.647zM21.216 2.716l1.195 0.569 0.328-0.688-1.195-0.569-0.328 0.688zM19.901 2.231l1.347 0.498 0.264-0.715-1.347-0.498-0.264 0.715zM18.115 1.849l1.838 0.397 0.161-0.745-1.838-0.397-0.161 0.745zM16.666 1.759l1.504 0.098 0.050-0.76-1.504-0.098-0.050 0.76zM14.627 1.798l2.071-0.039-0.014-0.762-2.071 0.039 0.014 0.762zM12.876 2.338l1.854-0.555-0.219-0.73-1.854 0.555 0.219 0.73zM14.339 3.135l-1.661 0.396 0.177 0.741 1.661-0.396-0.177-0.741zM10.999 2.997l1.893-0.665-0.252-0.719-1.893 0.665 0.252 0.719zM12.615 3.552l-1.421 0.617 0.303 0.699 1.421-0.617-0.303-0.699zM11.148 4.193l-1.197 0.725 0.395 0.652 1.197-0.725-0.395-0.652zM7.927 5.213l0.764-0.683-0.508-0.568-0.764 0.683 0.508 0.568zM6.76 6.419l1.187-1.226-0.547-0.53-1.187 1.226 0.547 0.53zM8.66 4.554l1.143-0.824-0.445-0.618-1.143 0.824 0.445 0.618zM9.778 3.748l1.293-0.784-0.395-0.651-1.293 0.784 0.395 0.651zM5.497 8.312l0.657-1.051-0.646-0.404-0.657 1.051 0.646 0.404zM6.14 7.282l0.655-0.905-0.617-0.447-0.655 0.905 0.617 0.447zM4.973 9.468l0.547-1.2-0.693-0.316-0.547 1.2 0.693 0.316zM4.473 10.927l0.514-1.493-0.72-0.248-0.514 1.493 0.72 0.248zM4.24 12.084l0.246-1.205-0.747-0.152-0.246 1.205 0.747 0.152zM4.154 13.031l0.092-0.987-0.759-0.070-0.092 0.987 0.759 0.070zM4.134 14.32l0.022-1.318-0.762-0.013-0.022 1.318 0.762 0.013zM5.27 13.005v1.269h0.762v-1.269h-0.762zM4.263 15.446l-0.131-1.174-0.757 0.085 0.131 1.174 0.757-0.085zM5.272 14.309l0.109 1.197 0.759-0.069-0.109-1.197-0.759 0.069zM5.39 15.563l0.29 1.161 0.739-0.185-0.29-1.161-0.739 0.185zM4.713 17.312l-0.458-1.912-0.741 0.177 0.458 1.912 0.741-0.177zM5.694 16.766l0.508 1.342 0.713-0.27-0.508-1.342-0.713 0.27zM5.417 18.908l-0.725-1.66-0.698 0.305 0.725 1.66 0.698-0.305zM5.846 19.778l-0.437-0.886-0.683 0.337 0.437 0.886 0.683-0.337zM5.705 20.513l0.158-0.437-0.717-0.259-0.158 0.437 0.717 0.259zM5.309 21.54l0.393-1.019-0.711-0.274-0.393 1.019 0.711 0.274zM7.003 19.492l0.293 0.435 0.632-0.425-0.293-0.435-0.632 0.425zM7.069 20.384l-0.33 0.926 0.718 0.255 0.33-0.926-0.718-0.255zM7.292 19.921l0.070 0.109 0.641-0.412-0.070-0.109-0.641 0.412zM7.325 19.691l-0.254 0.689 0.715 0.263 0.254-0.689-0.715-0.263zM6.737 21.32l-0.634 1.931 0.724 0.238 0.634-1.931-0.724-0.238zM4.444 23.935l0.868-2.403-0.717-0.259-0.868 2.403 0.717 0.259zM3.457 26.666l0.986-2.731-0.717-0.259-0.986 2.731 0.717 0.259zM3.797 25.961l-0.794 0.207 0.192 0.737 0.794-0.207-0.192-0.737zM5.021 25.55l-1.249 0.419 0.242 0.722 1.249-0.419-0.242-0.722zM6.128 23.189l-0.078 0.145 0.672 0.359 0.078-0.145-0.672-0.359zM6.474 23.885l0.869-0.205-0.175-0.741-0.869 0.205 0.175 0.741zM7.367 23.673l1.589-0.486-0.223-0.729-1.589 0.486 0.223 0.729zM8.948 23.189l1.63-0.461-0.207-0.733-1.63 0.461 0.207 0.733zM10.278 22.688l0.518 0.313 0.394-0.652-0.518-0.313-0.394 0.652zM10.031 24.126l-4.992 1.419 0.208 0.733 4.992-1.419-0.208-0.733zM12.061 23.631l1.559 0.508 0.236-0.724-1.559-0.508-0.236 0.724zM10.822 23.016l1.186 0.593 0.341-0.681-1.186-0.593-0.341 0.681zM12.45 25.129l-1.084-0.457-0.296 0.702 1.084 0.458 0.296-0.702zM11.385 24.681l-1.083-0.531-0.335 0.684 1.083 0.531 0.335-0.684zM13.249 25.306l-0.863-0.197-0.17 0.743 0.863 0.197 0.17-0.743zM14.165 25.501l-0.488-0.081-0.125 0.752 0.488 0.081 0.125-0.752zM13.71 25.427l-0.45-0.117-0.192 0.737 0.45 0.117 0.192-0.737zM15.683 25.706l-0.789-0.086-0.083 0.757 0.789 0.086 0.083-0.757zM14.914 25.623l-0.751-0.122-0.123 0.752 0.751 0.122 0.123-0.752zM16.363 25.716l-0.715-0.012-0.013 0.762 0.715 0.012 0.013-0.762zM17.161 25.694l-0.452 0.029 0.049 0.76 0.452-0.029-0.049-0.76zM16.74 25.722l-0.376-0.006-0.013 0.762 0.376 0.006 0.013-0.762zM18.532 25.573l-0.754 0.097 0.098 0.756 0.754-0.097-0.098-0.756zM17.81 25.667l-0.64 0.026 0.031 0.761 0.64-0.026-0.031-0.761zM13.654 24.148l0.798 0.181 0.169-0.743-0.798-0.181-0.169 0.743zM14.488 24.335l0.838 0.109 0.098-0.756-0.838-0.109-0.098 0.756zM15.361 24.447l1.048 0.036 0.026-0.762-1.048-0.035-0.026 0.761zM16.422 24.483h1.097v-0.762h-1.097v0.762zM20.16 23.886l0.723-0.216-0.218-0.73-0.723 0.216 0.218 0.73zM20.945 23.645l0.653-0.326-0.341-0.681-0.653 0.326 0.341 0.681zM26.237 8.862l-0.338-0.641-0.674 0.356 0.338 0.641 0.674-0.356zM25.881 8.192l-0.399-0.617-0.64 0.414 0.399 0.617 0.64-0.414zM23.022 5.128l-0.609-0.446-0.45 0.615 0.609 0.446 0.45-0.615zM22.382 4.662l-0.617-0.363-0.386 0.657 0.617 0.363 0.386-0.657zM21.73 4.28l-0.798-0.363-0.315 0.694 0.798 0.363 0.315-0.694zM20.913 3.91l-0.776-0.304-0.278 0.709 0.776 0.304 0.278-0.709zM20.115 3.598l-0.747-0.24-0.233 0.725 0.747 0.24 0.233-0.725zM19.346 3.352l-0.834-0.215-0.19 0.738 0.834 0.215 0.19-0.738zM18.462 3.128l-0.943-0.112-0.090 0.757 0.943 0.112 0.090-0.757zM17.501 3.014l-1.015-0.073-0.054 0.76 1.015 0.073 0.054-0.76zM16.43 2.942l-0.979 0.073 0.056 0.76 0.979-0.073-0.056-0.76zM15.439 3.015l-1.052 0.112 0.081 0.758 1.052-0.112-0.081-0.758zM9.917 4.941l-0.762 0.58 0.462 0.606 0.762-0.58-0.462-0.606zM9.133 5.539l-0.653 0.58 0.506 0.569 0.653-0.58-0.506-0.569zM8.451 6.15l-0.653 0.725 0.566 0.51 0.653-0.725-0.566-0.51zM7.785 6.89l-0.617 0.762 0.592 0.479 0.617-0.762-0.592-0.479zM7.139 7.694l-0.617 1.015 0.651 0.395 0.617-1.015-0.651-0.395zM6.504 8.743l-0.363 0.762 0.688 0.328 0.363-0.762-0.688-0.328zM6.132 9.527l-0.29 0.725 0.707 0.283 0.29-0.725-0.707-0.283zM5.832 10.278l-0.254 0.798 0.726 0.231 0.254-0.798-0.726-0.231zM5.568 11.117l-0.181 0.907 0.747 0.149 0.181-0.907-0.747-0.149zM5.382 12.053l-0.109 0.907 0.756 0.091 0.109-0.907-0.756-0.091zM6.221 18.151l0.363 0.689 0.674-0.355-0.363-0.689-0.674 0.355zM6.601 18.87l0.399 0.617 0.64-0.414-0.399-0.617-0.64 0.414z"></path>
<path fill="#000" style="fill: var(--color1, #000); stroke: var(--color3, #bc84e7)" stroke="#bc84e7" stroke-linejoin="miter" stroke-linecap="butt" stroke-miterlimit="4" stroke-width="0.381" d="M26.917 13.601c0 5.687-4.47 10.363-10.291 10.363-5.832 0-10.798-4.687-10.798-10.363 0-5.679 4.717-10.291 10.545-10.291s10.545 4.612 10.545 10.291z"></path>
<path fill="#fff" style="fill: var(--color4, #fff)" d="M15.104 14.543l0.725 0.617 0.689 0.508 0.689 0.326 0.399 0.218 0.399 0.145 0.181-0.073 0.254-0.254 0.218-0.29 0.471-0.58 0.435-0.508 1.632 0.798 1.378 0.689v0.798l-0.073 0.363-0.145 0.399-0.399 0.471-0.544 0.363-0.399 0.218-0.471 0.145-0.653 0.109h-0.399l-0.58-0.109-0.399-0.073-0.363-0.109-0.87-0.29-1.088-0.435-1.559-1.052-0.762-0.653-0.907-0.907-0.508-0.653-1.015-1.487-0.399-0.689-0.326-0.762-0.109-0.544-0.036-0.617 0.036-0.907 0.254-0.653 0.29-0.58 0.399-0.508 0.435-0.109h0.87l0.58 0.218 0.181 0.254 0.181 0.399 0.218 0.508 0.29 0.653 0.29 0.689v0.399l-0.109 0.363-0.29 0.29-0.363 0.435-0.218 0.326 0.036 0.145 0.181 0.363 1.269 1.632z"></path>
<path fill="#fff" style="fill: var(--color4, #fff)" d="M17.207 10.227l0.399 0.036 0.471 0.145 0.435 0.29 0.29 0.363 0.254 0.363 0.145 0.326 0.145 0.363 0.073 0.363v0.254l-0.036 0.181-0.145 0.181-0.218 0.073-0.29-0.073-0.181-0.29-0.218-0.87-0.109-0.218-0.181-0.218-0.218-0.218-0.218-0.145-0.29-0.073-0.725-0.072-0.218-0.181v-0.218l0.145-0.218 0.363-0.145h0.326z"></path>
<path fill="#fff" style="fill: var(--color4, #fff)" d="M17.026 8.378l0.399 0.073 0.399 0.145 0.979 0.435 0.798 0.544 0.725 0.798 0.254 0.471 0.181 0.363 0.145 0.508 0.073 0.435 0.073 0.653 0.036 0.58-0.036 0.145-0.181 0.109h-0.218l-0.181-0.073-0.073-0.181-0.036-0.273-0.109-0.633-0.181-0.689-0.471-0.907-0.29-0.435-0.508-0.399-0.435-0.326-0.653-0.363-0.508-0.145-0.399-0.073-0.254-0.036h-0.435l-0.073-0.036-0.073-0.073-0.073-0.109v-0.218l0.036-0.072 0.145-0.145 0.218-0.073h0.725z"></path>
<path fill="#fff" style="fill: var(--color4, #fff)" d="M16.627 6.564l0.399 0.036 0.399 0.073 1.052 0.326 0.544 0.218 0.399 0.254 0.725 0.508 0.834 0.617 0.399 0.435 0.363 0.508 0.508 0.943 0.399 1.124 0.29 1.306 0.073 0.653 0.036 0.653-0.073 0.145-0.073 0.073-0.145 0.073h-0.29l-0.109-0.073-0.109-0.145-0.073-0.145-0.218-1.487-0.218-1.124-0.58-1.161-0.58-0.834-1.088-1.015-0.907-0.544-0.617-0.29-0.653-0.181-0.399-0.036-0.58-0.036-0.617-0.036-0.218-0.036-0.145-0.073-0.073-0.073-0.036-0.109v-0.145l0.036-0.145 0.073-0.109 0.073-0.072 0.073-0.036 0.109-0.036h1.016z"></path>
</symbol>
<symbol id="icon-facebook" viewBox="0 0 18 32">
<path d="M5.794 3.363l1.15-1.61 0.977-0.747 1.207-0.604 1.265-0.259 1.207-0.144h1.696l1.84 0.144h0.575v4.599h-3.018l-0.891 0.172-0.661 0.316-0.402 0.546-0.201 0.776-0.086 1.696v2.185h5.117l-0.604 5.174-4.427 0.086v13.022h-5.433v-6.41l0.115-6.698h-4.398v-5.059h4.341v-3.737l0.201-2.156 0.431-1.294z"></path>
<path fill="none" stroke="#df86e1" style="stroke: var(--color5, #df86e1)" stroke-linejoin="miter" stroke-linecap="butt" stroke-miterlimit="4" stroke-width="0.4103" d="M15.136 0.349h0.37v4.189h-2.833l-0.936 0.181-0.731 0.35-0.456 0.619-0.010 0.038-0.206 0.796-0.001 0.021-0.086 1.696-0 0.005v2.395h5.092l-0.556 4.768-4.449 0.087v13.018h-5.023v-6.204l0.115-6.696 0.004-0.209h-4.402v-4.649h4.341v-3.933l0.198-2.123 0.414-1.242 1.114-1.56 0.937-0.717 1.166-0.583 1.23-0.252 1.187-0.141h1.676l1.848 0.144z"></path>
</symbol>
</defs>
</svg>
