<svg width="84" height="84" viewBox="0 0 84 84" fill="none" xmlns="http://www.w3.org/2000/svg">
<path d="M17.0563 61.5236L18.0358 58.6963L18.9604 55.9067L20.4836 51.8131L27.8141 58.4772L25.91 59.0483L22.8636 59.9051L19.722 60.8571L18.5796 61.238L17.0563 61.5236Z" fill="url(#paint0_linear_28_106)"/>
<path d="M45.523 61.9525L49.4569 61.2262L52.2865 60.3828L54.2191 59.7984L55.9632 58.9164L58.7731 57.2509L61.0017 55.5854L62.7459 54.1159L64.3932 52.1566L66.0406 50.1973L67.3973 48.0422L68.2696 46.2057L68.9481 44.7117L69.8861 42.0765L70.6373 39.2202L70.9879 36.8754L71.1033 35.3698L71.1038 32.9575L70.7915 30.0191L70.4236 27.8403L69.3734 24.4595L67.9179 21.2698L67.0149 19.5393L65.9495 17.8743L64.1894 15.6683L62.075 13.4674L59.632 11.5369L58.0065 10.3338L56.3596 9.35457L54.2284 8.37547L52.156 7.55498L50.1595 6.90699L47.9313 6.32771L45.4124 6.02632L42.6997 5.83091L40.0838 6.02729L37.2742 6.32965L32.8358 7.39989L29.0386 9.0657L25.8411 11.0253L23.8063 12.5928L22.0621 14.1603L20.3179 16.1196L18.6705 18.1768L17.023 20.9197L16.0538 22.9768L15.2783 24.9359L14.5998 27.0908L14.1149 29.5397L13.8238 31.9884L13.8232 35.4166L14.1133 38.6489L14.8878 41.7831L16.2435 45.4069L17.212 47.2678L18.2774 48.9327L19.0589 50.1079L19.246 50.4017L18.5674 52.2629L17.6864 54.7645L15.991 59.9794L15.7834 60.3717L18.1055 59.8166L22.3508 58.502L26.7047 57.2568L28.0893 58.1024L25.7957 63.0106L12.4582 66.8456L9.12101 67.9774L7 68.5358L9.63618 61.1602L11.956 54.6696L13.0072 51.9171L13.429 50.737L12.2619 48.3435L10.325 43.8598L9.10327 38.6955L8.75356 35.5241L8.81254 31.9638L9.05783 29.2969L9.71509 26.0433L11.0892 22.0102L12.5507 18.7699L14.3073 15.9301L16.0573 13.486L19.2295 10.1751L21.2712 8.3294L24.3249 6.10472L27.779 3.9856L32.8368 2.18982L37.7891 0.68906L43.3216 0.582858L47.3397 0.847265L52.2494 1.91784L55.8472 3.26345L59.0397 4.8002L61.6273 6.42586L65.3028 9.1577L67.2791 11.2679L69.3526 13.5775L71.0256 15.7815L72.88 19.1757L74.1443 21.7686L75.3016 24.7555L75.8572 27.6336L76.2217 29.9149L76.4905 31.8978L76.4512 34.2713L76.4168 36.3482L76.3873 38.1283L76.053 40.1013L75.6164 42.1715L74.9788 44.2383L74.2423 46.2046L72.995 48.6571L71.5433 51.304L69.9976 53.5536L67.9477 55.8939L65.1825 58.9147L62.3283 61.2416L59.2795 63.1696L55.7314 64.8915L52.3942 66.0233L48.3565 66.9456L46.3409 67.209L44.6303 67.2796L43.4222 67.3585L42.4169 67.3419L40.5068 67.3102L38.3989 67.0775L36.3932 66.7475L35.0895 66.528L33.888 66.2113L31.584 65.6786L28.6882 64.4435L25.7957 63.0106L28.0893 58.1024L31.2578 59.7047L35.4235 61.0752L37.5549 61.5645L39.7926 61.8576L42.5927 61.953L45.523 61.9525Z" fill="url(#paint1_linear_28_106)"/>
<g filter="url(#filter0_dd_28_106)">
<mask id="path-3-outside-1_28_106" maskUnits="userSpaceOnUse" x="6.09618" y="1.01305" width="72.1662" height="72.1662" fill="black">
<rect fill="white" x="6.09618" y="1.01305" width="72.1662" height="72.1662"/>
<path d="M45.9881 63.2671L49.8535 62.5619L52.6339 61.7426L54.5328 61.175L56.2464 60.318L59.0073 58.6998L61.1969 57.0813L62.9105 55.6533L64.5289 53.7493L66.1473 51.8453L67.4801 49.7509L68.3369 47.966L69.0033 46.5141L69.9246 43.953L70.6623 41.1769L71.0063 38.898L71.1195 37.4347L71.1195 35.09L70.8122 32.2339L70.4502 30.1163L69.4177 26.8301L67.9869 23.7296L67.0993 22.0475L66.0521 20.4291L64.3221 18.2846L62.2441 16.145L59.8432 14.2683L58.2457 13.0986L56.6273 12.1466L54.5328 11.1946L52.4963 10.3967L50.5344 9.76657L48.3448 9.20315L45.8696 8.90976L43.2039 8.71936L40.6335 8.90976L37.8727 9.20315L33.5116 10.2426L29.7806 11.861L26.639 13.765L24.6398 15.2882L22.9262 16.8114L21.2126 18.7154L19.5942 20.7147L17.9758 23.3803L17.0237 25.3795L16.2621 27.2835L15.5957 29.3779L15.1197 31.7579L14.8341 34.138L14.8341 37.47L15.1197 40.6116L15.8813 43.658L17.2141 47.1805L18.1662 48.9893L19.2134 50.6077L19.9816 51.7501L20.1654 52.0357L19.499 53.8445L18.6336 56.2758L16.9687 61.3441L16.7647 61.7253L19.0464 61.1862L23.2177 59.9093L27.4958 58.6998L28.8565 59.5219L26.6036 64.2921L13.4984 68.0171L10.2194 69.1165L8.13529 69.6589L10.7244 62.4906L13.0028 56.1825L14.0352 53.5075L14.4495 52.3605L13.3023 50.034L11.3982 45.6757L10.1967 40.656L9.85254 37.5736L9.90987 34.1132L10.1504 31.5211L10.7957 28.3589L12.1452 24.4391L13.5808 21.29L15.3063 18.5303L17.0255 16.155L20.142 12.9376L22.148 11.144L25.1483 8.98223L28.542 6.92317L33.5116 5.17866L38.3777 3.72088L43.8141 3.61864L47.7624 3.87634L52.5871 4.91775L56.1227 6.22625L59.26 7.72046L61.803 9.30097L65.4151 11.9568L67.3574 14.0081L69.3953 16.2533L71.0396 18.3958L72.8624 21.6951L74.1053 24.2156L75.243 27.1189L75.7895 29.9163L76.148 32.1336L76.4125 34.061L76.3743 36.3679L76.3409 38.3865L76.3122 40.1167L75.984 42.0343L75.5554 44.0463L74.9293 46.055L74.2059 47.966L72.9807 50.3495L71.5547 52.9219L70.0362 55.1082L68.0223 57.3824L65.3057 60.318L62.5014 62.5791L59.506 64.4525L56.0198 66.1254L52.7407 67.2249L48.7733 68.1207L46.7928 68.3763L45.1118 68.4446L43.9248 68.5211L42.9369 68.5047L41.06 68.4736L38.9886 68.247L37.0177 67.9259L35.7366 67.7124L34.556 67.4044L32.2918 66.8861L29.4461 65.6852L26.6036 64.2921L28.8565 59.5219L31.9703 61.0798L36.0639 62.4126L38.1583 62.8886L40.3573 63.1738L43.1087 63.2671L45.9881 63.2671Z"/>
</mask>
<path d="M45.9881 63.2671L49.8535 62.5619L52.6339 61.7426L54.5328 61.175L56.2464 60.318L59.0073 58.6998L61.1969 57.0813L62.9105 55.6533L64.5289 53.7493L66.1473 51.8453L67.4801 49.7509L68.3369 47.966L69.0033 46.5141L69.9246 43.953L70.6623 41.1769L71.0063 38.898L71.1195 37.4347L71.1195 35.09L70.8122 32.2339L70.4502 30.1163L69.4177 26.8301L67.9869 23.7296L67.0993 22.0475L66.0521 20.4291L64.3221 18.2846L62.2441 16.145L59.8432 14.2683L58.2457 13.0986L56.6273 12.1466L54.5328 11.1946L52.4963 10.3967L50.5344 9.76657L48.3448 9.20315L45.8696 8.90976L43.2039 8.71936L40.6335 8.90976L37.8727 9.20315L33.5116 10.2426L29.7806 11.861L26.639 13.765L24.6398 15.2882L22.9262 16.8114L21.2126 18.7154L19.5942 20.7147L17.9758 23.3803L17.0237 25.3795L16.2621 27.2835L15.5957 29.3779L15.1197 31.7579L14.8341 34.138L14.8341 37.47L15.1197 40.6116L15.8813 43.658L17.2141 47.1805L18.1662 48.9893L19.2134 50.6077L19.9816 51.7501L20.1654 52.0357L19.499 53.8445L18.6336 56.2758L16.9687 61.3441L16.7647 61.7253L19.0464 61.1862L23.2177 59.9093L27.4958 58.6998L28.8565 59.5219L26.6036 64.2921L13.4984 68.0171L10.2194 69.1165L8.13529 69.6589L10.7244 62.4906L13.0028 56.1825L14.0352 53.5075L14.4495 52.3605L13.3023 50.034L11.3982 45.6757L10.1967 40.656L9.85254 37.5736L9.90987 34.1132L10.1504 31.5211L10.7957 28.3589L12.1452 24.4391L13.5808 21.29L15.3063 18.5303L17.0255 16.155L20.142 12.9376L22.148 11.144L25.1483 8.98223L28.542 6.92317L33.5116 5.17866L38.3777 3.72088L43.8141 3.61864L47.7624 3.87634L52.5871 4.91775L56.1227 6.22625L59.26 7.72046L61.803 9.30097L65.4151 11.9568L67.3574 14.0081L69.3953 16.2533L71.0396 18.3958L72.8624 21.6951L74.1053 24.2156L75.243 27.1189L75.7895 29.9163L76.148 32.1336L76.4125 34.061L76.3743 36.3679L76.3409 38.3865L76.3122 40.1167L75.984 42.0343L75.5554 44.0463L74.9293 46.055L74.2059 47.966L72.9807 50.3495L71.5547 52.9219L70.0362 55.1082L68.0223 57.3824L65.3057 60.318L62.5014 62.5791L59.506 64.4525L56.0198 66.1254L52.7407 67.2249L48.7733 68.1207L46.7928 68.3763L45.1118 68.4446L43.9248 68.5211L42.9369 68.5047L41.06 68.4736L38.9886 68.247L37.0177 67.9259L35.7366 67.7124L34.556 67.4044L32.2918 66.8861L29.4461 65.6852L26.6036 64.2921L28.8565 59.5219L31.9703 61.0798L36.0639 62.4126L38.1583 62.8886L40.3573 63.1738L43.1087 63.2671L45.9881 63.2671Z" fill="url(#paint2_linear_28_106)"/>
<path d="M28.4044 59.3084L26.1515 64.0785L27.0557 64.5056L29.3086 59.7354L28.4044 59.3084ZM45.9881 63.2671L45.9881 64.2671L46.0786 64.2671L46.1676 64.2508L45.9881 63.2671ZM52.6339 61.7426L52.9166 62.7018L52.9203 62.7007L52.6339 61.7426ZM52.7407 67.2249L52.961 68.2003L53.0105 68.1891L53.0586 68.173L52.7407 67.2249ZM32.2918 66.8861L31.903 67.8075L31.9835 67.8414L32.0687 67.8609L32.2918 66.8861ZM49.8535 62.5619L50.033 63.5457L50.0852 63.5361L50.1362 63.5211L49.8535 62.5619ZM48.7733 68.1207L48.9013 69.1124L48.9478 69.1064L48.9936 69.0961L48.7733 68.1207ZM45.1118 68.4446L45.0712 67.4454L45.0594 67.4459L45.0475 67.4467L45.1118 68.4446ZM56.0198 66.1254L56.3377 67.0735L56.3965 67.0538L56.4524 67.027L56.0198 66.1254ZM59.506 64.4525L59.9386 65.354L59.9889 65.3299L60.0362 65.3003L59.506 64.4525ZM62.5014 62.5791L63.0317 63.427L63.0825 63.3952L63.1291 63.3576L62.5014 62.5791ZM65.3057 60.318L65.9334 61.0965L65.9901 61.0507L66.0396 60.9972L65.3057 60.318ZM68.0223 57.3824L68.7562 58.0616L68.7637 58.0535L68.7709 58.0453L68.0223 57.3824ZM56.2464 60.318L56.6937 61.2124L56.7235 61.1975L56.7521 61.1807L56.2464 60.318ZM59.0073 58.6998L59.513 59.5625L59.5589 59.5356L59.6017 59.5039L59.0073 58.6998ZM61.1969 57.0813L61.7913 57.8855L61.8147 57.8682L61.8371 57.8496L61.1969 57.0813ZM62.9105 55.6533L63.5507 56.4215L63.6167 56.3665L63.6724 56.301L62.9105 55.6533ZM64.5289 53.7493L63.767 53.1017L64.5289 53.7493ZM70.0362 55.1082L70.7849 55.7711L70.824 55.727L70.8576 55.6786L70.0362 55.1082ZM66.1473 51.8453L66.9093 52.4929L66.9539 52.4404L66.991 52.3822L66.1473 51.8453ZM71.5547 52.9219L72.376 53.4923L72.4048 53.4509L72.4293 53.4067L71.5547 52.9219ZM67.4801 49.7509L68.3238 50.2878L68.3558 50.2374L68.3816 50.1836L67.4801 49.7509ZM72.9807 50.3495L73.8553 50.8343L73.8629 50.8206L73.87 50.8067L72.9807 50.3495ZM74.2059 47.966L75.0953 48.4232L75.1211 48.3729L75.1412 48.3201L74.2059 47.966ZM68.3369 47.966L69.2384 48.3988L69.2422 48.391L69.2458 48.3832L68.3369 47.966ZM69.0033 46.5141L69.9122 46.9312L69.9299 46.8925L69.9443 46.8525L69.0033 46.5141ZM74.9293 46.055L75.8645 46.4091L75.8751 46.3811L75.884 46.3526L74.9293 46.055ZM69.9246 43.953L70.8656 44.2915L70.8801 44.2512L70.891 44.2098L69.9246 43.953ZM75.5554 44.0463L76.5101 44.3439L76.5239 44.2998L76.5335 44.2546L75.5554 44.0463ZM75.984 42.0343L76.9621 42.2426L76.9663 42.2229L76.9697 42.203L75.984 42.0343ZM70.6623 41.1769L71.6287 41.4337L71.6428 41.3806L71.6511 41.3262L70.6623 41.1769ZM76.3122 40.1167L77.2979 40.2854L77.3108 40.2099L77.3121 40.1333L76.3122 40.1167ZM71.0063 38.898L71.9951 39.0473L72.0005 39.0113L72.0033 38.9751L71.0063 38.898ZM71.1195 37.4347L72.1165 37.5118L72.1195 37.4733L72.1195 37.4347L71.1195 37.4347ZM71.1195 35.09L72.1195 35.09L72.1195 35.0363L72.1138 34.983L71.1195 35.09ZM76.4125 34.061L77.4124 34.0775L77.4137 34.0009L77.4033 33.925L76.4125 34.061ZM76.148 32.1336L77.1387 31.9977L77.1371 31.9858L77.1352 31.974L76.148 32.1336ZM70.8122 32.2339L71.8064 32.1269L71.8031 32.0961L71.7979 32.0655L70.8122 32.2339ZM75.7895 29.9163L76.7767 29.7566L76.7741 29.7405L76.7709 29.7245L75.7895 29.9163ZM70.4502 30.1163L71.4359 29.9478L71.4245 29.8811L71.4042 29.8165L70.4502 30.1163ZM75.243 27.1189L76.2244 26.9271L76.207 26.8383L76.174 26.754L75.243 27.1189ZM74.1053 24.2156L75.0363 23.8507L75.0209 23.8113L75.0022 23.7733L74.1053 24.2156ZM69.4177 26.8301L70.3717 26.5303L70.3525 26.4692L70.3257 26.4111L69.4177 26.8301ZM72.8624 21.6951L73.7593 21.2528L73.749 21.2319L73.7377 21.2115L72.8624 21.6951ZM67.9869 23.7296L68.8948 23.3106L68.8837 23.2865L68.8713 23.263L67.9869 23.7296ZM71.0396 18.3958L71.9149 17.9122L71.8786 17.8465L71.8329 17.787L71.0396 18.3958ZM66.0521 20.4291L66.8917 19.8858L66.8633 19.8419L66.8304 19.8012L66.0521 20.4291ZM69.3953 16.2533L70.1886 15.6445L70.1635 15.6118L70.1357 15.5812L69.3953 16.2533ZM64.3221 18.2846L65.1004 17.6567L65.0715 17.6209L65.0395 17.5878L64.3221 18.2846ZM67.3574 14.0081L68.0978 13.336L68.0908 13.3282L68.0835 13.3206L67.3574 14.0081ZM62.2441 16.145L62.9614 15.4483L62.9138 15.3993L62.86 15.3572L62.2441 16.145ZM65.4151 11.9568L66.1412 11.2693L66.0796 11.2042L66.0075 11.1512L65.4151 11.9568ZM59.8432 14.2683L60.4591 13.4804L60.4467 13.4707L60.434 13.4614L59.8432 14.2683ZM61.803 9.30097L62.3953 8.4953L62.3639 8.47221L62.3308 8.45164L61.803 9.30097ZM59.26 7.72046L59.7878 6.87113L59.7404 6.84164L59.69 6.81763L59.26 7.72046ZM56.6273 12.1466L57.1343 11.2847L57.0889 11.258L57.0411 11.2362L56.6273 12.1466ZM56.1227 6.22625L56.5527 5.32342L56.512 5.30405L56.4698 5.28842L56.1227 6.22625ZM52.4963 10.3967L52.8611 9.46564L52.8319 9.45422L52.8021 9.44465L52.4963 10.3967ZM52.5871 4.91775L52.9341 3.97991L52.8675 3.95525L52.798 3.94026L52.5871 4.91775ZM48.3448 9.20315L48.594 8.23469L48.5291 8.21799L48.4625 8.2101L48.3448 9.20315ZM47.7624 3.87634L47.9734 2.89885L47.9012 2.88327L47.8276 2.87846L47.7624 3.87634ZM43.8141 3.61864L43.8793 2.62076L43.8373 2.61802L43.7953 2.61881L43.8141 3.61864ZM43.2039 8.71936L43.2752 7.7219L43.2026 7.71672L43.1301 7.72209L43.2039 8.71936ZM37.8727 9.20315L37.767 8.20874L37.7032 8.21552L37.6409 8.23039L37.8727 9.20315ZM38.3777 3.72088L38.3589 2.72106L38.2219 2.72363L38.0907 2.76294L38.3777 3.72088ZM33.5116 5.17866L33.2247 4.22072L33.2024 4.2274L33.1804 4.23511L33.5116 5.17866ZM33.5116 10.2426L33.2798 9.26982L33.1943 9.29019L33.1137 9.32517L33.5116 10.2426ZM28.542 6.92317L28.2108 5.97962L28.1125 6.01415L28.0233 6.06822L28.542 6.92317ZM29.7806 11.861L29.3827 10.9436L29.3204 10.9706L29.2623 11.0058L29.7806 11.861ZM26.639 13.765L26.1207 12.9098L26.0753 12.9374L26.033 12.9696L26.639 13.765ZM22.148 11.144L21.5634 10.3326L21.5207 10.3634L21.4815 10.3985L22.148 11.144ZM20.142 12.9376L19.4755 12.1921L19.4487 12.216L19.4238 12.2418L20.142 12.9376ZM22.9262 16.8114L22.2618 16.064L22.2202 16.101L22.1829 16.1425L22.9262 16.8114ZM17.0255 16.155L16.3072 15.4593L16.2574 15.5107L16.2154 15.5687L17.0255 16.155ZM25.1483 8.98223L24.6295 8.12728L24.5957 8.14779L24.5637 8.1709L25.1483 8.98223ZM19.5942 20.7147L18.8169 20.0855L18.7744 20.1379L18.7394 20.1957L19.5942 20.7147ZM13.5808 21.29L12.7329 20.7598L12.6981 20.8155L12.6709 20.8752L13.5808 21.29ZM15.3063 18.5303L14.4962 17.9439L14.4764 17.9714L14.4584 18.0001L15.3063 18.5303ZM12.1452 24.4391L11.2353 24.0243L11.2153 24.0681L11.1997 24.1136L12.1452 24.4391ZM17.0237 25.3795L16.1209 24.9496L16.1071 24.9784L16.0953 25.0081L17.0237 25.3795ZM15.5957 29.3779L14.6428 29.0747L14.626 29.1275L14.6152 29.1818L15.5957 29.3779ZM10.7957 28.3589L9.85017 28.0334L9.82893 28.095L9.81589 28.159L10.7957 28.3589ZM10.1504 31.5211L9.17062 31.3212L9.15974 31.3745L9.15471 31.4287L10.1504 31.5211ZM14.8341 34.138L13.8412 34.0188L13.8341 34.0782L13.8341 34.138L14.8341 34.138ZM9.90987 34.1132L8.91415 34.0207L8.91063 34.0586L8.91 34.0966L9.90987 34.1132ZM9.85254 37.5736L8.85268 37.557L8.85162 37.621L8.85872 37.6846L9.85254 37.5736ZM14.8341 37.47L13.8341 37.47L13.8341 37.5153L13.8382 37.5605L14.8341 37.47ZM10.1967 40.656L9.20292 40.767L9.20979 40.8286L9.22421 40.8888L10.1967 40.656ZM15.1197 40.6116L14.1238 40.7021L14.1308 40.7791L14.1496 40.8541L15.1197 40.6116ZM15.8813 43.658L14.9112 43.9006L14.9254 43.9573L14.946 44.0119L15.8813 43.658ZM11.3982 45.6757L10.4256 45.9085L10.4463 45.9948L10.4818 46.0761L11.3982 45.6757ZM17.2141 47.1805L16.2789 47.5344L16.3006 47.5918L16.3292 47.6462L17.2141 47.1805ZM13.3023 50.034L12.3859 50.4343L12.3951 50.4555L12.4054 50.4762L13.3023 50.034ZM19.2134 50.6077L18.3738 51.1509L18.3786 51.1584L18.3835 51.1657L19.2134 50.6077ZM14.4495 52.3605L15.39 52.7002L15.5346 52.3L15.3464 51.9183L14.4495 52.3605ZM14.0352 53.5075L14.9682 53.8675L14.9721 53.8574L14.9758 53.8472L14.0352 53.5075ZM13.0028 56.1825L12.0699 55.8225L12.0659 55.8326L12.0622 55.8428L13.0028 56.1825ZM19.9816 51.7501L20.8224 51.2089L20.817 51.2004L20.8114 51.1921L19.9816 51.7501ZM18.6336 56.2758L17.6915 55.9405L17.6874 55.952L17.6836 55.9637L18.6336 56.2758ZM19.499 53.8445L18.5606 53.4988L18.5569 53.5092L19.499 53.8445ZM20.1654 52.0357L21.1037 52.3814L21.276 51.9137L21.0063 51.4945L20.1654 52.0357ZM16.9687 61.3441L17.8504 61.8158L17.8915 61.739L17.9187 61.6562L16.9687 61.3441ZM10.7244 62.4906L11.6649 62.8303L10.7244 62.4906ZM8.13529 69.6589L7.19476 69.3192L6.54981 71.1048L8.38714 70.6267L8.13529 69.6589ZM10.2194 69.1165L10.4712 70.0843L10.5046 70.0756L10.5373 70.0647L10.2194 69.1165ZM13.4984 68.0171L13.225 67.0552L13.2026 67.0615L13.1805 67.069L13.4984 68.0171ZM16.7647 61.7253L15.883 61.2536L14.8373 63.2083L16.9947 62.6985L16.7647 61.7253ZM19.0464 61.1862L19.2763 62.1594L19.308 62.152L19.3391 62.1424L19.0464 61.1862ZM23.2177 59.9093L22.9456 58.947L22.9353 58.9499L22.925 58.9531L23.2177 59.9093ZM27.4958 58.6998L28.013 57.8439L27.6415 57.6194L27.2238 57.7375L27.4958 58.6998ZM28.8565 59.5219L28.3394 60.3778L28.3735 60.3984L28.4091 60.4162L28.8565 59.5219ZM26.6036 64.2921L27.0437 63.3941L26.6992 63.2253L26.3302 63.3302L26.6036 64.2921ZM41.06 68.4736L40.9512 69.4677L40.9972 69.4727L41.0434 69.4735L41.06 68.4736ZM37.0177 67.9259L36.8533 68.9123L36.8569 68.9129L37.0177 67.9259ZM40.3573 63.1738L40.2286 64.1655L40.2758 64.1716L40.3234 64.1732L40.3573 63.1738ZM36.0639 62.4126L35.7543 63.3635L35.7977 63.3776L35.8423 63.3877L36.0639 62.4126ZM31.9703 61.0798L31.5228 61.9741L31.5896 62.0075L31.6607 62.0306L31.9703 61.0798ZM29.4461 65.6852L29.006 66.5832L29.0313 66.5956L29.0573 66.6065L29.4461 65.6852ZM34.556 67.4044L34.8084 66.4368L34.7938 66.433L34.7791 66.4296L34.556 67.4044ZM35.7366 67.7124L35.4842 68.68L35.5278 68.6914L35.5722 68.6988L35.7366 67.7124ZM38.9886 68.247L38.8278 69.234L38.8538 69.2382L38.8799 69.2411L38.9886 68.247ZM43.9248 68.5211L43.9082 69.5209L43.9487 69.5216L43.9891 69.519L43.9248 68.5211ZM46.7928 68.3763L46.8334 69.3755L46.8773 69.3737L46.9208 69.3681L46.7928 68.3763ZM38.1583 62.8886L37.9367 63.8637L37.9828 63.8742L38.0297 63.8803L38.1583 62.8886ZM43.1087 63.2671L43.0749 64.2665L43.0918 64.2671L43.1087 64.2671L43.1087 63.2671ZM54.5328 61.175L54.8192 62.1331L54.9024 62.1082L54.9801 62.0694L54.5328 61.175ZM67.0993 22.0475L67.9838 21.5808L67.963 21.5415L67.9389 21.5042L67.0993 22.0475ZM58.2457 13.0986L58.8364 12.2917L58.7959 12.2621L58.7527 12.2367L58.2457 13.0986ZM54.5328 11.1946L54.9466 10.2842L54.9224 10.2732L54.8976 10.2635L54.5328 11.1946ZM50.5344 9.76657L50.8402 8.81448L50.8122 8.80546L50.7836 8.79812L50.5344 9.76657ZM45.8696 8.90976L45.9873 7.91671L45.9641 7.91397L45.9408 7.9123L45.8696 8.90976ZM40.6335 8.90976L40.5597 7.91249L40.5437 7.91367L40.5279 7.91536L40.6335 8.90976ZM24.6398 15.2882L24.0338 14.4928L24.0037 14.5157L23.9754 14.5408L24.6398 15.2882ZM21.2126 18.7154L20.4693 18.0465L20.4518 18.0659L20.4353 18.0862L21.2126 18.7154ZM17.9758 23.3803L17.121 22.8613L17.0947 22.9046L17.0729 22.9503L17.9758 23.3803ZM16.2621 27.2835L15.3337 26.9121L15.3202 26.9458L15.3092 26.9803L16.2621 27.2835ZM15.1197 31.7579L14.1391 31.5618L14.1315 31.6001L14.1269 31.6388L15.1197 31.7579ZM18.1662 48.9893L17.2812 49.455L17.3022 49.4948L17.3266 49.5325L18.1662 48.9893ZM46.1676 64.2508L50.033 63.5457L49.6741 61.5781L45.8086 62.2833L46.1676 64.2508ZM50.1362 63.5211L52.9166 62.7018L52.3512 60.7834L49.5709 61.6027L50.1362 63.5211ZM52.5205 66.2494L48.5531 67.1452L48.9936 69.0961L52.961 68.2003L52.5205 66.2494ZM55.7019 65.1773L52.4228 66.2768L53.0586 68.173L56.3377 67.0735L55.7019 65.1773ZM59.0733 63.5509L55.5871 65.2238L56.4524 67.027L59.9386 65.354L59.0733 63.5509ZM61.9712 61.7313L58.9757 63.6046L60.0362 65.3003L63.0317 63.427L61.9712 61.7313ZM64.678 59.5395L61.8737 61.8006L63.1291 63.3576L65.9334 61.0965L64.678 59.5395ZM67.2883 56.7032L64.5717 59.6388L66.0396 60.9972L68.7562 58.0616L67.2883 56.7032ZM56.7521 61.1807L59.513 59.5625L58.5016 57.837L55.7408 59.4553L56.7521 61.1807ZM59.6017 59.5039L61.7913 57.8855L60.6025 56.2772L58.4129 57.8956L59.6017 59.5039ZM61.8371 57.8496L63.5507 56.4215L62.2703 54.8851L60.5567 56.3131L61.8371 57.8496ZM63.6724 56.301L65.2908 54.397L63.767 53.1017L62.1486 55.0057L63.6724 56.301ZM69.2876 54.4452L67.2736 56.7194L68.7709 58.0453L70.7849 55.7711L69.2876 54.4452ZM65.2908 54.397L66.9093 52.4929L65.3854 51.1976L63.767 53.1017L65.2908 54.397ZM70.7333 52.3514L69.2149 54.5377L70.8576 55.6786L72.376 53.4923L70.7333 52.3514ZM66.991 52.3822L68.3238 50.2878L66.6365 49.214L65.3037 51.3084L66.991 52.3822ZM72.1061 49.8646L70.6801 52.437L72.4293 53.4067L73.8553 50.8343L72.1061 49.8646ZM73.3166 47.5088L72.0913 49.8923L73.87 50.8067L75.0953 48.4232L73.3166 47.5088ZM68.3816 50.1836L69.2384 48.3988L67.4354 47.5333L66.5786 49.3181L68.3816 50.1836ZM69.2458 48.3832L69.9122 46.9312L68.0945 46.0969L67.4281 47.5489L69.2458 48.3832ZM73.994 45.701L73.2707 47.612L75.1412 48.3201L75.8645 46.4091L73.994 45.701ZM69.9443 46.8525L70.8656 44.2915L68.9836 43.6145L68.0624 46.1756L69.9443 46.8525ZM74.6007 43.7487L73.9746 45.7575L75.884 46.3526L76.5101 44.3439L74.6007 43.7487ZM75.006 41.8259L74.5774 43.838L76.5335 44.2546L76.9621 42.2426L75.006 41.8259ZM70.891 44.2098L71.6287 41.4337L69.6958 40.9201L68.9581 43.6962L70.891 44.2098ZM75.3266 39.948L74.9984 41.8656L76.9697 42.203L77.2979 40.2854L75.3266 39.948ZM71.6511 41.3262L71.9951 39.0473L70.0175 38.7487L69.6735 41.0276L71.6511 41.3262ZM75.341 38.3699L75.3124 40.1001L77.3121 40.1333L77.3408 38.4031L75.341 38.3699ZM72.0033 38.9751L72.1165 37.5118L70.1225 37.3576L70.0093 38.8209L72.0033 38.9751ZM75.3745 36.3514L75.341 38.3699L77.3408 38.4031L77.3742 36.3845L75.3745 36.3514ZM72.1195 37.4347L72.1195 35.09L70.1195 35.09L70.1195 37.4347L72.1195 37.4347ZM75.4127 34.0444L75.3745 36.3514L77.3742 36.3845L77.4124 34.0775L75.4127 34.0444ZM75.1573 32.2696L75.4218 34.1969L77.4033 33.925L77.1387 31.9977L75.1573 32.2696ZM72.1138 34.983L71.8064 32.1269L69.8179 32.3409L70.1253 35.197L72.1138 34.983ZM74.8023 30.0759L75.1608 32.2932L77.1352 31.974L76.7767 29.7566L74.8023 30.0759ZM71.7979 32.0655L71.4359 29.9478L69.4645 30.2847L69.8265 32.4024L71.7979 32.0655ZM74.2615 27.3106L74.8081 30.108L76.7709 29.7245L76.2244 26.9271L74.2615 27.3106ZM73.1742 24.5804L74.3119 27.4837L76.174 26.754L75.0363 23.8507L73.1742 24.5804ZM71.4042 29.8165L70.3717 26.5303L68.4637 27.1298L69.4962 30.416L71.4042 29.8165ZM71.9656 22.1373L73.2084 24.6578L75.0022 23.7733L73.7593 21.2528L71.9656 22.1373ZM70.3257 26.4111L68.8948 23.3106L67.0789 24.1486L68.5097 27.2491L70.3257 26.4111ZM70.1643 18.8794L71.9872 22.1787L73.7377 21.2115L71.9149 17.9122L70.1643 18.8794ZM68.602 16.8622L70.2463 19.0047L71.8329 17.787L70.1886 15.6445L68.602 16.8622ZM66.8304 19.8012L65.1004 17.6567L63.5438 18.9124L65.2738 21.0569L66.8304 19.8012ZM66.6169 14.6802L68.6548 16.9254L70.1357 15.5812L68.0978 13.336L66.6169 14.6802ZM65.0395 17.5878L62.9614 15.4483L61.5267 16.8417L63.6048 18.9813L65.0395 17.5878ZM64.6889 12.6444L66.6312 14.6957L68.0835 13.3206L66.1412 11.2693L64.6889 12.6444ZM62.86 15.3572L60.4591 13.4804L59.2273 15.0561L61.6282 16.9329L62.86 15.3572ZM61.2106 10.1066L64.8227 12.7625L66.0075 11.1512L62.3953 8.4953L61.2106 10.1066ZM58.7321 8.56978L61.2751 10.1503L62.3308 8.45164L59.7878 6.87113L58.7321 8.56978ZM55.6927 7.12908L58.83 8.62329L59.69 6.81763L56.5527 5.32342L55.6927 7.12908ZM52.24 5.85558L55.7756 7.16409L56.4698 5.28842L52.9341 3.97991L52.24 5.85558ZM47.5514 4.85382L52.3761 5.89523L52.798 3.94026L47.9734 2.89885L47.5514 4.85382ZM43.749 4.61651L47.6973 4.87421L47.8276 2.87846L43.8793 2.62076L43.749 4.61651ZM38.3965 4.7207L43.8329 4.61846L43.7953 2.61881L38.3589 2.72106L38.3965 4.7207ZM33.7986 6.1366L38.6646 4.67882L38.0907 2.76294L33.2247 4.22072L33.7986 6.1366ZM37.6409 8.23039L33.2798 9.26982L33.7435 11.2153L38.1046 10.1759L37.6409 8.23039ZM28.8733 7.86672L33.8429 6.12221L33.1804 4.23511L28.2108 5.97962L28.8733 7.86672ZM33.1137 9.32517L29.3827 10.9436L30.1786 12.7784L33.9096 11.16L33.1137 9.32517ZM29.2623 11.0058L26.1207 12.9098L27.1573 14.6202L30.2989 12.7162L29.2623 11.0058ZM20.8086 13.683L22.8146 11.8894L21.4815 10.3985L19.4755 12.1921L20.8086 13.683ZM17.7438 16.8508L20.8603 13.6333L19.4238 12.2418L16.3072 15.4593L17.7438 16.8508ZM22.7326 11.9553L25.7328 9.79357L24.5637 8.1709L21.5634 10.3326L22.7326 11.9553ZM25.667 9.83718L29.0607 7.77812L28.0233 6.06822L24.6295 8.12728L25.667 9.83718ZM14.4287 21.8202L16.1542 19.0604L14.4584 18.0001L12.7329 20.7598L14.4287 21.8202ZM16.1164 19.1166L17.8356 16.7413L16.2154 15.5687L14.4962 17.9439L16.1164 19.1166ZM13.0551 24.8539L14.4907 21.7048L12.6709 20.8752L11.2353 24.0243L13.0551 24.8539ZM11.7412 28.6844L13.0907 24.7647L11.1997 24.1136L9.85017 28.0334L11.7412 28.6844ZM11.1302 31.7211L11.7755 28.5588L9.81589 28.159L9.17062 31.3212L11.1302 31.7211ZM10.9056 34.2056L11.1462 31.6135L9.15471 31.4287L8.91415 34.0207L10.9056 34.2056ZM10.8524 37.5901L10.9097 34.1297L8.91 34.0966L8.85268 37.557L10.8524 37.5901ZM13.8341 34.138L13.8341 37.47L15.8341 37.47L15.8341 34.138L13.8341 34.138ZM11.1906 40.5451L10.8464 37.4626L8.85872 37.6846L9.20292 40.767L11.1906 40.5451ZM13.8382 37.5605L14.1238 40.7021L16.1156 40.5211L15.83 37.3795L13.8382 37.5605ZM14.1496 40.8541L14.9112 43.9006L16.8515 43.4155L16.0899 40.3691L14.1496 40.8541ZM12.3707 45.4429L11.1693 40.4233L9.22421 40.8888L10.4256 45.9085L12.3707 45.4429ZM14.946 44.0119L16.2789 47.5344L18.1494 46.8266L16.8166 43.3041L14.946 44.0119ZM14.2186 49.6336L12.3145 45.2753L10.4818 46.0761L12.3859 50.4343L14.2186 49.6336ZM15.3464 51.9183L14.1991 49.5917L12.4054 50.4762L13.5526 52.8028L15.3464 51.9183ZM14.9758 53.8472L15.39 52.7002L13.509 52.0208L13.0947 53.1677L14.9758 53.8472ZM13.9357 56.5426L14.9682 53.8675L13.1023 53.1474L12.0699 55.8225L13.9357 56.5426ZM18.3835 51.1657L19.1517 52.3081L20.8114 51.1921L20.0432 50.0497L18.3835 51.1657ZM18.5569 53.5092L17.6915 55.9405L19.5757 56.6111L20.4411 54.1798L18.5569 53.5092ZM19.1407 52.2913L19.3245 52.5769L21.0063 51.4945L20.8224 51.2089L19.1407 52.2913ZM19.227 51.69L18.5606 53.4988L20.4373 54.1902L21.1037 52.3814L19.227 51.69ZM17.6836 55.9637L16.0186 61.032L17.9187 61.6562L19.5837 56.5879L17.6836 55.9637ZM11.6649 62.8303L13.9433 56.5222L12.0622 55.8428L9.78385 62.1509L11.6649 62.8303ZM9.07582 69.9986L11.6649 62.8303L9.78385 62.1509L7.19476 69.3192L9.07582 69.9986ZM9.96751 68.1488L7.88343 68.6912L8.38714 70.6267L10.4712 70.0843L9.96751 68.1488ZM13.1805 67.069L9.90146 68.1684L10.5373 70.0647L13.8163 68.9652L13.1805 67.069ZM16.0869 60.8724L15.883 61.2536L17.6465 62.1971L17.8504 61.8158L16.0869 60.8724ZM16.9947 62.6985L19.2763 62.1594L18.8164 60.213L16.5348 60.7521L16.9947 62.6985ZM19.3391 62.1424L23.5104 60.8655L22.925 58.9531L18.7536 60.23L19.3391 62.1424ZM23.4898 60.8715L27.7679 59.662L27.2238 57.7375L22.9456 58.947L23.4898 60.8715ZM26.9787 59.5557L28.3394 60.3778L29.3737 58.666L28.013 57.8439L26.9787 59.5557ZM26.3302 63.3302L13.225 67.0552L13.7718 68.979L26.877 65.2539L26.3302 63.3302ZM31.6607 62.0306L35.7543 63.3635L36.3735 61.4617L32.2798 60.1289L31.6607 62.0306ZM28.4091 60.4162L31.5228 61.9741L32.4177 60.1855L29.304 58.6276L28.4091 60.4162ZM32.6806 65.9648L29.8349 64.7639L29.0573 66.6065L31.903 67.8075L32.6806 65.9648ZM29.8862 64.7873L27.0437 63.3941L26.1635 65.19L29.006 66.5832L29.8862 64.7873ZM34.7791 66.4296L32.515 65.9114L32.0687 67.8609L34.3328 68.3792L34.7791 66.4296ZM37.1821 66.9395L35.901 66.726L35.5722 68.6988L36.8533 68.9123L37.1821 66.9395ZM35.9891 66.7448L34.8084 66.4368L34.3035 68.372L35.4842 68.68L35.9891 66.7448ZM41.1687 67.4796L39.0974 67.2529L38.8799 69.2411L40.9512 69.4677L41.1687 67.4796ZM39.1494 67.26L37.1785 66.9389L36.8569 68.9129L38.8278 69.234L39.1494 67.26ZM42.9535 67.5049L41.0765 67.4738L41.0434 69.4735L42.9204 69.5046L42.9535 67.5049ZM45.0475 67.4467L43.8605 67.5232L43.9891 69.519L45.1761 69.4425L45.0475 67.4467ZM43.9414 67.5212L42.9535 67.5049L42.9204 69.5046L43.9082 69.5209L43.9414 67.5212ZM48.6453 67.1289L46.6648 67.3845L46.9208 69.3681L48.9013 69.1124L48.6453 67.1289ZM46.7522 67.3771L45.0712 67.4454L45.1524 69.4438L46.8334 69.3755L46.7522 67.3771ZM35.8423 63.3877L37.9367 63.8637L38.3799 61.9135L36.2855 61.4374L35.8423 63.3877ZM38.0297 63.8803L40.2286 64.1655L40.4859 62.1821L38.2869 61.8969L38.0297 63.8803ZM40.3234 64.1732L43.0749 64.2665L43.1426 62.2676L40.3911 62.1744L40.3234 64.1732ZM43.1087 64.2671L45.9881 64.2671L45.9881 62.2671L43.1087 62.2671L43.1087 64.2671ZM52.9203 62.7007L54.8192 62.1331L54.2464 60.2169L52.3475 60.7845L52.9203 62.7007ZM54.9801 62.0694L56.6937 61.2124L55.7992 59.4236L54.0855 60.2806L54.9801 62.0694ZM68.8713 23.263L67.9838 21.5808L66.2149 22.5141L67.1024 24.1963L68.8713 23.263ZM67.9389 21.5042L66.8917 19.8858L65.2126 20.9723L66.2598 22.5907L67.9389 21.5042ZM60.434 13.4614L58.8364 12.2917L57.6549 13.9055L59.2525 15.0751L60.434 13.4614ZM58.7527 12.2367L57.1343 11.2847L56.1202 13.0085L57.7386 13.9605L58.7527 12.2367ZM57.0411 11.2362L54.9466 10.2842L54.119 12.1049L56.2134 13.057L57.0411 11.2362ZM54.8976 10.2635L52.8611 9.46564L52.1315 11.3278L54.1681 12.1257L54.8976 10.2635ZM52.8021 9.44465L50.8402 8.81448L50.2286 10.7187L52.1905 11.3488L52.8021 9.44465ZM50.7836 8.79812L48.594 8.23469L48.0956 10.1716L50.2852 10.735L50.7836 8.79812ZM48.4625 8.2101L45.9873 7.91671L45.7519 9.90281L48.2271 10.1962L48.4625 8.2101ZM45.9408 7.9123L43.2752 7.7219L43.1327 9.71682L45.7983 9.90722L45.9408 7.9123ZM43.1301 7.72209L40.5597 7.91249L40.7074 9.90703L43.2778 9.71663L43.1301 7.72209ZM40.5279 7.91536L37.767 8.20874L37.9784 10.1975L40.7392 9.90416L40.5279 7.91536ZM26.033 12.9696L24.0338 14.4928L25.2458 16.0836L27.2451 14.5604L26.033 12.9696ZM23.9754 14.5408L22.2618 16.064L23.5906 17.5588L25.3042 16.0356L23.9754 14.5408ZM22.1829 16.1425L20.4693 18.0465L21.9559 19.3844L23.6695 17.4804L22.1829 16.1425ZM20.4353 18.0862L18.8169 20.0855L20.3714 21.3439L21.9898 19.3446L20.4353 18.0862ZM18.7394 20.1957L17.121 22.8613L18.8305 23.8993L20.449 21.2336L18.7394 20.1957ZM17.0729 22.9503L16.1209 24.9496L17.9266 25.8094L18.8786 23.8102L17.0729 22.9503ZM16.0953 25.0081L15.3337 26.9121L17.1906 27.6549L17.9522 25.7509L16.0953 25.0081ZM15.3092 26.9803L14.6428 29.0747L16.5487 29.6811L17.2151 27.5867L15.3092 26.9803ZM14.6152 29.1818L14.1391 31.5618L16.1003 31.9541L16.5763 29.574L14.6152 29.1818ZM14.1269 31.6388L13.8412 34.0188L15.827 34.2571L16.1126 31.8771L14.1269 31.6388ZM16.3292 47.6462L17.2812 49.455L19.0511 48.5235L18.0991 46.7147L16.3292 47.6462ZM17.3266 49.5325L18.3738 51.1509L20.0529 50.0644L19.0057 48.446L17.3266 49.5325Z" fill="#C284E6" mask="url(#path-3-outside-1_28_106)"/>
</g>
<path d="M70.6582 35.7019C70.6582 50.6304 58.9233 62.9039 43.6452 62.9039C28.336 62.9039 15.2993 50.5998 15.2993 35.7019C15.2993 20.7934 27.6805 8.68749 42.9788 8.68749C58.277 8.68749 70.6582 20.7934 70.6582 35.7019Z" fill="url(#paint3_linear_28_106)" stroke="#BC84E7"/>
<g filter="url(#filter1_f_28_106)">
<path d="M39.6467 38.1756L41.5508 39.794L43.3596 41.1269L45.1684 41.9837L46.2156 42.5549L47.2628 42.9357L47.7388 42.7453L48.4052 42.0789L48.9764 41.3173L50.214 39.794L51.3564 38.4612L55.6405 40.5556L59.2581 42.3645V43.5069V44.4589L59.0677 45.4109L58.6869 46.4581L57.6397 47.6957L56.2117 48.6477L55.1645 49.2189L53.9268 49.5997L52.2132 49.8853H51.166L49.6428 49.5997L48.5956 49.4093L47.6436 49.1237L45.3588 48.3621L42.5028 47.2197L38.4091 44.4589L36.4099 42.7453L34.0299 40.3652L32.6971 38.6516L30.0315 34.7484L28.9843 32.9396L28.1274 30.9404L27.8418 29.5124L27.7466 27.8939L27.8418 25.5139L28.5082 23.8003L29.2699 22.2771L30.3171 20.9443L31.4595 20.6587H32.6971H33.7443L35.2675 21.2299L35.7435 21.8963L36.2195 22.9435L36.7907 24.2763L37.5523 25.9899L38.3139 27.7987V28.846L38.0283 29.798L37.2667 30.5596L36.3147 31.702L35.7435 32.5588L35.8387 32.9396L36.3147 33.8916L39.6467 38.1756Z" fill="white"/>
</g>
<g filter="url(#filter2_f_28_106)">
<path d="M45.1678 26.8459L46.215 26.9411L47.4527 27.3218L48.5951 28.0835L49.3567 29.0355L50.0231 29.9875L50.4039 30.8443L50.7847 31.7963L50.9751 32.7483L50.9751 33.4147L50.8799 33.8907L50.4991 34.3667L49.9279 34.5571L49.1663 34.3667L48.6903 33.6051L48.4047 32.4627L48.1191 31.3203L47.8335 30.7491L47.3575 30.1779L46.7863 29.6067L46.215 29.2259L45.4535 29.0355L44.5015 28.9403L43.55 28.8456L42.9787 28.3696L42.9787 27.7983L43.3596 27.2271L44.3116 26.8459L45.1678 26.8459Z" fill="white"/>
</g>
<g filter="url(#filter3_f_28_106)">
<path d="M44.6921 21.9922L45.7393 22.1826L46.7865 22.5634L47.6433 22.9442L49.3572 23.7053L51.4514 25.1338L53.3554 27.2282L54.0218 28.4658L54.4978 29.4179L54.8786 30.7507L55.069 31.8931L55.2594 33.6067L55.3546 35.1299L55.2594 35.5107L54.7834 35.7963L54.2122 35.7963L53.7362 35.6059L53.5458 35.1299L53.4506 34.4128L53.165 32.7499L52.689 30.9411L51.4514 28.5611L50.6897 27.4187L49.3569 26.3715L48.2145 25.5146L46.5009 24.5626L45.1681 24.1818L44.1209 23.9914L43.4545 23.8962L42.7881 23.8962L42.5025 23.8962L42.3121 23.8962L42.1217 23.801L41.9313 23.6106L41.7409 23.325L41.7409 23.0394L41.7409 22.7537L41.8361 22.5634L42.0265 22.373L42.2169 22.1826L42.5025 22.0874L42.7881 21.9922L43.4545 21.9922L44.1209 21.9922L44.6921 21.9922Z" fill="white"/>
</g>
<g filter="url(#filter4_f_28_106)">
<path d="M43.6452 17.2313L44.6924 17.3265L45.7395 17.517L48.5004 18.3738L49.9284 18.9449L50.9756 19.6114L52.8796 20.9442L55.0692 22.5627L56.1165 23.705L57.0684 25.0379L58.4012 27.5131L59.4485 30.4642L60.2101 33.8915L60.4005 35.6051L60.4957 37.3187L60.3053 37.6995L60.1149 37.8899L59.7341 38.0803L59.3533 38.0803L58.9725 38.0803L58.6869 37.8899L58.4013 37.5091L58.2109 37.1283L57.6397 33.2251L57.0684 30.2738L55.5453 27.2274L54.0221 25.0379L51.166 22.3722L48.786 20.9442L47.1676 20.1826L45.454 19.7066L44.4068 19.6115L42.8836 19.5161L41.2651 19.4209L40.6939 19.3257L40.3131 19.1353L40.1227 18.9449L40.0275 18.6593L40.0275 18.2785L40.1227 17.8977L40.3131 17.6121L40.5035 17.4218L40.6939 17.3265L40.9795 17.2313L41.3603 17.2313L41.8363 17.2313L42.6932 17.2313L43.6452 17.2313Z" fill="white"/>
</g>
<defs>
<filter id="filter0_dd_28_106" x="0.549812" y="2.61816" width="82.8639" height="80.4868" filterUnits="userSpaceOnUse" color-interpolation-filters="sRGB">
<feFlood flood-opacity="0" result="BackgroundImageFix"/>
<feColorMatrix in="SourceAlpha" type="matrix" values="0 0 0 0 0 0 0 0 0 0 0 0 0 0 0 0 0 0 127 0" result="hardAlpha"/>
<feOffset dy="6"/>
<feGaussianBlur stdDeviation="3"/>
<feComposite in2="hardAlpha" operator="out"/>
<feColorMatrix type="matrix" values="0 0 0 0 0.733333 0 0 0 0 0.376471 0 0 0 0 0.776471 0 0 0 1 0"/>
<feBlend mode="normal" in2="BackgroundImageFix" result="effect1_dropShadow_28_106"/>
<feColorMatrix in="SourceAlpha" type="matrix" values="0 0 0 0 0 0 0 0 0 0 0 0 0 0 0 0 0 0 127 0" result="hardAlpha"/>
<feOffset dy="4"/>
<feGaussianBlur stdDeviation="2"/>
<feComposite in2="hardAlpha" operator="out"/>
<feColorMatrix type="matrix" values="0 0 0 0 0 0 0 0 0 0 0 0 0 0 0 0 0 0 0.25 0"/>
<feBlend mode="normal" in2="effect1_dropShadow_28_106" result="effect2_dropShadow_28_106"/>
<feBlend mode="normal" in="SourceGraphic" in2="effect2_dropShadow_28_106" result="shape"/>
</filter>
<filter id="filter1_f_28_106" x="26.7466" y="19.6587" width="33.5114" height="31.2266" filterUnits="userSpaceOnUse" color-interpolation-filters="sRGB">
<feFlood flood-opacity="0" result="BackgroundImageFix"/>
<feBlend mode="normal" in="SourceGraphic" in2="BackgroundImageFix" result="shape"/>
<feGaussianBlur stdDeviation="0.5" result="effect1_foregroundBlur_28_106"/>
</filter>
<filter id="filter2_f_28_106" x="41.9787" y="25.8457" width="9.99638" height="9.71143" filterUnits="userSpaceOnUse" color-interpolation-filters="sRGB">
<feFlood flood-opacity="0" result="BackgroundImageFix"/>
<feBlend mode="normal" in="SourceGraphic" in2="BackgroundImageFix" result="shape"/>
<feGaussianBlur stdDeviation="0.5" result="effect1_foregroundBlur_28_106"/>
</filter>
<filter id="filter3_f_28_106" x="40.7409" y="20.9922" width="15.6137" height="15.8042" filterUnits="userSpaceOnUse" color-interpolation-filters="sRGB">
<feFlood flood-opacity="0" result="BackgroundImageFix"/>
<feBlend mode="normal" in="SourceGraphic" in2="BackgroundImageFix" result="shape"/>
<feGaussianBlur stdDeviation="0.5" result="effect1_foregroundBlur_28_106"/>
</filter>
<filter id="filter4_f_28_106" x="39.0275" y="16.2314" width="22.4682" height="22.8486" filterUnits="userSpaceOnUse" color-interpolation-filters="sRGB">
<feFlood flood-opacity="0" result="BackgroundImageFix"/>
<feBlend mode="normal" in="SourceGraphic" in2="BackgroundImageFix" result="shape"/>
<feGaussianBlur stdDeviation="0.5" result="effect1_foregroundBlur_28_106"/>
</filter>
<linearGradient id="paint0_linear_28_106" x1="21.1125" y1="58.2563" x2="22.2989" y2="60.8886" gradientUnits="userSpaceOnUse">
<stop stop-color="#B683E8" stop-opacity="0.98"/>
<stop offset="1" stop-color="#B973C2"/>
</linearGradient>
<linearGradient id="paint1_linear_28_106" x1="21.1914" y1="7.01022" x2="65.1701" y2="59.4183" gradientUnits="userSpaceOnUse">
<stop offset="0.0277772" stop-color="#CE9FF2"/>
<stop offset="1" stop-color="#BF5CC1"/>
</linearGradient>
<linearGradient id="paint2_linear_28_106" x1="22.0694" y1="9.86177" x2="64.7367" y2="61.2697" gradientUnits="userSpaceOnUse">
<stop offset="0.0277772" stop-color="#917CEA"/>
<stop offset="1" stop-color="#BF5CC1"/>
</linearGradient>
<linearGradient id="paint3_linear_28_106" x1="27.866" y1="12.5569" x2="55.3473" y2="59.2694" gradientUnits="userSpaceOnUse">
<stop stop-color="#8C7FEE"/>
<stop offset="1" stop-color="#DF86E1"/>
</linearGradient>
</defs>
</svg>
