<svg width="32" height="81" viewBox="0 0 32 81" fill="none" xmlns="http://www.w3.org/2000/svg">
<mask id="path-1-outside-1_337_7449" maskUnits="userSpaceOnUse" x="-1" y="-1.99994" width="34" height="84" fill="black">
<rect fill="white" x="-1" y="-1.99994" width="34" height="84"/>
<path d="M16.8785 80.3001V16.4001L3.67852 23.4001L0.378516 17.8001L17.4785 5.88894e-05L31.3785 3.00006L29.3785 78.4001L16.8785 80.3001Z"/>
</mask>
<path d="M16.8785 80.3001H15.8785V81.4635L17.0288 81.2887L16.8785 80.3001ZM16.8785 16.4001H17.8785V14.7378L16.41 15.5166L16.8785 16.4001ZM3.67852 23.4001L2.81698 23.9077L3.30237 24.7314L4.14702 24.2835L3.67852 23.4001ZM0.378516 17.8001L-0.342628 17.1073L-0.868111 17.6543L-0.483022 18.3077L0.378516 17.8001ZM17.4785 5.88894e-05L17.6895 -0.977434L17.144 -1.09517L16.7574 -0.692726L17.4785 5.88894e-05ZM31.3785 3.00006L32.3782 3.02657L32.4002 2.19753L31.5895 2.02256L31.3785 3.00006ZM29.3785 78.4001L29.5288 79.3887L30.356 79.263L30.3782 78.4266L29.3785 78.4001ZM17.8785 80.3001V16.4001H15.8785V80.3001H17.8785ZM16.41 15.5166L3.21001 22.5166L4.14702 24.2835L17.347 17.2835L16.41 15.5166ZM4.54006 22.8924L1.24005 17.2924L-0.483022 18.3077L2.81698 23.9077L4.54006 22.8924ZM1.09966 18.4928L18.1997 0.692844L16.7574 -0.692726L-0.342628 17.1073L1.09966 18.4928ZM17.2675 0.977552L31.1675 3.97755L31.5895 2.02256L17.6895 -0.977434L17.2675 0.977552ZM30.3789 2.97354L28.3789 78.3735L30.3782 78.4266L32.3782 3.02657L30.3789 2.97354ZM29.2282 77.4114L16.7282 79.3114L17.0288 81.2887L29.5288 79.3887L29.2282 77.4114Z" fill="url(#paint0_linear_337_7449)" mask="url(#path-1-outside-1_337_7449)"/>
<defs>
<linearGradient id="paint0_linear_337_7449" x1="20" y1="23.0001" x2="20" y2="47.0001" gradientUnits="userSpaceOnUse">
<stop stop-color="#67CEEF"/>
<stop offset="1" stop-color="#1641EC"/>
</linearGradient>
</defs>
</svg>
