<svg width="57" height="80" viewBox="0 0 57 80" fill="none" xmlns="http://www.w3.org/2000/svg">
<mask id="path-1-outside-1_337_7444" maskUnits="userSpaceOnUse" x="-1" y="-1" width="59" height="82" fill="black">
<rect fill="white" x="-1" y="-1" width="59" height="82"/>
<path d="M2.87852 80L0.778516 70.4C9.57852 62.3333 16.9452 55.4333 22.8785 49.7C28.8119 43.9667 33.2452 38.9333 36.1785 34.6C39.1785 30.2 40.6785 26.0667 40.6785 22.2C40.6785 18.5333 39.6119 15.6667 37.4785 13.6C35.4119 11.5333 32.3118 10.5 28.1785 10.5C24.5119 10.5 21.1119 11.4333 17.9785 13.3C14.9119 15.1667 12.4785 17.8333 10.6785 21.3L3.27852 17.5C4.14518 14.3 5.71185 11.4 7.97852 8.8C10.2452 6.13333 13.1452 4.03333 16.6785 2.5C20.2785 0.899997 24.4452 0.0999975 29.1785 0.0999975C37.8452 0.0999975 44.3452 2.03333 48.6785 5.89999C53.0119 9.7 55.1785 14.8333 55.1785 21.3C55.1785 25.4333 54.2785 29.3667 52.4785 33.1C50.6785 36.7667 48.0119 40.4667 44.4785 44.2C41.0119 47.8667 36.7119 51.7667 31.5785 55.9C26.4452 60.0333 20.5452 64.6667 13.8785 69.8L56.3785 67.1V80H2.87852Z"/>
</mask>
<path d="M2.87852 80L1.90162 80.2137L2.07362 81H2.87852V80ZM0.778515 70.4L0.102791 69.6628L-0.321335 70.0516L-0.198383 70.6137L0.778515 70.4ZM22.8785 49.7L23.5734 50.4191L22.8785 49.7ZM36.1785 34.6L35.3523 34.0367L35.3504 34.0394L36.1785 34.6ZM37.4785 13.6L36.7714 14.3071L36.777 14.3127L36.7827 14.3182L37.4785 13.6ZM17.9785 13.3L17.4667 12.4409L17.4586 12.4458L17.9785 13.3ZM10.6785 21.3L10.2217 22.1896L11.1073 22.6443L11.566 21.7608L10.6785 21.3ZM3.27851 17.5L2.31329 17.2386L2.1017 18.0198L2.82171 18.3896L3.27851 17.5ZM7.97852 8.8L8.73235 9.45718L8.74046 9.44765L7.97852 8.8ZM16.6785 2.5L17.0766 3.41737L17.0847 3.4138L16.6785 2.5ZM48.6785 5.89999L48.0127 6.64616L48.0192 6.65186L48.6785 5.89999ZM52.4785 33.1L53.3762 33.5407L53.3793 33.5343L52.4785 33.1ZM44.4785 44.2L43.7522 43.5126L43.7519 43.513L44.4785 44.2ZM31.5785 55.9L30.9514 55.1211L31.5785 55.9ZM13.8785 69.8L13.2684 69.0077L10.6737 71.0056L13.9419 70.798L13.8785 69.8ZM56.3785 67.1H57.3785V66.0345L56.3151 66.102L56.3785 67.1ZM56.3785 80V81H57.3785V80H56.3785ZM3.85542 79.7863L1.75542 70.1863L-0.198383 70.6137L1.90162 80.2137L3.85542 79.7863ZM1.45424 71.1371C10.2581 63.0669 17.6317 56.1606 23.5734 50.4191L22.1836 48.9809C16.2587 54.7061 8.8989 61.5997 0.102791 69.6628L1.45424 71.1371ZM23.5734 50.4191C29.5315 44.6618 34.0189 39.5742 37.0066 35.1606L35.3504 34.0394C32.4714 38.2925 28.0922 43.2715 22.1836 48.9809L23.5734 50.4191ZM37.0047 35.1633C40.0765 30.6581 41.6785 26.3304 41.6785 22.2H39.6785C39.6785 25.8029 38.2806 29.7419 35.3523 34.0367L37.0047 35.1633ZM41.6785 22.2C41.6785 18.3303 40.5458 15.1792 38.1743 12.8818L36.7827 14.3182C38.6779 16.1541 39.6785 18.7364 39.6785 22.2H41.6785ZM38.1856 12.8929C35.8653 10.5725 32.466 9.5 28.1785 9.5V11.5C32.1577 11.5 34.9584 12.4941 36.7714 14.3071L38.1856 12.8929ZM28.1785 9.5C24.3327 9.5 20.7557 10.4815 17.4667 12.4409L18.4903 14.1591C21.468 12.3852 24.691 11.5 28.1785 11.5V9.5ZM17.4586 12.4458C14.2221 14.4158 11.6676 17.225 9.79102 20.8392L11.566 21.7608C13.2894 18.4416 15.6016 15.9175 18.4985 14.1542L17.4586 12.4458ZM11.1353 20.4104L3.73532 16.6104L2.82171 18.3896L10.2217 22.1896L11.1353 20.4104ZM4.24374 17.7614C5.06919 14.7136 6.56103 11.9477 8.73229 9.45714L7.22474 8.14287C4.86267 10.8523 3.22117 13.8864 2.31329 17.2386L4.24374 17.7614ZM8.74046 9.44765C10.8984 6.90884 13.6693 4.896 17.0766 3.41734L16.2804 1.58266C12.6211 3.17067 9.59193 5.35782 7.21658 8.15234L8.74046 9.44765ZM17.0847 3.4138C20.5337 1.88089 24.5574 1.09999 29.1785 1.09999V-0.900009C24.3329 -0.900009 20.0233 -0.0809021 16.2724 1.58618L17.0847 3.4138ZM29.1785 1.09999C37.7173 1.09999 43.9347 3.00728 48.0127 6.64613L49.3443 5.15385C44.7557 1.05937 37.973 -0.900009 29.1785 -0.900009V1.09999ZM48.0192 6.65186C52.1082 10.2376 54.1785 15.0821 54.1785 21.3H56.1785C56.1785 14.5846 53.9155 9.16243 49.3378 5.14813L48.0192 6.65186ZM54.1785 21.3C54.1785 25.2825 53.3126 29.0674 51.5778 32.6657L53.3793 33.5343C55.2444 29.6659 56.1785 25.5841 56.1785 21.3H54.1785ZM51.5808 32.6593C49.835 36.2158 47.2334 39.8344 43.7522 43.5126L45.2048 44.8874C48.7903 41.0989 51.5221 37.3176 53.3762 33.5407L51.5808 32.6593ZM43.7519 43.513C40.324 47.1386 36.0595 51.0081 30.9514 55.1211L32.2057 56.6789C37.3642 52.5253 41.6997 48.5947 45.2052 44.887L43.7519 43.513ZM30.9514 55.1211C25.825 59.2489 19.9308 63.8776 13.2684 69.0077L14.4886 70.5923C21.1595 65.4557 27.0654 60.8178 32.2057 56.6789L30.9514 55.1211ZM13.9419 70.798L56.4419 68.098L56.3151 66.102L13.8151 68.802L13.9419 70.798ZM55.3785 67.1V80H57.3785V67.1H55.3785ZM56.3785 79H2.87852V81H56.3785V79Z" fill="url(#paint0_linear_337_7444)" mask="url(#path-1-outside-1_337_7444)"/>
<defs>
<linearGradient id="paint0_linear_337_7444" x1="13.5" y1="13" x2="-7.99999" y2="80" gradientUnits="userSpaceOnUse">
<stop stop-color="#67CEEF"/>
<stop offset="1" stop-color="#1641EC"/>
</linearGradient>
</defs>
</svg>
