<svg width="60" height="82" viewBox="0 0 60 82" fill="none" xmlns="http://www.w3.org/2000/svg">
<mask id="path-1-outside-1_337_7445" maskUnits="userSpaceOnUse" x="-1" y="-1" width="62" height="84" fill="black">
<rect fill="white" x="-1" y="-1" width="62" height="84"/>
<path d="M18.9785 43.9L17.0785 35.2C17.9452 35.1333 19.0785 35.0667 20.4785 35C21.8785 34.8667 23.2785 34.7333 24.6785 34.6C26.0785 34.4 27.2118 34.2 28.0785 34C32.2119 33.0667 35.5785 31.6333 38.1785 29.7C40.7785 27.7 42.0785 25 42.0785 21.6C42.0785 18.0667 41.0452 15.2667 38.9785 13.2C36.9785 11.1333 33.7785 10.1 29.3785 10.1C24.9119 10.1 21.2452 11 18.3785 12.8C15.5119 14.6 13.1118 16.9667 11.1785 19.9L3.97852 16.6C4.91185 13.7333 6.47852 11.0667 8.67852 8.6C10.8785 6.06666 13.8118 4.03333 17.4785 2.5C21.2118 0.899997 25.7452 0.0999975 31.0785 0.0999975C36.4119 0.0999975 40.9452 0.999998 44.6785 2.8C48.4785 4.53333 51.3452 6.93333 53.2785 10C55.2785 13 56.2785 16.4 56.2785 20.2C56.2785 24.0667 55.0785 27.7 52.6785 31.1C50.2785 34.5 46.7119 36.7667 41.9785 37.9C45.2452 38.3 48.1785 39.4333 50.7785 41.3C53.4452 43.1667 55.5452 45.5667 57.0785 48.5C58.6785 51.4333 59.4785 54.7 59.4785 58.3C59.4785 65.5667 57.0119 71.3 52.0785 75.5C47.2119 79.7 39.8119 81.8 29.8785 81.8C22.6119 81.8 16.6452 80.3667 11.9785 77.5C7.37852 74.5667 3.64518 70.5 0.778516 65.3L6.27852 59.3C8.81185 63.3667 12.1785 66.4333 16.3785 68.5C20.5785 70.5667 25.0119 71.6 29.6785 71.6C34.4119 71.6 38.2119 70.3333 41.0785 67.8C43.9452 65.2 45.3785 61.8667 45.3785 57.8C45.3785 53.4667 43.9452 50.0667 41.0785 47.6C38.2119 45.1333 34.4119 43.9 29.6785 43.9H18.9785Z"/>
</mask>
<path d="M18.9785 43.9L18.0015 44.1134L18.1733 44.9H18.9785V43.9ZM17.0785 35.2L17.0018 34.2029L15.8564 34.2911L16.1015 35.4134L17.0785 35.2ZM20.4785 35L20.5261 35.9989L20.5497 35.9977L20.5733 35.9955L20.4785 35ZM24.6785 34.6L24.7733 35.5955L24.7967 35.5933L24.8199 35.5899L24.6785 34.6ZM28.0785 34L27.8583 33.0245L27.8537 33.0256L28.0785 34ZM38.1785 29.7L38.7752 30.5025L38.7818 30.4976L38.7882 30.4926L38.1785 29.7ZM38.9785 13.2L38.2599 13.8954L38.2656 13.9013L38.2714 13.9071L38.9785 13.2ZM18.3785 12.8L17.8467 11.9531L17.8467 11.9531L18.3785 12.8ZM11.1785 19.9L10.7619 20.8091L11.5415 21.1664L12.0135 20.4503L11.1785 19.9ZM3.97852 16.6L3.02764 16.2904L2.75176 17.1378L3.56186 17.5091L3.97852 16.6ZM8.67852 8.6L9.42488 9.26567L9.43355 9.25568L8.67852 8.6ZM17.4785 2.5L17.8643 3.42261L17.8724 3.41914L17.4785 2.5ZM44.6785 2.8L44.2442 3.70077L44.2538 3.7054L44.2635 3.70982L44.6785 2.8ZM53.2785 10L52.4326 10.5333L52.4394 10.5441L52.4465 10.5547L53.2785 10ZM52.6785 31.1L53.4955 31.6767L52.6785 31.1ZM41.9785 37.9L41.7457 36.9275L41.857 38.8926L41.9785 37.9ZM50.7785 41.3L50.1953 42.1124L50.2051 42.1192L50.7785 41.3ZM57.0785 48.5L56.1923 48.9633L56.1964 48.9711L56.2006 48.9789L57.0785 48.5ZM52.0785 75.5L51.4303 74.7386L51.4252 74.7429L52.0785 75.5ZM11.9785 77.5L11.4408 78.3432L11.4479 78.3477L11.4551 78.3521L11.9785 77.5ZM0.778516 65.3L0.0413616 64.6243L-0.443996 65.1538L-0.0972256 65.7828L0.778516 65.3ZM6.27852 59.3L7.1273 58.7713L6.43109 57.6537L5.54136 58.6243L6.27852 59.3ZM16.3785 68.5L15.937 69.3973L15.937 69.3973L16.3785 68.5ZM41.0785 67.8L41.7408 68.5494L41.7503 68.5407L41.0785 67.8ZM41.0785 47.6L40.4263 48.358L40.4263 48.358L41.0785 47.6ZM19.9555 43.6866L18.0555 34.9866L16.1015 35.4134L18.0015 44.1134L19.9555 43.6866ZM17.1552 36.1971C18.0082 36.1314 19.1307 36.0653 20.5261 35.9989L20.431 34.0011C19.0263 34.068 17.8822 34.1352 17.0018 34.2029L17.1552 36.1971ZM20.5733 35.9955C20.7511 35.9786 20.9205 35.9624 21.0983 35.9455C21.2761 35.9286 21.4455 35.9124 21.6233 35.8955C21.8011 35.8786 21.9705 35.8624 22.1483 35.8455C22.3261 35.8286 22.4955 35.8124 22.6733 35.7955C23.0955 35.7553 23.3012 35.7357 23.7233 35.6955C24.1455 35.6553 24.3512 35.6357 24.7733 35.5955L24.5837 33.6045C24.4059 33.6214 24.2365 33.6376 24.0587 33.6545C23.8809 33.6714 23.7115 33.6876 23.5337 33.7045C23.3559 33.7214 23.1865 33.7376 23.0087 33.7545C22.8309 33.7714 22.6615 33.7876 22.4837 33.8045C22.0615 33.8447 21.8559 33.8643 21.4337 33.9045C21.0115 33.9447 20.8059 33.9643 20.3837 34.0045L20.5733 35.9955ZM24.8199 35.5899C26.2337 35.388 27.398 35.1833 28.3034 34.9744L27.8537 33.0256C27.0257 33.2167 25.9233 33.412 24.5371 33.61L24.8199 35.5899ZM28.2988 34.9754C32.5283 34.0204 36.0344 32.5405 38.7752 30.5025L37.5818 28.8975C35.1227 30.7261 31.8954 32.1129 27.8583 33.0246L28.2988 34.9754ZM38.7882 30.4926C41.6446 28.2954 43.0785 25.2972 43.0785 21.6H41.0785C41.0785 24.7028 39.9124 27.1046 37.5688 28.9074L38.7882 30.4926ZM43.0785 21.6C43.0785 17.8606 41.9779 14.7852 39.6856 12.4929L38.2714 13.9071C40.1125 15.7482 41.0785 18.2727 41.0785 21.6H43.0785ZM39.6971 12.5046C37.429 10.1608 33.908 9.09999 29.3785 9.09999V11.1C33.6491 11.1 36.5281 12.1058 38.2599 13.8954L39.6971 12.5046ZM29.3785 9.09999C24.7825 9.09999 20.9161 10.0258 17.8467 11.9531L18.9103 13.6469C21.5743 11.9742 25.0412 11.1 29.3785 11.1V9.09999ZM17.8467 11.9531C14.8544 13.832 12.3525 16.3016 10.3436 19.3497L12.0135 20.4503C13.8712 17.6317 16.1693 15.3679 18.9103 13.6469L17.8467 11.9531ZM11.5952 18.9909L4.39517 15.6909L3.56186 17.5091L10.7619 20.8091L11.5952 18.9909ZM4.92939 16.9096C5.81592 14.1867 7.30795 11.6391 9.42481 9.26561L7.93222 7.93438C5.64908 10.4943 4.00778 13.28 3.02764 16.2904L4.92939 16.9096ZM9.43355 9.25568C11.5157 6.8581 14.3136 4.90742 17.8643 3.42258L17.0927 1.57742C13.3101 3.15924 10.2414 5.27522 7.92348 7.94431L9.43355 9.25568ZM17.8724 3.41914C21.4489 1.88637 25.8403 1.1 31.0785 1.1V-0.900002C25.6501 -0.900002 20.9748 -0.0863773 17.0846 1.58085L17.8724 3.41914ZM31.0785 1.1C36.3031 1.1 40.6794 1.98203 44.2442 3.70077L45.1128 1.89923C41.2109 0.0179685 36.5206 -0.900002 31.0785 -0.900002V1.1ZM44.2635 3.70982C47.9139 5.37491 50.6183 7.65539 52.4326 10.5333L54.1244 9.46669C52.0721 6.21127 49.0431 3.69175 45.0935 1.89018L44.2635 3.70982ZM52.4465 10.5547C54.3309 13.3813 55.2785 16.5862 55.2785 20.2H57.2785C57.2785 16.2138 56.2261 12.6187 54.1106 9.44529L52.4465 10.5547ZM55.2785 20.2C55.2785 23.8441 54.152 27.2785 51.8616 30.5233L53.4955 31.6767C56.005 28.1215 57.2785 24.2892 57.2785 20.2H55.2785ZM51.8616 30.5233C49.6249 33.6918 46.2851 35.8406 41.7457 36.9275L42.2114 38.8725C47.1386 37.6927 50.9321 35.3082 53.4955 31.6767L51.8616 30.5233ZM41.857 38.8926C44.962 39.2728 47.7356 40.3464 50.1953 42.1123L51.3617 40.4877C48.6214 38.5203 45.5284 37.3272 42.1001 36.9074L41.857 38.8926ZM50.2051 42.1192C52.7382 43.8924 54.7319 46.1694 56.1923 48.9633L57.9647 48.0367C56.3585 44.9639 54.1522 42.4409 51.352 40.4808L50.2051 42.1192ZM56.2006 48.9789C57.7144 51.754 58.4785 54.854 58.4785 58.3H60.4785C60.4785 54.546 59.6427 51.1126 57.9564 48.0211L56.2006 48.9789ZM58.4785 58.3C58.4785 65.3136 56.1117 70.753 51.4303 74.7386L52.7268 76.2614C57.912 71.847 60.4785 65.8198 60.4785 58.3H58.4785ZM51.4252 74.7429C46.8165 78.7203 39.697 80.8 29.8785 80.8V82.8C39.9267 82.8 47.6072 80.6797 52.7319 76.2571L51.4252 74.7429ZM29.8785 80.8C22.7378 80.8 16.9676 79.3911 12.5019 76.6479L11.4551 78.3521C16.3228 81.3422 22.4859 82.8 29.8785 82.8V80.8ZM12.5162 76.6568C8.0695 73.8213 4.44747 69.884 1.65426 64.8172L-0.0972256 65.7828C2.84289 71.116 6.68753 75.3121 11.4408 78.3432L12.5162 76.6568ZM1.51567 65.9757L7.01567 59.9757L5.54136 58.6243L0.0413616 64.6243L1.51567 65.9757ZM5.42974 59.8287C8.05932 64.0499 11.5654 67.2462 15.937 69.3973L16.82 67.6027C12.7916 65.6205 9.56438 62.6834 7.1273 58.7713L5.42974 59.8287ZM15.937 69.3973C20.2739 71.5313 24.8583 72.6 29.6785 72.6V70.6C25.1654 70.6 20.8831 69.602 16.82 67.6027L15.937 69.3973ZM29.6785 72.6C34.5955 72.6 38.6507 71.28 41.7407 68.5493L40.4163 67.0507C37.773 69.3866 34.2282 70.6 29.6785 70.6V72.6ZM41.7503 68.5407C44.8377 65.7406 46.3785 62.1326 46.3785 57.8H44.3785C44.3785 61.6007 43.0527 64.6594 40.4067 67.0593L41.7503 68.5407ZM46.3785 57.8C46.3785 53.2227 44.8517 49.5274 41.7308 46.842L40.4263 48.358C43.0387 50.6059 44.3785 53.7107 44.3785 57.8H46.3785ZM41.7308 46.842C38.6405 44.1829 34.589 42.9 29.6785 42.9V44.9C34.2347 44.9 37.7832 46.0837 40.4263 48.358L41.7308 46.842ZM29.6785 42.9H18.9785V44.9H29.6785V42.9Z" fill="url(#paint0_linear_337_7445)" mask="url(#path-1-outside-1_337_7445)"/>
<defs>
<linearGradient id="paint0_linear_337_7445" x1="31" y1="24" x2="31" y2="48" gradientUnits="userSpaceOnUse">
<stop stop-color="#67CEEF"/>
<stop offset="1" stop-color="#1641EC"/>
</linearGradient>
</defs>
</svg>
