<svg width="64" height="83" viewBox="0 0 64 83" fill="none" xmlns="http://www.w3.org/2000/svg">
<mask id="path-1-outside-1_337_7446" maskUnits="userSpaceOnUse" x="-1" y="-1" width="66" height="85" fill="black">
<rect fill="white" x="-1" y="-1" width="66" height="85"/>
<path d="M49.6785 67.6L49.2785 80.4L37.3785 82.3V67.6H3.17852L0.178516 57.5C6.31185 49.3667 11.8785 40.4667 16.8785 30.8C21.8785 21.1333 26.5119 11.1667 30.7785 0.899994L45.6785 5.2C40.0119 15.6667 34.3452 25.3333 28.6785 34.2C23.0785 43 17.4785 50.6667 11.8785 57.2L37.3785 56.2V21.2L51.2785 22.2L50.0785 55.7L63.4785 55.2V67.6H49.6785Z"/>
</mask>
<path d="M49.6785 67.6V66.6H48.7093L48.679 67.5688L49.6785 67.6ZM49.2785 80.4L49.4362 81.3875L50.2522 81.2572L50.278 80.4312L49.2785 80.4ZM37.3785 82.3H36.3785V83.4723L37.5362 83.2875L37.3785 82.3ZM37.3785 67.6H38.3785V66.6H37.3785V67.6ZM3.17852 67.6L2.21991 67.8847L2.43236 68.6H3.17852V67.6ZM0.178516 57.5L-0.619911 56.8979L-0.923805 57.3009L-0.780091 57.7847L0.178516 57.5ZM16.8785 30.8L15.9903 30.3406L15.9903 30.3406L16.8785 30.8ZM30.7785 0.899994L31.0558 -0.0607964L30.1978 -0.308407L29.8551 0.516231L30.7785 0.899994ZM45.6785 5.2L46.5579 5.6761L47.1494 4.58366L45.9558 4.23921L45.6785 5.2ZM28.6785 34.2L27.8359 33.6615L27.8349 33.6631L28.6785 34.2ZM11.8785 57.2L11.1193 56.5492L9.62799 58.289L11.9177 58.1992L11.8785 57.2ZM37.3785 56.2L37.4177 57.1992L38.3785 57.1616V56.2H37.3785ZM37.3785 21.2L37.4503 20.2026L36.3785 20.1255V21.2H37.3785ZM51.2785 22.2L52.2779 22.2358L52.3124 21.2718L51.3503 21.2026L51.2785 22.2ZM50.0785 55.7L49.0792 55.6642L49.0406 56.7394L50.1158 56.6993L50.0785 55.7ZM63.4785 55.2H64.4785V54.162L63.4412 54.2007L63.4785 55.2ZM63.4785 67.6V68.6H64.4785V67.6H63.4785ZM48.679 67.5688L48.279 80.3688L50.278 80.4312L50.678 67.6312L48.679 67.5688ZM49.1208 79.4125L37.2209 81.3125L37.5362 83.2875L49.4362 81.3875L49.1208 79.4125ZM38.3785 82.3V67.6H36.3785V82.3H38.3785ZM37.3785 66.6H3.17852V68.6H37.3785V66.6ZM4.13712 67.3153L1.13712 57.2153L-0.780091 57.7847L2.21991 67.8847L4.13712 67.3153ZM0.976942 58.1021C7.14638 49.9209 12.7426 40.9727 17.7667 31.2594L15.9903 30.3406C11.0144 39.9606 5.47731 48.8125 -0.619911 56.8979L0.976942 58.1021ZM17.7667 31.2594C22.7798 21.5675 27.4248 11.5756 31.7019 1.28376L29.8551 0.516231C25.5989 10.7578 20.9772 20.6992 15.9903 30.3406L17.7667 31.2594ZM30.5012 1.86078L45.4012 6.16079L45.9558 4.23921L31.0558 -0.0607964L30.5012 1.86078ZM44.7991 4.7239C39.1425 15.172 33.488 24.8176 27.8359 33.6615L29.5211 34.7385C35.2024 25.8491 40.8812 16.1613 46.5579 5.6761L44.7991 4.7239ZM27.8349 33.6631C22.2551 42.4313 16.6828 50.0584 11.1193 56.5492L12.6378 57.8508C18.2742 51.2749 23.9019 43.5687 29.5222 34.7369L27.8349 33.6631ZM11.9177 58.1992L37.4177 57.1992L37.3393 55.2008L11.8393 56.2008L11.9177 58.1992ZM38.3785 56.2V21.2H36.3785V56.2H38.3785ZM37.3068 22.1974L51.2068 23.1974L51.3503 21.2026L37.4503 20.2026L37.3068 22.1974ZM50.2792 22.1642L49.0792 55.6642L51.0779 55.7358L52.2779 22.2358L50.2792 22.1642ZM50.1158 56.6993L63.5158 56.1993L63.4412 54.2007L50.0412 54.7007L50.1158 56.6993ZM62.4785 55.2V67.6H64.4785V55.2H62.4785ZM63.4785 66.6H49.6785V68.6H63.4785V66.6Z" fill="url(#paint0_linear_337_7446)" mask="url(#path-1-outside-1_337_7446)"/>
<defs>
<linearGradient id="paint0_linear_337_7446" x1="32" y1="25" x2="32" y2="49" gradientUnits="userSpaceOnUse">
<stop stop-color="#67CEEF"/>
<stop offset="1" stop-color="#1641EC"/>
</linearGradient>
</defs>
</svg>
