<svg width="61" height="80" viewBox="0 0 61 80" fill="none" xmlns="http://www.w3.org/2000/svg">
<mask id="path-1-outside-1_337_7447" maskUnits="userSpaceOnUse" x="-1" y="-2" width="63" height="83" fill="black">
<rect fill="white" x="-1" y="-2" width="63" height="83"/>
<path d="M17.9785 12.5L14.7785 32.2L15.0785 32.3C16.4785 30.9667 18.6785 29.7333 21.6785 28.6C24.7452 27.4667 28.2119 26.9 32.0785 26.9C37.0785 26.9 41.7118 27.8 45.9785 29.6C50.3119 31.3333 53.7785 34.0667 56.3785 37.8C58.9785 41.4667 60.2785 46.2333 60.2785 52.1C60.2785 58.1 58.8452 63.1667 55.9785 67.3C53.1119 71.4333 49.3119 74.5667 44.5785 76.7C39.8452 78.7667 34.6785 79.8 29.0785 79.8C21.9452 79.8 15.9452 78.1333 11.0785 74.8C6.21185 71.4667 2.74518 67.1667 0.678516 61.9L7.67852 57.3C9.74518 61.1 12.6785 64.0667 16.4785 66.2C20.2785 68.2667 24.5119 69.3 29.1785 69.3C32.3785 69.3 35.2785 68.6667 37.8785 67.4C40.4785 66.1333 42.5452 64.2333 44.0785 61.7C45.6119 59.1 46.3785 55.9 46.3785 52.1C46.3785 46.6333 44.8118 42.6 41.6785 40C38.5452 37.4 34.7119 36.1 30.1785 36.1C26.9118 36.1 23.7452 36.9667 20.6785 38.7C17.6785 40.3667 15.5452 42.5667 14.2785 45.3L2.57852 42.5L6.07852 -3.09944e-06H20.0785L19.4785 3.2L53.9785 -3.09944e-06V12.5H17.9785Z"/>
</mask>
<path d="M17.9785 12.5V11.5H17.1278L16.9915 12.3397L17.9785 12.5ZM14.7785 32.2L13.7915 32.0397L13.655 32.8796L14.4623 33.1487L14.7785 32.2ZM15.0785 32.3L14.7623 33.2487L15.3327 33.4388L15.7682 33.0241L15.0785 32.3ZM21.6785 28.6L21.3319 27.662L21.3251 27.6645L21.6785 28.6ZM45.9785 29.6L45.5898 30.5214L45.5984 30.525L45.6071 30.5285L45.9785 29.6ZM56.3785 37.8L55.5579 38.3715L55.5628 38.3784L56.3785 37.8ZM44.5785 76.7L44.9787 77.6165L44.9894 77.6117L44.5785 76.7ZM11.0785 74.8L10.5134 75.625L10.5134 75.625L11.0785 74.8ZM0.678516 61.9L0.129338 61.0643L-0.548789 61.5099L-0.252379 62.2653L0.678516 61.9ZM7.67852 57.3L8.557 56.8222L8.03769 55.8674L7.12934 56.4643L7.67852 57.3ZM16.4785 66.2L15.9889 67.0721L16.0007 67.0785L16.4785 66.2ZM37.8785 67.4L37.4405 66.501L37.4405 66.501L37.8785 67.4ZM44.0785 61.7L44.9341 62.2178L44.9399 62.208L44.0785 61.7ZM20.6785 38.7L21.1642 39.5742L21.1706 39.5706L20.6785 38.7ZM14.2785 45.3L14.0458 46.2725L14.8417 46.463L15.1858 45.7205L14.2785 45.3ZM2.57852 42.5L1.58189 42.4179L1.51148 43.2729L2.34577 43.4725L2.57852 42.5ZM6.07852 -3.09944e-06V-1H5.15748L5.08189 -0.0820782L6.07852 -3.09944e-06ZM20.0785 -3.09944e-06L21.0614 0.184285L21.2834 -1H20.0785V-3.09944e-06ZM19.4785 3.2L18.4956 3.01571L18.2514 4.31811L19.5709 4.19572L19.4785 3.2ZM53.9785 -3.09944e-06H54.9785V-1.09705L53.8862 -0.995729L53.9785 -3.09944e-06ZM53.9785 12.5V13.5H54.9785V12.5H53.9785ZM16.9915 12.3397L13.7915 32.0397L15.7656 32.3603L18.9656 12.6603L16.9915 12.3397ZM14.4623 33.1487L14.7623 33.2487L15.3947 31.3513L15.0947 31.2513L14.4623 33.1487ZM15.7682 33.0241C17.0281 31.8242 19.0853 30.6486 22.0319 29.5355L21.3251 27.6645C18.2717 28.818 15.929 30.1091 14.3889 31.5759L15.7682 33.0241ZM22.0252 29.538C24.9626 28.4524 28.309 27.9 32.0785 27.9V25.9C28.1147 25.9 24.5277 26.4809 21.3319 27.662L22.0252 29.538ZM32.0785 27.9C36.9558 27.9 41.4557 28.7773 45.5898 30.5214L46.3672 28.6786C41.968 26.8227 37.2013 25.9 32.0785 25.9V27.9ZM45.6071 30.5285C49.764 32.1912 53.0726 34.8028 55.5579 38.3715L57.1991 37.2285C54.4845 33.3305 50.8597 30.4754 46.3499 28.6715L45.6071 30.5285ZM55.5628 38.3784C58.0111 41.8311 59.2785 46.3777 59.2785 52.1H61.2785C61.2785 46.089 59.946 41.1022 57.1943 37.2216L55.5628 38.3784ZM59.2785 52.1C59.2785 57.9364 57.8865 62.7943 55.1568 66.7301L56.8002 67.8699C59.8039 63.539 61.2785 58.2636 61.2785 52.1H59.2785ZM55.1568 66.7301C52.397 70.7094 48.7411 73.727 44.1676 75.7883L44.9894 77.6117C49.8826 75.4063 53.8267 72.1573 56.8002 67.8699L55.1568 66.7301ZM44.1784 75.7835C39.5816 77.7906 34.5525 78.8 29.0785 78.8V80.8C34.8045 80.8 40.1088 79.7427 44.9787 77.6165L44.1784 75.7835ZM29.0785 78.8C22.104 78.8 16.3117 77.1723 11.6436 73.975L10.5134 75.625C15.5787 79.0944 21.7863 80.8 29.0785 80.8V78.8ZM11.6436 73.975C6.9347 70.7497 3.59969 66.6067 1.60941 61.5347L-0.252379 62.2653C1.89067 67.7266 5.489 72.1836 10.5134 75.625L11.6436 73.975ZM1.22769 62.7357L8.22769 58.1357L7.12934 56.4643L0.129338 61.0643L1.22769 62.7357ZM6.80003 57.7778C8.95736 61.7445 12.0261 64.8472 15.989 67.072L16.9681 65.328C13.3309 63.2861 10.533 60.4555 8.557 56.8222L6.80003 57.7778ZM16.0007 67.0785C19.9588 69.2311 24.3585 70.3 29.1785 70.3V68.3C24.6652 68.3 20.5982 67.3022 16.9563 65.3215L16.0007 67.0785ZM29.1785 70.3C32.5139 70.3 35.5661 69.6389 38.3165 68.299L37.4405 66.501C34.991 67.6944 32.2431 68.3 29.1785 68.3V70.3ZM38.3165 68.299C41.0938 66.946 43.3036 64.9116 44.934 62.2178L43.223 61.1822C41.7868 63.5551 39.8633 65.3207 37.4405 66.501L38.3165 68.299ZM44.9399 62.208C46.5847 59.419 47.3785 56.033 47.3785 52.1H45.3785C45.3785 55.767 44.639 58.781 43.2172 61.192L44.9399 62.208ZM47.3785 52.1C47.3785 46.4441 45.7514 42.0802 42.3171 39.2304L41.0399 40.7696C43.8723 43.1198 45.3785 46.8225 45.3785 52.1H47.3785ZM42.3171 39.2304C38.9837 36.4645 34.9169 35.1 30.1785 35.1V37.1C34.5068 37.1 38.1066 38.3355 41.0399 40.7696L42.3171 39.2304ZM30.1785 35.1C26.726 35.1 23.3911 36.0181 20.1865 37.8294L21.1706 39.5706C24.0993 37.9152 27.0977 37.1 30.1785 37.1V35.1ZM20.1929 37.8258C17.0347 39.5804 14.739 41.9281 13.3712 44.8795L15.1858 45.7205C16.3514 43.2053 18.3224 41.1529 21.1642 39.5742L20.1929 37.8258ZM14.5113 44.3275L2.81126 41.5275L2.34577 43.4725L14.0458 46.2725L14.5113 44.3275ZM3.57514 42.5821L7.07514 0.082072L5.08189 -0.0820782L1.58189 42.4179L3.57514 42.5821ZM6.07852 0.999997H20.0785V-1H6.07852V0.999997ZM19.0956 -0.184292L18.4956 3.01571L20.4614 3.38429L21.0614 0.184285L19.0956 -0.184292ZM19.5709 4.19572L54.0709 0.995723L53.8862 -0.995729L19.3862 2.20427L19.5709 4.19572ZM52.9785 -3.09944e-06V12.5H54.9785V-3.09944e-06H52.9785ZM53.9785 11.5H17.9785V13.5H53.9785V11.5Z" fill="url(#paint0_linear_337_7447)" mask="url(#path-1-outside-1_337_7447)"/>
<defs>
<linearGradient id="paint0_linear_337_7447" x1="30" y1="22" x2="30" y2="46" gradientUnits="userSpaceOnUse">
<stop stop-color="#67CEEF"/>
<stop offset="1" stop-color="#1641EC"/>
</linearGradient>
</defs>
</svg>
