<svg width="61" height="82" viewBox="0 0 61 82" fill="none" xmlns="http://www.w3.org/2000/svg">
<mask id="path-1-outside-1_337_7448" maskUnits="userSpaceOnUse" x="-1" y="-1" width="63" height="84" fill="black">
<rect fill="white" x="-1" y="-1" width="63" height="84"/>
<path d="M51.9785 16.8C50.1118 14.6667 47.6452 13.0333 44.5785 11.9C41.5119 10.7 38.2119 10.1 34.6785 10.1C30.8785 10.1 27.4119 11.1667 24.2785 13.3C21.1452 15.4333 18.6452 18.6333 16.7785 22.9C14.9785 27.1667 14.0785 32.5333 14.0785 39C15.4119 35.9333 17.7785 33.4333 21.1785 31.5C24.6452 29.5667 28.4452 28.6 32.5785 28.6C38.1785 28.6 43.0785 29.5333 47.2785 31.4C51.5452 33.2667 54.8452 36.1 57.1785 39.9C59.5119 43.6333 60.6785 48.4 60.6785 54.2C60.6785 60.0667 59.4119 65.0667 56.8785 69.2C54.4119 73.2667 50.9785 76.4 46.5785 78.6C42.1785 80.7333 37.0785 81.8 31.2785 81.8C25.2785 81.8 19.9452 80.4333 15.2785 77.7C10.6785 74.9667 7.04518 70.7 4.37852 64.9C1.77852 59.0333 0.478516 51.5 0.478516 42.3C0.478516 32.9667 1.94518 25.1667 4.87852 18.9C7.81185 12.6333 11.7785 7.93333 16.7785 4.8C21.7785 1.66666 27.3785 0.0999975 33.5785 0.0999975C39.0452 0.0999975 43.8452 1.03333 47.9785 2.9C52.1785 4.7 55.3785 7.43333 57.5785 11.1L51.9785 16.8ZM15.1785 52.4C15.1785 56.2 15.8785 59.6 17.2785 62.6C18.7452 65.5333 20.6785 67.8667 23.0785 69.6C25.4785 71.3333 28.1119 72.2 30.9785 72.2C35.8452 72.2 39.7452 70.7 42.6785 67.7C45.6119 64.7 47.0785 60.5 47.0785 55.1C47.0785 49.9 45.6452 45.8667 42.7785 43C39.9119 40.0667 36.0118 38.6 31.0785 38.6C27.1452 38.6 23.6785 39.9 20.6785 42.5C17.6785 45.0333 15.8452 48.3333 15.1785 52.4Z"/>
</mask>
<path d="M51.9785 16.8L51.2259 17.4585L51.9361 18.2701L52.6919 17.5008L51.9785 16.8ZM44.5785 11.9L44.2141 12.8312L44.223 12.8347L44.2319 12.838L44.5785 11.9ZM24.2785 13.3L24.8413 14.1266L24.8413 14.1266L24.2785 13.3ZM16.7785 22.9L15.8623 22.4991L15.8572 22.5113L16.7785 22.9ZM14.0785 39H13.0785L14.9956 39.3987L14.0785 39ZM21.1785 31.5L20.6914 30.6266L20.6842 30.6307L21.1785 31.5ZM47.2785 31.4L46.8724 32.3138L46.8777 32.3162L47.2785 31.4ZM57.1785 39.9L56.3263 40.4233L56.3305 40.43L57.1785 39.9ZM56.8785 69.2L56.0259 68.6774L56.0235 68.6814L56.8785 69.2ZM46.5785 78.6L47.0148 79.4999L47.0257 79.4944L46.5785 78.6ZM15.2785 77.7L14.7677 78.5597L14.7731 78.5629L15.2785 77.7ZM4.37852 64.9L3.46419 65.3052L3.46995 65.3177L4.37852 64.9ZM4.87852 18.9L5.78421 19.3239L5.78421 19.3239L4.87852 18.9ZM47.9785 2.9L47.5669 3.81137L47.5757 3.81534L47.5846 3.81914L47.9785 2.9ZM57.5785 11.1L58.2919 11.8008L58.8341 11.2489L58.436 10.5855L57.5785 11.1ZM15.1785 52.4L14.1917 52.2382L14.1785 52.3186V52.4H15.1785ZM17.2785 62.6L16.3723 63.0229L16.378 63.0351L16.3841 63.0472L17.2785 62.6ZM23.0785 69.6L23.664 68.7893L23.664 68.7893L23.0785 69.6ZM42.6785 67.7L43.3935 68.3991L43.3935 68.3991L42.6785 67.7ZM42.7785 43L42.0633 43.699L42.0714 43.7071L42.7785 43ZM20.6785 42.5L21.3238 43.2641L21.3334 43.2557L20.6785 42.5ZM52.7311 16.1415C50.7387 13.8645 48.1241 12.1442 44.9252 10.962L44.2319 12.838C47.1662 13.9224 49.485 15.4688 51.2259 17.4585L52.7311 16.1415ZM44.9429 10.9688C41.7519 9.72009 38.3274 9.09999 34.6785 9.09999V11.1C38.0963 11.1 41.2718 11.6799 44.2141 12.8312L44.9429 10.9688ZM34.6785 9.09999C30.6783 9.09999 27.0154 10.2268 23.7157 12.4734L24.8413 14.1266C27.8083 12.1065 31.0787 11.1 34.6785 11.1V9.09999ZM23.7157 12.4734C20.3948 14.7345 17.7872 18.0996 15.8624 22.4992L17.6947 23.3008C19.5032 19.167 21.8956 16.1322 24.8413 14.1266L23.7157 12.4734ZM15.8572 22.5113C13.989 26.9394 13.0785 32.4491 13.0785 39H15.0785C15.0785 32.6176 15.968 27.3939 17.6999 23.2887L15.8572 22.5113ZM14.9956 39.3987C16.2286 36.5628 18.4279 34.2145 21.6728 32.3693L20.6842 30.6307C17.1292 32.6522 14.5951 35.3039 13.1614 38.6013L14.9956 39.3987ZM21.6656 32.3734C24.9771 30.5266 28.6084 29.6 32.5785 29.6V27.6C28.282 27.6 24.3133 28.6068 20.6914 30.6266L21.6656 32.3734ZM32.5785 29.6C38.0685 29.6 42.825 30.515 46.8724 32.3138L47.6847 30.4862C43.3321 28.5517 38.2886 27.6 32.5785 27.6V29.6ZM46.8777 32.3162C50.9661 34.1049 54.1048 36.8052 56.3263 40.4233L58.0307 39.3767C55.5856 35.3948 52.1242 32.4285 47.6793 30.4838L46.8777 32.3162ZM56.3305 40.43C58.5376 43.9614 59.6785 48.5292 59.6785 54.2H61.6785C61.6785 48.2708 60.4861 43.3053 58.0265 39.37L56.3305 40.43ZM59.6785 54.2C59.6785 59.9211 58.4444 64.7315 56.0259 68.6774L57.7311 69.7226C60.3793 65.4018 61.6785 60.2122 61.6785 54.2H59.6785ZM56.0235 68.6814C53.6581 72.5811 50.3687 75.5869 46.1313 77.7056L47.0257 79.4944C51.5883 77.2131 55.1656 73.9522 57.7335 69.7186L56.0235 68.6814ZM46.1422 77.7002C41.9013 79.7564 36.9553 80.8 31.2785 80.8V82.8C37.2018 82.8 42.4558 81.7102 47.0148 79.4998L46.1422 77.7002ZM31.2785 80.8C25.4362 80.8 20.2809 79.4711 15.7839 76.8371L14.7731 78.5629C19.6094 81.3956 25.1208 82.8 31.2785 82.8V80.8ZM15.7893 76.8403C11.3951 74.2292 7.88573 70.1343 5.28709 64.4823L3.46995 65.3177C6.20463 71.2657 9.96192 75.7041 14.7677 78.5597L15.7893 76.8403ZM5.29276 64.4948C2.76826 58.7985 1.47852 51.4164 1.47852 42.3H-0.521484C-0.521484 51.5836 0.788769 59.2681 3.46428 65.3052L5.29276 64.4948ZM1.47852 42.3C1.47852 33.0647 2.93069 25.4201 5.78421 19.3239L3.97283 18.4761C0.959674 24.9132 -0.521484 32.8686 -0.521484 42.3H1.47852ZM5.78421 19.3239C8.65032 13.2009 12.499 8.66194 17.3095 5.64736L16.2475 3.95263C11.058 7.20472 6.97338 12.0658 3.97283 18.4761L5.78421 19.3239ZM17.3095 5.64736C22.1421 2.61894 27.5564 1.1 33.5785 1.1V-0.900002C27.2007 -0.900002 21.4149 0.714389 16.2475 3.95263L17.3095 5.64736ZM33.5785 1.1C38.9319 1.1 43.5867 2.01385 47.5669 3.81137L48.3901 1.98863C44.1037 0.0528132 39.1585 -0.900002 33.5785 -0.900002V1.1ZM47.5846 3.81914C51.6054 5.54236 54.6368 8.14076 56.721 11.6145L58.436 10.5855C56.1203 6.72591 52.7516 3.85764 48.3724 1.98085L47.5846 3.81914ZM56.8652 10.3992L51.2652 16.0992L52.6919 17.5008L58.2919 11.8008L56.8652 10.3992ZM14.1785 52.4C14.1785 56.3246 14.902 59.8722 16.3723 63.0229L18.1847 62.1771C16.855 59.3278 16.1785 56.0754 16.1785 52.4H14.1785ZM16.3841 63.0472C17.915 66.109 19.9486 68.573 22.493 70.4107L23.664 68.7893C21.4084 67.1603 19.5754 64.9576 18.1729 62.1528L16.3841 63.0472ZM22.493 70.4107C25.0575 72.2628 27.8944 73.2 30.9785 73.2V71.2C28.3293 71.2 25.8996 70.4039 23.664 68.7893L22.493 70.4107ZM30.9785 73.2C36.0676 73.2 40.2417 71.6225 43.3935 68.3991L41.9635 67.0009C39.2486 69.7775 35.6228 71.2 30.9785 71.2V73.2ZM43.3935 68.3991C46.5578 65.163 48.0785 60.6831 48.0785 55.1H46.0785C46.0785 60.3169 44.6659 64.237 41.9635 67.0009L43.3935 68.3991ZM48.0785 55.1C48.0785 49.7133 46.5889 45.3961 43.4856 42.2929L42.0714 43.7071C44.7015 46.3372 46.0785 50.0867 46.0785 55.1H48.0785ZM43.4937 42.3011C40.4015 39.137 36.2224 37.6 31.0785 37.6V39.6C35.8013 39.6 39.4222 40.9964 42.0633 43.6989L43.4937 42.3011ZM31.0785 37.6C26.9021 37.6 23.2035 38.9883 20.0236 41.7443L21.3334 43.2557C24.1535 40.8116 27.3882 39.6 31.0785 39.6V37.6ZM20.0333 41.736C16.8418 44.431 14.8948 47.9492 14.1917 52.2382L16.1653 52.5618C16.7956 48.7175 18.5152 45.6356 21.3237 43.264L20.0333 41.736Z" fill="url(#paint0_linear_337_7448)" mask="url(#path-1-outside-1_337_7448)"/>
<defs>
<linearGradient id="paint0_linear_337_7448" x1="30" y1="24" x2="30" y2="48" gradientUnits="userSpaceOnUse">
<stop stop-color="#67CEEF"/>
<stop offset="1" stop-color="#1641EC"/>
</linearGradient>
</defs>
</svg>
