<svg width="45" height="78" viewBox="0 0 45 78" fill="none" xmlns="http://www.w3.org/2000/svg">
<g filter="url(#filter0_d_26_143)">
<path d="M14.1221 8.1982L16.9249 4.27427L19.3073 2.45245L22.2502 0.980981L25.3333 0.35035L28.2763 0H32.4104L36.8949 0.35035H38.2963V11.5616H30.9389L28.7668 11.982L27.1552 12.7528L26.1742 14.0841L25.6837 15.976L25.4735 20.1101V25.4354H37.9459L36.4745 38.048L25.6837 38.2583V70H12.4404V54.3744L12.7207 38.048H2V25.7157H7.88589H12.5806V16.6066L13.0711 11.3514L14.1221 8.1982Z" fill="url(#paint0_linear_26_143)"/>
<path d="M36.8949 0.85035H37.7963V11.0616H30.9389H30.891L30.8439 11.0707L28.6718 11.4911L28.6088 11.5033L28.551 11.5309L26.9394 12.3017L26.8267 12.3556L26.7526 12.4562L25.7716 13.7875L25.7144 13.8652L25.6902 13.9586L25.1997 15.8505L25.1869 15.8998L25.1843 15.9506L24.9741 20.0847L24.9735 20.0974V20.1101V25.4354V25.9354H25.4735H37.3842L36.0284 37.5566L25.6739 37.7584L25.1837 37.7679V38.2583V69.5H12.9404V54.3787L13.2206 38.0566L13.2294 37.548H12.7207H2.5V26.2157H7.88589H12.5806H13.0806V25.7157V16.6299L13.5636 11.455L14.5727 8.42764L17.2882 4.62591L19.5733 2.87845L22.415 1.45764L25.4131 0.844382L28.3059 0.5H32.3909L36.8559 0.848831L36.8754 0.85035H36.8949Z" stroke="#DF86E1" stroke-opacity="0.57"/>
</g>
<defs>
<filter id="filter0_d_26_143" x="0" y="0" width="44.2963" height="78" filterUnits="userSpaceOnUse" color-interpolation-filters="sRGB">
<feFlood flood-opacity="0" result="BackgroundImageFix"/>
<feColorMatrix in="SourceAlpha" type="matrix" values="0 0 0 0 0 0 0 0 0 0 0 0 0 0 0 0 0 0 127 0" result="hardAlpha"/>
<feOffset dx="2" dy="4"/>
<feGaussianBlur stdDeviation="2"/>
<feComposite in2="hardAlpha" operator="out"/>
<feColorMatrix type="matrix" values="0 0 0 0 0.721569 0 0 0 0 0.760784 0 0 0 0 0.792157 0 0 0 1 0"/>
<feBlend mode="normal" in2="BackgroundImageFix" result="effect1_dropShadow_26_143"/>
<feBlend mode="normal" in="SourceGraphic" in2="effect1_dropShadow_26_143" result="shape"/>
</filter>
<linearGradient id="paint0_linear_26_143" x1="12.5" y1="9.5" x2="21.5" y2="68.5" gradientUnits="userSpaceOnUse">
<stop stop-color="#1A4AE3"/>
<stop offset="1" stop-color="#BF5CC1"/>
</linearGradient>
</defs>
</svg>
