<svg width="68" height="80" viewBox="0 0 68 80" fill="none" xmlns="http://www.w3.org/2000/svg">
<path d="M54.7501 34.3084L54.8386 34.2466L54.7461 34.1913L21.3023 14.2164L26.1352 11.727L63.558 34.4481L49.4788 43.7304L44.8811 41.1982L54.7501 34.3084Z" fill="#104EAB"/>
<path d="M54.5896 50.8054L8.34159 27.4009L12.7877 23.9202L63.8059 48.643L32.2476 70.2314L32.1163 64.6868L54.5896 50.8054Z" fill="#104EAB"/>
<path d="M17.1764 58.3224L36.503 46.6971L42.0128 49.159L17.3268 64.6769L17.1764 58.3224Z" fill="#104EAB"/>
<path d="M12.1372 34.6483L13.0464 73.0545L9.18621 70.7136L8.16211 27.4561L54.5914 50.8054L50.294 53.4994L12.226 34.5863L12.1345 34.5351L12.1372 34.6483Z" fill="#D5D2D2"/>
<path d="M25.705 21.9761L26.4362 52.8612L22.1975 55.2708L21.2266 14.259L54.7162 34.2521L50.9713 36.8398L25.7951 21.9149L25.7022 21.8598L25.705 21.9761Z" fill="#D5D2D2"/>
<path d="M25.7031 21.8406L31.3663 25.1674L31.9444 49.584L26.4983 52.8345L25.7031 21.8406Z" fill="#104EAB"/>
<path d="M63.86 53.8263L27.8658 78.3591L27.5202 63.7597L32.1126 60.7385L32.3349 70.1265L32.4278 70.2801L63.7362 48.5941L63.86 53.8263Z" fill="#075AFA"/>
<path d="M24.6714 76.5183L24.4171 65.7774L27.6401 63.7568L27.9775 78.0066L24.6714 76.5183Z" fill="#B8C2CA"/>
<path d="M17.2178 64.7859L41.4693 49.1717L46 51.4998L13.1668 72.9864L12.2617 34.7571L16.4732 37.0975L17.1273 64.7285L17.13 64.843L17.2178 64.7859Z" fill="#075AFA"/>
<path d="M56.0864 44.9373L51.1215 42.4625L63.4689 34.3933L63.6069 40.2227L56.0864 44.9373Z" fill="#075AFA"/>
</svg>
