<svg aria-hidden="true" style="position: absolute; width: 0; height: 0; overflow: hidden;" version="1.1" xmlns="http://www.w3.org/2000/svg" xmlns:xlink="http://www.w3.org/1999/xlink">
<defs>
<symbol id="icon-1" viewBox="0 0 13 32">
<path d="M6.668 31.724h-0.395v0.46l0.454-0.069-0.059-0.391zM6.668 6.479h0.395v-0.657l-0.58 0.308 0.185 0.349zM1.453 9.244l-0.34 0.201 0.192 0.325 0.334-0.177-0.185-0.349zM0.15 7.032l-0.285-0.274-0.208 0.216 0.152 0.258 0.34-0.201zM6.905 0l0.083-0.386-0.215-0.046-0.153 0.159 0.285 0.274zM12.396 1.185l0.395 0.010 0.009-0.328-0.32-0.069-0.083 0.386zM11.606 30.973l0.059 0.391 0.327-0.050 0.009-0.33-0.395-0.010zM7.063 31.724v-25.244h-0.79v25.244h0.79zM6.483 6.13l-5.215 2.765 0.37 0.698 5.215-2.765-0.37-0.698zM1.794 9.044l-1.304-2.212-0.681 0.401 1.304 2.212 0.681-0.401zM0.434 7.306l6.756-7.032-0.57-0.547-6.756 7.032 0.57 0.547zM6.822 0.386l5.491 1.185 0.167-0.772-5.491-1.185-0.167 0.772zM12.002 1.175l-0.79 29.788 0.79 0.021 0.79-29.788-0.79-0.021zM11.547 30.582l-4.938 0.751 0.119 0.781 4.938-0.751-0.119-0.781z"></path>
</symbol>
<symbol id="icon-2" viewBox="0 0 23 32">
<path d="M1.151 32l-0.391 0.085 0.069 0.315h0.322v-0.4zM0.311 28.16l-0.27-0.295-0.17 0.156 0.049 0.225 0.391-0.085zM9.151 19.88v0zM14.471 13.84l-0.33-0.225-0.001 0.001 0.331 0.224zM14.991 5.44l-0.283 0.283 0.002 0.002 0.002 0.002 0.278-0.287zM7.191 5.32l-0.205-0.344-0.003 0.002 0.208 0.342zM4.271 8.52l-0.183 0.356 0.354 0.182 0.183-0.353-0.355-0.184zM1.311 7l-0.386-0.105-0.085 0.312 0.288 0.148 0.183-0.356zM3.191 3.52l0.302 0.263 0.003-0.004-0.305-0.259zM6.671 1l0.159 0.367 0.003-0.001-0.162-0.366zM19.471 2.36l-0.266 0.298 0.003 0.002 0.264-0.301zM20.991 13.24l0.359 0.176 0.001-0.003-0.36-0.174zM17.791 17.68v0zM12.631 22.36v0zM5.551 27.92l-0.244-0.317-1.038 0.799 1.307-0.083-0.025-0.399zM22.551 26.84h0.4v-0.426l-0.425 0.027 0.025 0.399zM22.551 32v0.4h0.4v-0.4h-0.4zM1.542 31.915l-0.84-3.84-0.782 0.171 0.84 3.84 0.782-0.171zM0.582 28.455c3.522-3.228 6.471-5.991 8.848-8.287l-0.556-0.575c-2.37 2.29-5.314 5.048-8.832 8.273l0.541 0.59zM9.429 20.168c2.383-2.303 4.178-4.338 5.373-6.103l-0.662-0.448c-1.152 1.701-2.903 3.693-5.267 5.977l0.556 0.575zM14.802 14.065c1.229-1.802 1.87-3.533 1.87-5.185h-0.8c0 1.441-0.559 3.017-1.73 4.735l0.661 0.451zM16.671 8.88c0-1.548-0.453-2.808-1.402-3.727l-0.557 0.575c0.758 0.734 1.158 1.767 1.158 3.153h0.8zM15.274 5.157c-0.928-0.928-2.288-1.357-4.003-1.357v0.8c1.592 0 2.712 0.398 3.437 1.123l0.566-0.566zM11.271 3.8c-1.538 0-2.969 0.393-4.285 1.176l0.409 0.687c1.191-0.71 2.48-1.064 3.875-1.064v-0.8zM6.983 4.978c-1.295 0.788-2.316 1.912-3.067 3.357l0.71 0.369c0.689-1.328 1.614-2.337 2.773-3.043l-0.416-0.683zM4.454 8.164l-2.96-1.52-0.365 0.712 2.96 1.52 0.365-0.712zM1.698 7.105c0.33-1.219 0.927-2.325 1.795-3.322l-0.603-0.526c-0.945 1.084-1.601 2.297-1.965 3.638l0.772 0.209zM3.496 3.779c0.863-1.016 1.972-1.821 3.334-2.412l-0.318-0.734c-1.464 0.635-2.675 1.51-3.626 2.628l0.61 0.518zM6.834 1.366c1.38-0.613 2.989-0.926 4.838-0.926v-0.8c-1.938 0-3.662 0.328-5.162 0.994l0.325 0.731zM11.671 0.44c3.416 0 5.902 0.763 7.534 2.218l0.533-0.597c-1.835-1.638-4.549-2.422-8.066-2.422v0.8zM19.208 2.661c1.636 1.434 2.464 3.372 2.464 5.859h0.8c0-2.686-0.905-4.855-2.736-6.461l-0.527 0.602zM21.671 8.52c0 1.593-0.346 3.107-1.040 4.546l0.721 0.347c0.746-1.547 1.12-3.18 1.12-4.894h-0.8zM20.632 13.064c-0.698 1.423-1.739 2.87-3.131 4.341l0.581 0.55c1.434-1.515 2.527-3.028 3.269-4.539l-0.718-0.353zM17.501 17.405c-1.371 1.45-3.077 2.998-5.12 4.643l0.502 0.623c2.063-1.661 3.798-3.234 5.2-4.717l-0.581-0.55zM12.381 22.048c-2.051 1.651-4.408 3.503-7.073 5.555l0.488 0.634c2.668-2.055 5.031-3.91 7.087-5.565l-0.502-0.623zM5.577 28.319l17-1.080-0.051-0.798-17 1.080 0.051 0.798zM22.151 26.84v5.16h0.8v-5.16h-0.8zM22.551 31.6h-21.4v0.8h21.4v-0.8z"></path>
</symbol>
<symbol id="icon-3" viewBox="0 0 23 32">
<path d="M7.406 17.132l-0.381 0.083 0.067 0.307h0.314v-0.39zM6.665 13.737l-0.030-0.389-0.447 0.034 0.096 0.438 0.381-0.083zM7.992 13.659l0.019 0.39 0.009-0 0.009-0.001-0.037-0.389zM9.631 13.502l0.037 0.389 0.009-0.001 0.009-0.001-0.055-0.386zM10.957 13.268l-0.086-0.381-0.002 0 0.088 0.38zM14.899 11.59l0.233 0.313 0.003-0.002 0.002-0.002-0.238-0.309zM15.211 5.151l-0.28 0.271 0.002 0.002 0.002 0.002 0.276-0.276zM7.172 4.995v0zM4.362 7.766l-0.163 0.355 0.304 0.139 0.184-0.279-0.326-0.215zM1.553 6.478l-0.371-0.121-0.108 0.331 0.316 0.145 0.163-0.355zM3.387 3.356l0.291 0.26 0.003-0.004-0.295-0.256zM6.821 0.976l0.151 0.36 0.003-0.001-0.154-0.359zM17.436 1.093l-0.169 0.352 0.004 0.002 0.004 0.002 0.162-0.355zM20.792 3.902l-0.33 0.208 0.003 0.004 0.003 0.004 0.325-0.216zM20.557 12.137v0zM16.382 14.79l-0.091-0.38 0.043 0.767 0.047-0.387zM19.816 16.117l-0.228 0.317 0.004 0.003 0.224-0.32zM22.275 18.927l-0.346 0.181 0.002 0.003 0.002 0.003 0.343-0.187zM20.323 29.463l-0.253-0.297-0.002 0.002 0.255 0.295zM4.675 30.244l-0.21 0.329 0.003 0.002 0.003 0.002 0.204-0.333zM0.304 25.483l-0.288-0.264-0.189 0.207 0.135 0.245 0.342-0.188zM2.45 23.141l0.331-0.206-0.272-0.436-0.347 0.379 0.288 0.264zM6.392 26.732v0zM16.031 26.459l0.258 0.292 0.004-0.003-0.262-0.289zM16.031 18.576v0zM7.787 17.048l-0.741-3.395-0.763 0.167 0.741 3.395 0.763-0.167zM6.695 14.126c0.333-0.026 0.771-0.051 1.315-0.077l-0.037-0.78c-0.548 0.026-0.995 0.052-1.338 0.079l0.060 0.778zM8.029 14.047c0.069-0.007 0.136-0.013 0.205-0.020s0.136-0.013 0.205-0.020c0.069-0.007 0.136-0.013 0.205-0.020s0.136-0.013 0.205-0.020c0.165-0.016 0.245-0.023 0.41-0.039s0.245-0.023 0.41-0.039l-0.074-0.777c-0.069 0.007-0.136 0.013-0.205 0.020s-0.136 0.013-0.205 0.020c-0.069 0.007-0.136 0.013-0.205 0.020s-0.136 0.013-0.205 0.020c-0.165 0.016-0.245 0.023-0.41 0.039s-0.245 0.023-0.41 0.039l0.074 0.777zM9.686 13.889c0.552-0.079 1.006-0.159 1.359-0.24l-0.175-0.761c-0.323 0.075-0.753 0.151-1.294 0.228l0.11 0.773zM11.043 13.649c1.651-0.373 3.019-0.95 4.088-1.746l-0.466-0.626c-0.96 0.714-2.219 1.255-3.795 1.611l0.172 0.761zM15.137 11.9c1.115-0.857 1.674-2.027 1.674-3.47h-0.78c0 1.211-0.455 2.148-1.37 2.852l0.476 0.619zM16.811 8.429c0-1.459-0.43-2.659-1.324-3.554l-0.552 0.552c0.718 0.718 1.095 1.704 1.095 3.002h0.78zM15.492 4.88c-0.885-0.915-2.259-1.329-4.027-1.329v0.78c1.667 0 2.79 0.393 3.466 1.091l0.561-0.543zM11.465 3.551c-1.794 0-3.302 0.361-4.5 1.113l0.415 0.661c1.040-0.653 2.393-0.994 4.085-0.994v-0.78zM6.965 4.665c-1.168 0.733-2.144 1.697-2.928 2.886l0.652 0.429c0.725-1.1 1.622-1.983 2.691-2.655l-0.415-0.661zM4.525 7.411l-2.81-1.288-0.325 0.71 2.81 1.288 0.325-0.71zM1.924 6.599c0.346-1.063 0.928-2.057 1.754-2.983l-0.582-0.519c-0.891 0.999-1.532 2.086-1.914 3.261l0.742 0.242zM3.681 3.612c0.813-0.936 1.904-1.697 3.29-2.276l-0.301-0.72c-1.476 0.617-2.674 1.443-3.578 2.485l0.589 0.512zM6.975 1.334c1.396-0.598 3.109-0.905 5.154-0.905v-0.78c-2.118 0-3.943 0.318-5.461 0.968l0.307 0.717zM12.128 0.429c2.039 0 3.747 0.344 5.138 1.015l0.339-0.703c-1.523-0.734-3.353-1.092-5.477-1.092v0.78zM17.274 1.448c1.425 0.65 2.48 1.54 3.188 2.663l0.66-0.416c-0.801-1.27-1.983-2.254-3.524-2.957l-0.324 0.71zM20.467 4.119c0.735 1.103 1.105 2.354 1.105 3.764h0.78c0-1.556-0.411-2.959-1.236-4.197l-0.649 0.433zM21.572 7.883c0 1.422-0.44 2.762-1.333 4.029l0.638 0.45c0.979-1.387 1.476-2.883 1.476-4.479h-0.78zM20.239 11.912c-0.873 1.236-2.176 2.075-3.948 2.499l0.182 0.759c1.923-0.46 3.403-1.391 4.404-2.808l-0.638-0.45zM16.334 15.178c1.212 0.148 2.294 0.567 3.254 1.256l0.455-0.634c-1.069-0.768-2.276-1.233-3.614-1.397l-0.095 0.775zM19.592 16.437c0.989 0.692 1.767 1.581 2.336 2.671l0.692-0.362c-0.627-1.199-1.488-2.184-2.581-2.949l-0.448 0.639zM21.932 19.114c0.591 1.083 0.889 2.293 0.889 3.637h0.78c0-1.465-0.326-2.805-0.984-4.011l-0.685 0.374zM22.821 22.751c0 2.737-0.924 4.86-2.751 6.415l0.506 0.594c2.023-1.723 3.025-4.075 3.025-7.009h-0.78zM20.068 29.168c-1.799 1.552-4.577 2.364-8.408 2.364v0.78c3.921 0 6.919-0.827 8.918-2.553l-0.51-0.591zM11.66 31.532c-2.787 0-5.038-0.55-6.781-1.62l-0.409 0.665c1.9 1.167 4.305 1.736 7.19 1.736v-0.78zM4.884 29.915c-1.735-1.107-3.149-2.643-4.239-4.62l-0.683 0.377c1.147 2.081 2.648 3.719 4.503 4.902l0.42-0.658zM0.591 25.747l2.146-2.341-0.575-0.527-2.146 2.341 0.575 0.527zM2.119 23.348c1.026 1.647 2.394 2.895 4.1 3.734l0.345-0.7c-1.572-0.774-2.831-1.92-3.783-3.446l-0.662 0.413zM6.219 27.082c1.692 0.833 3.481 1.25 5.363 1.25v-0.78c-1.761 0-3.432-0.389-5.018-1.17l-0.345 0.7zM11.582 28.332c1.919 0 3.501-0.515 4.707-1.581l-0.517-0.585c-1.032 0.912-2.415 1.385-4.19 1.385v0.78zM16.293 26.748c1.205-1.093 1.806-2.501 1.806-4.191h-0.78c0 1.483-0.517 2.677-1.55 3.613l0.524 0.578zM18.099 22.556c0-1.786-0.596-3.228-1.814-4.276l-0.509 0.592c1.019 0.877 1.542 2.089 1.542 3.685h0.78zM16.285 18.28c-1.206-1.038-2.787-1.538-4.703-1.538v0.78c1.778 0 3.163 0.462 4.194 1.349l0.509-0.592zM11.582 16.741h-4.176v0.78h4.176v-0.78z"></path>
</symbol>
<symbol id="icon-4" viewBox="0 0 25 32">
<path d="M19.153 26.063v-0.386h-0.374l-0.012 0.373 0.385 0.012zM18.999 30.998l0.061 0.381 0.315-0.050 0.010-0.318-0.385-0.012zM14.411 31.73h-0.386v0.452l0.446-0.071-0.061-0.381zM14.411 26.063h0.386v-0.386h-0.386v0.386zM1.225 26.063l-0.37 0.11 0.082 0.276h0.288v-0.386zM0.069 22.169l-0.308-0.232-0.117 0.155 0.055 0.187 0.37-0.11zM6.507 11.875v0zM11.866 0.347l0.107-0.37-0.331-0.095-0.132 0.318 0.356 0.148zM17.611 2.005l0.339 0.184 0.228-0.421-0.46-0.133-0.107 0.37zM11.057 13.186l-0.325-0.208-0 0.001 0.325 0.207zM4.58 22.053l-0.293-0.251-0.575 0.671 0.883-0.035-0.015-0.385zM14.411 21.667l0.015 0.385 0.37-0.015v-0.371h-0.386zM14.411 8.174l0.028-0.385-0.413-0.030v0.414h0.386zM19.77 8.559l0.385 0.014 0.013-0.372-0.371-0.027-0.028 0.385zM19.307 21.475l-0.385-0.014-0.015 0.415 0.415-0.015-0.014-0.385zM24.474 21.282h0.386v-0.4l-0.4 0.015 0.014 0.385zM24.474 26.063v0.386h0.386v-0.386h-0.386zM18.768 26.051l-0.154 4.935 0.771 0.024 0.154-4.935-0.771-0.024zM18.938 30.617l-4.588 0.733 0.122 0.761 4.588-0.733-0.122-0.761zM14.797 31.73v-5.667h-0.771v5.667h0.771zM14.411 25.677h-13.186v0.771h13.186v-0.771zM1.595 25.953l-1.157-3.894-0.739 0.22 1.157 3.894 0.739-0.22zM0.377 22.401c2.379-3.154 4.536-6.604 6.473-10.349l-0.685-0.354c-1.918 3.709-4.053 7.122-6.404 10.239l0.616 0.464zM6.85 12.052c1.933-3.737 3.724-7.589 5.373-11.557l-0.712-0.296c-1.641 3.949-3.423 7.781-5.345 11.499l0.685 0.354zM11.759 0.717l5.745 1.658 0.214-0.741-5.745-1.658-0.214 0.741zM17.272 1.821c-2.181 4.028-4.361 7.747-6.54 11.157l0.65 0.415c2.19-3.427 4.38-7.162 6.568-11.205l-0.678-0.367zM10.732 12.979c-2.151 3.381-4.3 6.321-6.445 8.824l0.585 0.502c2.173-2.535 4.343-5.506 6.51-8.911l-0.651-0.414zM4.595 22.438l9.831-0.386-0.030-0.77-9.831 0.386 0.030 0.77zM14.797 21.667v-13.494h-0.771v13.494h0.771zM14.383 8.558l5.359 0.386 0.055-0.769-5.359-0.386-0.055 0.769zM19.385 8.545l-0.463 12.916 0.771 0.028 0.463-12.916-0.771-0.028zM19.322 21.86l5.166-0.193-0.029-0.771-5.166 0.193 0.029 0.771zM24.088 21.282v4.781h0.771v-4.781h-0.771zM24.474 25.677h-5.32v0.771h5.32v-0.771z"></path>
</symbol>
<symbol id="icon-5" viewBox="0 0 24 32">
<path d="M7.191 5v-0.4h-0.34l-0.055 0.336 0.395 0.064zM5.911 12.88l-0.395-0.064-0.055 0.336 0.323 0.108 0.126-0.379zM6.031 12.92l-0.126 0.379 0.228 0.076 0.174-0.166-0.276-0.29zM8.671 11.44l-0.139-0.375-0.003 0.001 0.141 0.374zM18.391 11.84l-0.155 0.369 0.003 0.001 0.003 0.001 0.149-0.371zM22.551 15.12l-0.328 0.229 0.002 0.003 0.326-0.231zM17.831 30.68l0.16 0.367 0.004-0.002-0.164-0.365zM4.431 29.92v0zM0.271 24.76l-0.22-0.334-0.271 0.178 0.119 0.302 0.372-0.146zM3.071 22.92l0.351-0.191-0.208-0.382-0.363 0.239 0.22 0.334zM6.591 26.48l-0.196 0.349 0.005 0.003 0.191-0.351zM15.151 26.96v0zM17.631 24.68l0.342 0.207 0.002-0.004-0.345-0.203zM8.271 15.48l0.194 0.35 0.003-0.001-0.197-0.348zM5.711 18.12l-0.093 0.389 0.318 0.076 0.138-0.297-0.363-0.168zM1.031 17l-0.399-0.033-0.028 0.342 0.334 0.080 0.093-0.389zM2.431 0v-0.4h-0.368l-0.030 0.367 0.399 0.033zM8.031 0l0.393 0.074 0.089-0.474h-0.482v0.4zM7.791 1.28l-0.393-0.074-0.098 0.521 0.528-0.049-0.037-0.398zM21.591 0h0.4v-0.439l-0.437 0.041 0.037 0.398zM21.591 5v0.4h0.4v-0.4h-0.4zM6.797 4.936l-1.28 7.88 0.79 0.128 1.28-7.88-0.79-0.128zM5.785 13.259l0.12 0.040 0.253-0.759-0.12-0.040-0.253 0.759zM6.307 13.21c0.504-0.48 1.327-0.95 2.505-1.395l-0.283-0.748c-1.221 0.461-2.158 0.978-2.774 1.565l0.552 0.579zM8.81 11.815c1.175-0.434 2.514-0.655 4.021-0.655v-0.8c-1.586 0-3.020 0.232-4.299 0.705l0.277 0.75zM12.831 11.16c1.951 0 3.751 0.351 5.405 1.049l0.311-0.737c-1.76-0.742-3.666-1.111-5.715-1.111v0.8zM18.243 12.211c1.663 0.665 2.986 1.71 3.98 3.137l0.656-0.457c-1.086-1.559-2.536-2.701-4.34-3.423l-0.297 0.743zM22.225 15.351c0.979 1.381 1.486 3.2 1.486 5.489h0.8c0-2.404-0.533-4.399-1.634-5.951l-0.653 0.463zM23.711 20.84c0 2.335-0.557 4.278-1.649 5.852l0.657 0.456c1.201-1.732 1.791-3.843 1.791-6.308h-0.8zM22.063 26.692c-1.104 1.592-2.566 2.799-4.396 3.623l0.329 0.729c1.957-0.882 3.535-2.182 4.724-3.897l-0.657-0.456zM17.671 30.313c-1.839 0.803-3.85 1.207-6.040 1.207v0.8c2.29 0 4.412-0.423 6.36-1.273l-0.32-0.733zM11.631 31.52c-2.79 0-5.107-0.651-6.974-1.93l-0.452 0.66c2.026 1.388 4.509 2.070 7.426 2.070v-0.8zM4.657 29.59c-1.884-1.29-3.218-2.947-4.014-4.976l-0.745 0.292c0.857 2.185 2.297 3.967 4.306 5.344l0.452-0.66zM0.491 25.094l2.8-1.84-0.439-0.669-2.8 1.84 0.439 0.669zM2.72 23.111c0.863 1.587 2.090 2.828 3.676 3.718l0.392-0.698c-1.455-0.817-2.574-1.949-3.364-3.402l-0.703 0.382zM6.4 26.831c1.583 0.861 3.343 1.289 5.271 1.289v-0.8c-1.805 0-3.432-0.399-4.889-1.191l-0.382 0.703zM11.671 28.12c1.334 0 2.555-0.264 3.655-0.8l-0.35-0.719c-0.98 0.477-2.079 0.72-3.305 0.72v0.8zM15.327 27.32c1.111-0.541 1.995-1.355 2.647-2.432l-0.684-0.414c-0.574 0.949-1.344 1.655-2.313 2.128l0.35 0.719zM17.976 24.883c0.658-1.116 0.975-2.47 0.975-4.043h-0.8c0 1.467-0.296 2.672-0.865 3.637l0.689 0.406zM18.951 20.84c0-2.262-0.651-4.008-2.025-5.148l-0.511 0.616c1.133 0.94 1.735 2.421 1.735 4.532h0.8zM16.927 15.692c-1.333-1.106-2.96-1.652-4.855-1.652v0.8c1.731 0 3.171 0.494 4.345 1.468l0.511-0.616zM12.071 14.040c-1.381 0-2.715 0.367-3.997 1.092l0.394 0.696c1.171-0.662 2.371-0.988 3.603-0.988v-0.8zM8.077 15.13c-1.263 0.702-2.182 1.641-2.729 2.821l0.726 0.336c0.466-1.006 1.255-1.827 2.391-2.459l-0.389-0.699zM5.805 17.731l-4.68-1.12-0.186 0.778 4.68 1.12 0.186-0.778zM1.43 17.033l1.4-17-0.797-0.066-1.4 17 0.797 0.066zM2.431 0.4h5.6v-0.8h-5.6v0.8zM7.638-0.074l-0.24 1.28 0.786 0.147 0.24-1.28-0.786-0.147zM7.828 1.678l13.8-1.28-0.074-0.797-13.8 1.28 0.074 0.797zM21.191 0v5h0.8v-5h-0.8zM21.591 4.6h-14.4v0.8h14.4v-0.8z"></path>
</symbol>
<symbol id="icon-6" viewBox="0 0 24 32">
<path d="M20.284 6.556l-0.294 0.257 0.277 0.317 0.295-0.3-0.278-0.273zM17.396 4.644l-0.142 0.363 0.003 0.001 0.003 0.001 0.135-0.366zM9.475 5.19v0zM6.548 8.937l-0.358-0.156-0.002 0.005 0.36 0.152zM5.494 15.22h-0.39l0.748 0.156-0.358-0.156zM8.265 12.293l-0.19-0.341-0.003 0.002 0.193 0.339zM18.45 12.254l-0.158 0.357 0.002 0.001 0.156-0.358zM22.314 15.571l-0.333 0.204 0.002 0.003 0.331-0.207zM22.197 27.005l-0.333-0.204-0.001 0.002 0.334 0.202zM18.177 30.673l0.17 0.351 0.004-0.002-0.175-0.349zM5.962 30.322l-0.199 0.335 0.002 0.001 0.197-0.337zM1.709 25.327l-0.357 0.158 0.002 0.005 0.355-0.163zM1.904 7.376v0zM18.723 1.132l-0.161 0.356 0.003 0.002 0.003 0.001 0.154-0.359zM22.47 4.332l0.278 0.273 0.212-0.215-0.155-0.259-0.335 0.201zM5.923 20.449l-0.385-0.063-0.005 0.031v0.032h0.39zM6.743 24.429l-0.354 0.165 0.002 0.005 0.002 0.005 0.349-0.175zM9.006 27.161v0zM16.655 26.419v0zM16.694 16.78l-0.279 0.273 0.003 0.003 0.276-0.276zM8.070 16.585l0.252 0.298 0.004-0.003-0.256-0.295zM20.578 6.299c-0.778-0.889-1.798-1.56-3.046-2.021l-0.271 0.732c1.145 0.423 2.050 1.027 2.729 1.803l0.587-0.514zM17.539 4.28c-1.245-0.487-2.582-0.729-4.006-0.729v0.781c1.334 0 2.573 0.226 3.721 0.676l0.284-0.727zM13.533 3.551c-1.561 0-2.99 0.44-4.278 1.316l0.439 0.645c1.158-0.788 2.434-1.181 3.839-1.181v-0.78zM9.255 4.868c-1.296 0.882-2.314 2.196-3.065 3.912l0.715 0.313c0.706-1.613 1.639-2.797 2.789-3.58l-0.439-0.645zM6.188 8.785c-0.729 1.728-1.084 3.878-1.084 6.435h0.78c0-2.491 0.347-4.529 1.023-6.131l-0.719-0.303zM5.852 15.375c0.481-1.107 1.339-2.023 2.606-2.743l-0.386-0.678c-1.387 0.789-2.376 1.824-2.936 3.11l0.716 0.311zM8.455 12.634c1.292-0.721 2.709-1.082 4.259-1.082v-0.78c-1.677 0-3.225 0.393-4.639 1.181l0.38 0.682zM12.714 11.551c2.142 0 3.999 0.357 5.578 1.059l0.317-0.713c-1.699-0.755-3.667-1.126-5.895-1.126v0.78zM18.294 12.611c1.595 0.698 2.82 1.752 3.687 3.164l0.665-0.408c-0.954-1.554-2.305-2.711-4.040-3.47l-0.313 0.715zM21.983 15.778c0.861 1.378 1.307 3.161 1.307 5.374h0.78c0-2.314-0.465-4.252-1.425-5.787l-0.662 0.414zM23.289 21.151c0 2.233-0.482 4.11-1.425 5.65l0.665 0.408c1.033-1.686 1.54-3.711 1.54-6.058h-0.78zM21.863 26.802c-0.923 1.522-2.207 2.695-3.86 3.522l0.349 0.698c1.781-0.89 3.177-2.163 4.179-3.815l-0.667-0.405zM18.007 30.322c-1.655 0.802-3.585 1.21-5.8 1.21v0.78c2.312 0 4.362-0.425 6.141-1.288l-0.341-0.702zM12.206 31.532c-2.28 0-4.292-0.519-6.047-1.546l-0.394 0.673c1.887 1.105 4.038 1.653 6.441 1.653v-0.78zM6.162 29.986c-1.715-1.019-3.084-2.617-4.098-4.823l-0.709 0.326c1.067 2.321 2.533 4.053 4.409 5.168l0.399-0.671zM2.065 25.169c-0.985-2.223-1.488-5.104-1.488-8.661h-0.78c0 3.623 0.511 6.622 1.555 8.978l0.714-0.316zM0.577 16.507c0-3.604 0.567-6.587 1.68-8.966l-0.707-0.331c-1.176 2.512-1.754 5.617-1.754 9.297h0.78zM2.257 7.541c1.118-2.389 2.62-4.161 4.498-5.337l-0.414-0.661c-2.025 1.269-3.619 3.166-4.79 5.668l0.707 0.331zM6.755 2.204c1.886-1.182 3.999-1.775 6.349-1.775v-0.78c-2.489 0-4.747 0.63-6.763 1.894l0.414 0.661zM13.104 0.429c2.089 0 3.906 0.357 5.459 1.058l0.321-0.711c-1.673-0.755-3.603-1.127-5.78-1.127v0.78zM18.57 1.49c1.569 0.672 2.752 1.687 3.565 3.042l0.669-0.402c-0.904-1.506-2.218-2.626-3.927-3.358l-0.307 0.717zM22.191 4.058l-2.185 2.224 0.557 0.547 2.185-2.224-0.557-0.547zM5.533 20.449c0 1.532 0.282 2.916 0.856 4.146l0.707-0.33c-0.519-1.112-0.783-2.381-0.783-3.815h-0.78zM6.394 24.604c0.597 1.195 1.391 2.156 2.384 2.874l0.457-0.633c-0.88-0.636-1.596-1.495-2.143-2.59l-0.698 0.349zM8.778 27.477c1.001 0.723 2.108 1.088 3.311 1.088v-0.78c-1.034 0-1.982-0.311-2.854-0.941l-0.457 0.633zM12.089 28.566c1.986 0 3.615-0.616 4.845-1.874l-0.558-0.546c-1.059 1.084-2.474 1.639-4.287 1.639v0.78zM16.934 26.692c1.235-1.263 1.828-3.011 1.828-5.19h-0.78c0 2.036-0.551 3.566-1.606 4.644l0.558 0.546zM18.762 21.502c0-2.102-0.581-3.787-1.792-4.998l-0.552 0.552c1.026 1.026 1.564 2.49 1.564 4.446h0.78zM16.973 16.508c-1.207-1.235-2.838-1.835-4.845-1.835v0.78c1.843 0 3.256 0.545 4.287 1.6l0.558-0.545zM12.128 14.673c-1.63 0-3.073 0.542-4.314 1.617l0.511 0.59c1.101-0.954 2.363-1.427 3.803-1.427v-0.78zM7.818 16.287c-1.245 1.052-2.005 2.425-2.28 4.098l0.77 0.126c0.246-1.5 0.917-2.703 2.013-3.628l-0.504-0.596z"></path>
</symbol>
</defs>
</svg>
