<svg width="94" height="90" viewBox="0 0 94 90" fill="none" xmlns="http://www.w3.org/2000/svg">
<circle cx="41.9991" cy="42" r="40" stroke="#67CEEF" stroke-width="4"/>
<path d="M65.9141 41.9999C65.9141 53.0266 63.044 62.916 58.5094 69.9869C53.9607 77.0797 47.9184 81.1063 41.5524 81.1063C35.1863 81.1063 29.144 77.0797 24.5954 69.9869C20.0608 62.916 17.1907 53.0266 17.1907 41.9999C17.1907 30.9733 20.0608 21.0839 24.5954 14.013C29.144 6.92019 35.1863 2.89355 41.5524 2.89355C47.9184 2.89355 53.9607 6.92019 58.5094 14.013C63.044 21.0839 65.9141 30.9733 65.9141 41.9999Z" stroke="#67CEEF" stroke-width="4"/>
<rect x="8.04169" y="19.6595" width="67.9149" height="3.57447" fill="#67CEEF"/>
<rect x="2.67999" y="40.2128" width="78.6383" height="3.57447" fill="#67CEEF"/>
<rect x="7.14807" y="61.6595" width="68.8085" height="3.57447" fill="#67CEEF"/>
<rect x="43.0114" y="4.25476" width="75.2822" height="3.57447" transform="rotate(89.7019 43.0114 4.25476)" fill="#67CEEF"/>
<rect x="73.0716" y="72.7596" width="6.7884" height="13.1348" transform="rotate(-23.1851 73.0716 72.7596)" stroke="#67CEEF" stroke-width="3"/>
<path d="M64.0801 74.4493L66.3324 48.0064L86.1811 65.7815L85.5786 65.8283L85.3991 65.8422L85.225 65.888L82.8052 66.5239L82.2462 66.6708L81.8517 67.0933L80.6427 68.3881L70.2861 73.4941L67.6746 73.3129L67.2471 73.2832L66.8451 73.4313L64.0801 74.4493Z" fill="#061E7D" stroke="#67CEEF" stroke-width="4"/>
</svg>
